<svg width="200" height="50" viewBox="0 0 200 50" fill="none" xmlns="http://www.w3.org/2000/svg">
<g style="mix-blend-mode:multiply">
<mask id="path-1-outside-1_2_29" maskUnits="userSpaceOnUse" x="17" y="16" width="158" height="16" fill="black">
<rect fill="white" x="17" y="16" width="158" height="16"/>
<path d="M20.14 31.18C19.5533 31.18 19.0933 31.02 18.76 30.7C18.44 30.3667 18.28 29.8933 18.28 29.28V18.8C18.28 18.1867 18.44 17.72 18.76 17.4C19.0933 17.0667 19.5733 16.9 20.2 16.9H26.86C27.34 16.9 27.7 17.02 27.94 17.26C28.18 17.5 28.3 17.8467 28.3 18.3C28.3 18.7667 28.18 19.1267 27.94 19.38C27.7 19.62 27.34 19.74 26.86 19.74H21.96V22.58H26.42C26.8867 22.58 27.24 22.7 27.48 22.94C27.7333 23.18 27.86 23.5267 27.86 23.98C27.86 24.4467 27.7333 24.8 27.48 25.04C27.24 25.28 26.8867 25.4 26.42 25.4H21.96V29.28C21.96 30.5467 21.3533 31.18 20.14 31.18ZM36.5058 31.22C35.0791 31.22 33.8258 30.92 32.7458 30.32C31.6658 29.7067 30.8258 28.8533 30.2258 27.76C29.6391 26.6667 29.3458 25.3933 29.3458 23.94C29.3458 22.8467 29.5124 21.8533 29.8458 20.96C30.1924 20.0667 30.6791 19.3 31.3058 18.66C31.9458 18.02 32.7058 17.5333 33.5858 17.2C34.4658 16.8533 35.4391 16.68 36.5058 16.68C37.9324 16.68 39.1791 16.98 40.2458 17.58C41.3258 18.18 42.1658 19.0267 42.7658 20.12C43.3658 21.2 43.6658 22.4733 43.6658 23.94C43.6658 25.0333 43.4924 26.0267 43.1458 26.92C42.8124 27.8133 42.3258 28.5867 41.6858 29.24C41.0591 29.88 40.3058 30.3733 39.4258 30.72C38.5458 31.0533 37.5724 31.22 36.5058 31.22ZM36.5058 28.14C37.2124 28.14 37.8124 27.9733 38.3058 27.64C38.7991 27.3067 39.1791 26.8267 39.4458 26.2C39.7124 25.5733 39.8458 24.82 39.8458 23.94C39.8458 22.62 39.5524 21.5933 38.9658 20.86C38.3791 20.1267 37.5591 19.76 36.5058 19.76C35.8124 19.76 35.2124 19.9267 34.7058 20.26C34.2124 20.58 33.8324 21.0533 33.5658 21.68C33.2991 22.2933 33.1658 23.0467 33.1658 23.94C33.1658 25.26 33.4591 26.2933 34.0458 27.04C34.6324 27.7733 35.4524 28.14 36.5058 28.14ZM52.6386 31.22C51.2119 31.22 49.9586 30.92 48.8786 30.32C47.7986 29.7067 46.9586 28.8533 46.3586 27.76C45.7719 26.6667 45.4786 25.3933 45.4786 23.94C45.4786 22.8467 45.6453 21.8533 45.9786 20.96C46.3253 20.0667 46.8119 19.3 47.4386 18.66C48.0786 18.02 48.8386 17.5333 49.7186 17.2C50.5986 16.8533 51.5719 16.68 52.6386 16.68C54.0653 16.68 55.3119 16.98 56.3786 17.58C57.4586 18.18 58.2986 19.0267 58.8986 20.12C59.4986 21.2 59.7986 22.4733 59.7986 23.94C59.7986 25.0333 59.6253 26.0267 59.2786 26.92C58.9453 27.8133 58.4586 28.5867 57.8186 29.24C57.1919 29.88 56.4386 30.3733 55.5586 30.72C54.6786 31.0533 53.7053 31.22 52.6386 31.22ZM52.6386 28.14C53.3453 28.14 53.9453 27.9733 54.4386 27.64C54.9319 27.3067 55.3119 26.8267 55.5786 26.2C55.8453 25.5733 55.9786 24.82 55.9786 23.94C55.9786 22.62 55.6853 21.5933 55.0986 20.86C54.5119 20.1267 53.6919 19.76 52.6386 19.76C51.9453 19.76 51.3453 19.9267 50.8386 20.26C50.3453 20.58 49.9653 21.0533 49.6986 21.68C49.4319 22.2933 49.2986 23.0467 49.2986 23.94C49.2986 25.26 49.5919 26.2933 50.1786 27.04C50.7653 27.7733 51.5853 28.14 52.6386 28.14ZM63.8914 31C63.2647 31 62.7847 30.84 62.4514 30.52C62.1314 30.1867 61.9714 29.7133 61.9714 29.1V18.8C61.9714 18.1867 62.1314 17.72 62.4514 17.4C62.7847 17.0667 63.2647 16.9 63.8914 16.9H67.8114C70.2647 16.9 72.1581 17.5133 73.4914 18.74C74.8381 19.9667 75.5114 21.7 75.5114 23.94C75.5114 25.06 75.3381 26.06 74.9914 26.94C74.6447 27.8067 74.1447 28.5467 73.4914 29.16C72.8381 29.76 72.0314 30.22 71.0714 30.54C70.1247 30.8467 69.0381 31 67.8114 31H63.8914ZM65.6514 28.02H67.5714C68.2781 28.02 68.8847 27.9333 69.3914 27.76C69.9114 27.5867 70.3381 27.3333 70.6714 27C71.0181 26.6667 71.2714 26.2467 71.4314 25.74C71.6047 25.2333 71.6914 24.6333 71.6914 23.94C71.6914 22.5533 71.3514 21.5333 70.6714 20.88C69.9914 20.2133 68.9581 19.88 67.5714 19.88H65.6514V28.02ZM85.3367 31C84.7101 31 84.2301 30.84 83.8967 30.52C83.5767 30.1867 83.4167 29.7133 83.4167 29.1V18.8C83.4167 18.1867 83.5767 17.72 83.8967 17.4C84.2301 17.0667 84.7101 16.9 85.3367 16.9H92.1167C92.5967 16.9 92.9567 17.02 93.1967 17.26C93.4367 17.5 93.5567 17.8467 93.5567 18.3C93.5567 18.7667 93.4367 19.1267 93.1967 19.38C92.9567 19.62 92.5967 19.74 92.1167 19.74H86.9367V22.42H91.6767C92.1434 22.42 92.4967 22.54 92.7367 22.78C92.9901 23.02 93.1167 23.3733 93.1167 23.84C93.1167 24.3067 92.9901 24.66 92.7367 24.9C92.4967 25.14 92.1434 25.26 91.6767 25.26H86.9367V28.16H92.1167C92.5967 28.16 92.9567 28.2867 93.1967 28.54C93.4367 28.78 93.5567 29.1267 93.5567 29.58C93.5567 30.0467 93.4367 30.4 93.1967 30.64C92.9567 30.88 92.5967 31 92.1167 31H85.3367ZM96.9628 31.18C96.4961 31.18 96.1095 31.0533 95.8028 30.8C95.4961 30.5467 95.3161 30.2267 95.2628 29.84C95.2228 29.4533 95.3561 29.06 95.6628 28.66L99.9028 23.06V24.72L95.7828 19.26C95.4761 18.8467 95.3428 18.4467 95.3828 18.06C95.4361 17.6733 95.6161 17.3533 95.9228 17.1C96.2295 16.8467 96.6161 16.72 97.0828 16.72C97.4695 16.72 97.8095 16.8133 98.1028 17C98.3961 17.1867 98.6895 17.4867 98.9828 17.9L101.963 22.04H100.763L103.763 17.9C104.056 17.4733 104.349 17.1733 104.643 17C104.936 16.8133 105.276 16.72 105.663 16.72C106.143 16.72 106.536 16.8467 106.843 17.1C107.149 17.34 107.323 17.6533 107.363 18.04C107.416 18.4267 107.283 18.8333 106.963 19.26L102.823 24.72V23.06L107.063 28.66C107.383 29.06 107.516 29.4533 107.463 29.84C107.423 30.2267 107.249 30.5467 106.943 30.8C106.636 31.0533 106.243 31.18 105.763 31.18C105.389 31.18 105.056 31.0933 104.763 30.92C104.469 30.7333 104.169 30.4267 103.863 30L100.783 25.74H101.943L98.8828 30C98.5761 30.4267 98.2761 30.7333 97.9828 30.92C97.6895 31.0933 97.3495 31.18 96.9628 31.18ZM111.468 31.18C110.881 31.18 110.428 31.02 110.108 30.7C109.788 30.3667 109.628 29.9067 109.628 29.32V18.76C109.628 18.16 109.788 17.7 110.108 17.38C110.441 17.06 110.901 16.9 111.488 16.9H116.408C118.008 16.9 119.241 17.3133 120.108 18.14C120.988 18.9533 121.428 20.08 121.428 21.52C121.428 22.96 120.988 24.0933 120.108 24.92C119.241 25.7333 118.008 26.14 116.408 26.14H113.308V29.32C113.308 29.9067 113.154 30.3667 112.848 30.7C112.541 31.02 112.081 31.18 111.468 31.18ZM113.308 23.32H115.768C116.461 23.32 116.994 23.1733 117.368 22.88C117.741 22.5733 117.928 22.12 117.928 21.52C117.928 20.9067 117.741 20.4533 117.368 20.16C116.994 19.8667 116.461 19.72 115.768 19.72H113.308V23.32ZM124.983 31.18C124.397 31.18 123.943 31.02 123.623 30.7C123.303 30.3667 123.143 29.9067 123.143 29.32V18.76C123.143 18.16 123.303 17.7 123.623 17.38C123.957 17.06 124.417 16.9 125.003 16.9H129.923C131.523 16.9 132.757 17.2933 133.623 18.08C134.503 18.8533 134.943 19.9333 134.943 21.32C134.943 22.2133 134.743 22.9933 134.343 23.66C133.957 24.3133 133.39 24.82 132.643 25.18C131.91 25.5267 131.003 25.7 129.923 25.7L130.083 25.34H131.043C131.617 25.34 132.123 25.48 132.563 25.76C133.003 26.0267 133.37 26.44 133.663 27L134.663 28.8C134.877 29.1867 134.977 29.5667 134.963 29.94C134.95 30.3 134.803 30.6 134.523 30.84C134.257 31.0667 133.863 31.18 133.343 31.18C132.823 31.18 132.397 31.0733 132.063 30.86C131.743 30.6467 131.457 30.3133 131.203 29.86L129.383 26.52C129.223 26.2267 129.017 26.0267 128.763 25.92C128.523 25.8 128.243 25.74 127.923 25.74H126.823V29.32C126.823 29.9067 126.67 30.3667 126.363 30.7C126.057 31.02 125.597 31.18 124.983 31.18ZM126.823 23.14H129.263C129.97 23.14 130.51 23 130.883 22.72C131.257 22.44 131.443 22.0067 131.443 21.42C131.443 20.86 131.257 20.44 130.883 20.16C130.51 19.8667 129.97 19.72 129.263 19.72H126.823V23.14ZM139.184 31C138.558 31 138.078 30.84 137.744 30.52C137.424 30.1867 137.264 29.7133 137.264 29.1V18.8C137.264 18.1867 137.424 17.72 137.744 17.4C138.078 17.0667 138.558 16.9 139.184 16.9H145.964C146.444 16.9 146.804 17.02 147.044 17.26C147.284 17.5 147.404 17.8467 147.404 18.3C147.404 18.7667 147.284 19.1267 147.044 19.38C146.804 19.62 146.444 19.74 145.964 19.74H140.784V22.42H145.524C145.991 22.42 146.344 22.54 146.584 22.78C146.838 23.02 146.964 23.3733 146.964 23.84C146.964 24.3067 146.838 24.66 146.584 24.9C146.344 25.14 145.991 25.26 145.524 25.26H140.784V28.16H145.964C146.444 28.16 146.804 28.2867 147.044 28.54C147.284 28.78 147.404 29.1267 147.404 29.58C147.404 30.0467 147.284 30.4 147.044 30.64C146.804 30.88 146.444 31 145.964 31H139.184ZM154.594 31.22C154.061 31.22 153.501 31.18 152.914 31.1C152.341 31.0333 151.794 30.9267 151.274 30.78C150.754 30.6333 150.288 30.46 149.874 30.26C149.514 30.0867 149.261 29.86 149.114 29.58C148.968 29.2867 148.914 28.98 148.954 28.66C148.994 28.34 149.108 28.06 149.294 27.82C149.481 27.5667 149.728 27.4 150.034 27.32C150.341 27.2267 150.688 27.2667 151.074 27.44C151.581 27.68 152.154 27.8667 152.794 28C153.434 28.1333 154.034 28.2 154.594 28.2C155.474 28.2 156.088 28.0867 156.434 27.86C156.794 27.62 156.974 27.3267 156.974 26.98C156.974 26.6733 156.848 26.4267 156.594 26.24C156.354 26.0533 155.921 25.8933 155.294 25.76L152.954 25.26C151.674 24.9933 150.721 24.5267 150.094 23.86C149.468 23.1933 149.154 22.3333 149.154 21.28C149.154 20.5867 149.294 19.96 149.574 19.4C149.868 18.8267 150.274 18.34 150.794 17.94C151.328 17.54 151.954 17.2333 152.674 17.02C153.408 16.7933 154.221 16.68 155.114 16.68C155.808 16.68 156.508 16.76 157.214 16.92C157.934 17.0667 158.554 17.2933 159.074 17.6C159.381 17.76 159.601 17.98 159.734 18.26C159.868 18.54 159.921 18.8333 159.894 19.14C159.868 19.4333 159.761 19.6933 159.574 19.92C159.401 20.1467 159.161 20.3 158.854 20.38C158.561 20.4467 158.208 20.3933 157.794 20.22C157.408 20.0467 156.968 19.92 156.474 19.84C155.994 19.7467 155.528 19.7 155.074 19.7C154.581 19.7 154.161 19.76 153.814 19.88C153.468 19.9867 153.201 20.1467 153.014 20.36C152.841 20.5733 152.754 20.82 152.754 21.1C152.754 21.38 152.868 21.62 153.094 21.82C153.334 22.0067 153.768 22.1667 154.394 22.3L156.714 22.8C158.008 23.08 158.974 23.54 159.614 24.18C160.254 24.82 160.574 25.6533 160.574 26.68C160.574 27.3733 160.434 28 160.154 28.56C159.874 29.12 159.474 29.6 158.954 30C158.434 30.3867 157.808 30.6867 157.074 30.9C156.341 31.1133 155.514 31.22 154.594 31.22ZM167.622 31.22C167.088 31.22 166.528 31.18 165.942 31.1C165.368 31.0333 164.822 30.9267 164.302 30.78C163.782 30.6333 163.315 30.46 162.902 30.26C162.542 30.0867 162.288 29.86 162.142 29.58C161.995 29.2867 161.942 28.98 161.982 28.66C162.022 28.34 162.135 28.06 162.322 27.82C162.508 27.5667 162.755 27.4 163.062 27.32C163.368 27.2267 163.715 27.2667 164.102 27.44C164.608 27.68 165.182 27.8667 165.822 28C166.462 28.1333 167.062 28.2 167.622 28.2C168.502 28.2 169.115 28.0867 169.462 27.86C169.822 27.62 170.002 27.3267 170.002 26.98C170.002 26.6733 169.875 26.4267 169.622 26.24C169.382 26.0533 168.948 25.8933 168.322 25.76L165.982 25.26C164.702 24.9933 163.748 24.5267 163.122 23.86C162.495 23.1933 162.182 22.3333 162.182 21.28C162.182 20.5867 162.322 19.96 162.602 19.4C162.895 18.8267 163.302 18.34 163.822 17.94C164.355 17.54 164.982 17.2333 165.702 17.02C166.435 16.7933 167.248 16.68 168.142 16.68C168.835 16.68 169.535 16.76 170.242 16.92C170.962 17.0667 171.582 17.2933 172.102 17.6C172.408 17.76 172.628 17.98 172.762 18.26C172.895 18.54 172.948 18.8333 172.922 19.14C172.895 19.4333 172.788 19.6933 172.602 19.92C172.428 20.1467 172.188 20.3 171.882 20.38C171.588 20.4467 171.235 20.3933 170.822 20.22C170.435 20.0467 169.995 19.92 169.502 19.84C169.022 19.7467 168.555 19.7 168.102 19.7C167.608 19.7 167.188 19.76 166.842 19.88C166.495 19.9867 166.228 20.1467 166.042 20.36C165.868 20.5733 165.782 20.82 165.782 21.1C165.782 21.38 165.895 21.62 166.122 21.82C166.362 22.0067 166.795 22.1667 167.422 22.3L169.742 22.8C171.035 23.08 172.002 23.54 172.642 24.18C173.282 24.82 173.602 25.6533 173.602 26.68C173.602 27.3733 173.462 28 173.182 28.56C172.902 29.12 172.502 29.6 171.982 30C171.462 30.3867 170.835 30.6867 170.102 30.9C169.368 31.1133 168.542 31.22 167.622 31.22Z"/>
</mask>
<path d="M20.14 31.18C19.5533 31.18 19.0933 31.02 18.76 30.7C18.44 30.3667 18.28 29.8933 18.28 29.28V18.8C18.28 18.1867 18.44 17.72 18.76 17.4C19.0933 17.0667 19.5733 16.9 20.2 16.9H26.86C27.34 16.9 27.7 17.02 27.94 17.26C28.18 17.5 28.3 17.8467 28.3 18.3C28.3 18.7667 28.18 19.1267 27.94 19.38C27.7 19.62 27.34 19.74 26.86 19.74H21.96V22.58H26.42C26.8867 22.58 27.24 22.7 27.48 22.94C27.7333 23.18 27.86 23.5267 27.86 23.98C27.86 24.4467 27.7333 24.8 27.48 25.04C27.24 25.28 26.8867 25.4 26.42 25.4H21.96V29.28C21.96 30.5467 21.3533 31.18 20.14 31.18ZM36.5058 31.22C35.0791 31.22 33.8258 30.92 32.7458 30.32C31.6658 29.7067 30.8258 28.8533 30.2258 27.76C29.6391 26.6667 29.3458 25.3933 29.3458 23.94C29.3458 22.8467 29.5124 21.8533 29.8458 20.96C30.1924 20.0667 30.6791 19.3 31.3058 18.66C31.9458 18.02 32.7058 17.5333 33.5858 17.2C34.4658 16.8533 35.4391 16.68 36.5058 16.68C37.9324 16.68 39.1791 16.98 40.2458 17.58C41.3258 18.18 42.1658 19.0267 42.7658 20.12C43.3658 21.2 43.6658 22.4733 43.6658 23.94C43.6658 25.0333 43.4924 26.0267 43.1458 26.92C42.8124 27.8133 42.3258 28.5867 41.6858 29.24C41.0591 29.88 40.3058 30.3733 39.4258 30.72C38.5458 31.0533 37.5724 31.22 36.5058 31.22ZM36.5058 28.14C37.2124 28.14 37.8124 27.9733 38.3058 27.64C38.7991 27.3067 39.1791 26.8267 39.4458 26.2C39.7124 25.5733 39.8458 24.82 39.8458 23.94C39.8458 22.62 39.5524 21.5933 38.9658 20.86C38.3791 20.1267 37.5591 19.76 36.5058 19.76C35.8124 19.76 35.2124 19.9267 34.7058 20.26C34.2124 20.58 33.8324 21.0533 33.5658 21.68C33.2991 22.2933 33.1658 23.0467 33.1658 23.94C33.1658 25.26 33.4591 26.2933 34.0458 27.04C34.6324 27.7733 35.4524 28.14 36.5058 28.14ZM52.6386 31.22C51.2119 31.22 49.9586 30.92 48.8786 30.32C47.7986 29.7067 46.9586 28.8533 46.3586 27.76C45.7719 26.6667 45.4786 25.3933 45.4786 23.94C45.4786 22.8467 45.6453 21.8533 45.9786 20.96C46.3253 20.0667 46.8119 19.3 47.4386 18.66C48.0786 18.02 48.8386 17.5333 49.7186 17.2C50.5986 16.8533 51.5719 16.68 52.6386 16.68C54.0653 16.68 55.3119 16.98 56.3786 17.58C57.4586 18.18 58.2986 19.0267 58.8986 20.12C59.4986 21.2 59.7986 22.4733 59.7986 23.94C59.7986 25.0333 59.6253 26.0267 59.2786 26.92C58.9453 27.8133 58.4586 28.5867 57.8186 29.24C57.1919 29.88 56.4386 30.3733 55.5586 30.72C54.6786 31.0533 53.7053 31.22 52.6386 31.22ZM52.6386 28.14C53.3453 28.14 53.9453 27.9733 54.4386 27.64C54.9319 27.3067 55.3119 26.8267 55.5786 26.2C55.8453 25.5733 55.9786 24.82 55.9786 23.94C55.9786 22.62 55.6853 21.5933 55.0986 20.86C54.5119 20.1267 53.6919 19.76 52.6386 19.76C51.9453 19.76 51.3453 19.9267 50.8386 20.26C50.3453 20.58 49.9653 21.0533 49.6986 21.68C49.4319 22.2933 49.2986 23.0467 49.2986 23.94C49.2986 25.26 49.5919 26.2933 50.1786 27.04C50.7653 27.7733 51.5853 28.14 52.6386 28.14ZM63.8914 31C63.2647 31 62.7847 30.84 62.4514 30.52C62.1314 30.1867 61.9714 29.7133 61.9714 29.1V18.8C61.9714 18.1867 62.1314 17.72 62.4514 17.4C62.7847 17.0667 63.2647 16.9 63.8914 16.9H67.8114C70.2647 16.9 72.1581 17.5133 73.4914 18.74C74.8381 19.9667 75.5114 21.7 75.5114 23.94C75.5114 25.06 75.3381 26.06 74.9914 26.94C74.6447 27.8067 74.1447 28.5467 73.4914 29.16C72.8381 29.76 72.0314 30.22 71.0714 30.54C70.1247 30.8467 69.0381 31 67.8114 31H63.8914ZM65.6514 28.02H67.5714C68.2781 28.02 68.8847 27.9333 69.3914 27.76C69.9114 27.5867 70.3381 27.3333 70.6714 27C71.0181 26.6667 71.2714 26.2467 71.4314 25.74C71.6047 25.2333 71.6914 24.6333 71.6914 23.94C71.6914 22.5533 71.3514 21.5333 70.6714 20.88C69.9914 20.2133 68.9581 19.88 67.5714 19.88H65.6514V28.02ZM85.3367 31C84.7101 31 84.2301 30.84 83.8967 30.52C83.5767 30.1867 83.4167 29.7133 83.4167 29.1V18.8C83.4167 18.1867 83.5767 17.72 83.8967 17.4C84.2301 17.0667 84.7101 16.9 85.3367 16.9H92.1167C92.5967 16.9 92.9567 17.02 93.1967 17.26C93.4367 17.5 93.5567 17.8467 93.5567 18.3C93.5567 18.7667 93.4367 19.1267 93.1967 19.38C92.9567 19.62 92.5967 19.74 92.1167 19.74H86.9367V22.42H91.6767C92.1434 22.42 92.4967 22.54 92.7367 22.78C92.9901 23.02 93.1167 23.3733 93.1167 23.84C93.1167 24.3067 92.9901 24.66 92.7367 24.9C92.4967 25.14 92.1434 25.26 91.6767 25.26H86.9367V28.16H92.1167C92.5967 28.16 92.9567 28.2867 93.1967 28.54C93.4367 28.78 93.5567 29.1267 93.5567 29.58C93.5567 30.0467 93.4367 30.4 93.1967 30.64C92.9567 30.88 92.5967 31 92.1167 31H85.3367ZM96.9628 31.18C96.4961 31.18 96.1095 31.0533 95.8028 30.8C95.4961 30.5467 95.3161 30.2267 95.2628 29.84C95.2228 29.4533 95.3561 29.06 95.6628 28.66L99.9028 23.06V24.72L95.7828 19.26C95.4761 18.8467 95.3428 18.4467 95.3828 18.06C95.4361 17.6733 95.6161 17.3533 95.9228 17.1C96.2295 16.8467 96.6161 16.72 97.0828 16.72C97.4695 16.72 97.8095 16.8133 98.1028 17C98.3961 17.1867 98.6895 17.4867 98.9828 17.9L101.963 22.04H100.763L103.763 17.9C104.056 17.4733 104.349 17.1733 104.643 17C104.936 16.8133 105.276 16.72 105.663 16.72C106.143 16.72 106.536 16.8467 106.843 17.1C107.149 17.34 107.323 17.6533 107.363 18.04C107.416 18.4267 107.283 18.8333 106.963 19.26L102.823 24.72V23.06L107.063 28.66C107.383 29.06 107.516 29.4533 107.463 29.84C107.423 30.2267 107.249 30.5467 106.943 30.8C106.636 31.0533 106.243 31.18 105.763 31.18C105.389 31.18 105.056 31.0933 104.763 30.92C104.469 30.7333 104.169 30.4267 103.863 30L100.783 25.74H101.943L98.8828 30C98.5761 30.4267 98.2761 30.7333 97.9828 30.92C97.6895 31.0933 97.3495 31.18 96.9628 31.18ZM111.468 31.18C110.881 31.18 110.428 31.02 110.108 30.7C109.788 30.3667 109.628 29.9067 109.628 29.32V18.76C109.628 18.16 109.788 17.7 110.108 17.38C110.441 17.06 110.901 16.9 111.488 16.9H116.408C118.008 16.9 119.241 17.3133 120.108 18.14C120.988 18.9533 121.428 20.08 121.428 21.52C121.428 22.96 120.988 24.0933 120.108 24.92C119.241 25.7333 118.008 26.14 116.408 26.14H113.308V29.32C113.308 29.9067 113.154 30.3667 112.848 30.7C112.541 31.02 112.081 31.18 111.468 31.18ZM113.308 23.32H115.768C116.461 23.32 116.994 23.1733 117.368 22.88C117.741 22.5733 117.928 22.12 117.928 21.52C117.928 20.9067 117.741 20.4533 117.368 20.16C116.994 19.8667 116.461 19.72 115.768 19.72H113.308V23.32ZM124.983 31.18C124.397 31.18 123.943 31.02 123.623 30.7C123.303 30.3667 123.143 29.9067 123.143 29.32V18.76C123.143 18.16 123.303 17.7 123.623 17.38C123.957 17.06 124.417 16.9 125.003 16.9H129.923C131.523 16.9 132.757 17.2933 133.623 18.08C134.503 18.8533 134.943 19.9333 134.943 21.32C134.943 22.2133 134.743 22.9933 134.343 23.66C133.957 24.3133 133.39 24.82 132.643 25.18C131.91 25.5267 131.003 25.7 129.923 25.7L130.083 25.34H131.043C131.617 25.34 132.123 25.48 132.563 25.76C133.003 26.0267 133.37 26.44 133.663 27L134.663 28.8C134.877 29.1867 134.977 29.5667 134.963 29.94C134.95 30.3 134.803 30.6 134.523 30.84C134.257 31.0667 133.863 31.18 133.343 31.18C132.823 31.18 132.397 31.0733 132.063 30.86C131.743 30.6467 131.457 30.3133 131.203 29.86L129.383 26.52C129.223 26.2267 129.017 26.0267 128.763 25.92C128.523 25.8 128.243 25.74 127.923 25.74H126.823V29.32C126.823 29.9067 126.67 30.3667 126.363 30.7C126.057 31.02 125.597 31.18 124.983 31.18ZM126.823 23.14H129.263C129.97 23.14 130.51 23 130.883 22.72C131.257 22.44 131.443 22.0067 131.443 21.42C131.443 20.86 131.257 20.44 130.883 20.16C130.51 19.8667 129.97 19.72 129.263 19.72H126.823V23.14ZM139.184 31C138.558 31 138.078 30.84 137.744 30.52C137.424 30.1867 137.264 29.7133 137.264 29.1V18.8C137.264 18.1867 137.424 17.72 137.744 17.4C138.078 17.0667 138.558 16.9 139.184 16.9H145.964C146.444 16.9 146.804 17.02 147.044 17.26C147.284 17.5 147.404 17.8467 147.404 18.3C147.404 18.7667 147.284 19.1267 147.044 19.38C146.804 19.62 146.444 19.74 145.964 19.74H140.784V22.42H145.524C145.991 22.42 146.344 22.54 146.584 22.78C146.838 23.02 146.964 23.3733 146.964 23.84C146.964 24.3067 146.838 24.66 146.584 24.9C146.344 25.14 145.991 25.26 145.524 25.26H140.784V28.16H145.964C146.444 28.16 146.804 28.2867 147.044 28.54C147.284 28.78 147.404 29.1267 147.404 29.58C147.404 30.0467 147.284 30.4 147.044 30.64C146.804 30.88 146.444 31 145.964 31H139.184ZM154.594 31.22C154.061 31.22 153.501 31.18 152.914 31.1C152.341 31.0333 151.794 30.9267 151.274 30.78C150.754 30.6333 150.288 30.46 149.874 30.26C149.514 30.0867 149.261 29.86 149.114 29.58C148.968 29.2867 148.914 28.98 148.954 28.66C148.994 28.34 149.108 28.06 149.294 27.82C149.481 27.5667 149.728 27.4 150.034 27.32C150.341 27.2267 150.688 27.2667 151.074 27.44C151.581 27.68 152.154 27.8667 152.794 28C153.434 28.1333 154.034 28.2 154.594 28.2C155.474 28.2 156.088 28.0867 156.434 27.86C156.794 27.62 156.974 27.3267 156.974 26.98C156.974 26.6733 156.848 26.4267 156.594 26.24C156.354 26.0533 155.921 25.8933 155.294 25.76L152.954 25.26C151.674 24.9933 150.721 24.5267 150.094 23.86C149.468 23.1933 149.154 22.3333 149.154 21.28C149.154 20.5867 149.294 19.96 149.574 19.4C149.868 18.8267 150.274 18.34 150.794 17.94C151.328 17.54 151.954 17.2333 152.674 17.02C153.408 16.7933 154.221 16.68 155.114 16.68C155.808 16.68 156.508 16.76 157.214 16.92C157.934 17.0667 158.554 17.2933 159.074 17.6C159.381 17.76 159.601 17.98 159.734 18.26C159.868 18.54 159.921 18.8333 159.894 19.14C159.868 19.4333 159.761 19.6933 159.574 19.92C159.401 20.1467 159.161 20.3 158.854 20.38C158.561 20.4467 158.208 20.3933 157.794 20.22C157.408 20.0467 156.968 19.92 156.474 19.84C155.994 19.7467 155.528 19.7 155.074 19.7C154.581 19.7 154.161 19.76 153.814 19.88C153.468 19.9867 153.201 20.1467 153.014 20.36C152.841 20.5733 152.754 20.82 152.754 21.1C152.754 21.38 152.868 21.62 153.094 21.82C153.334 22.0067 153.768 22.1667 154.394 22.3L156.714 22.8C158.008 23.08 158.974 23.54 159.614 24.18C160.254 24.82 160.574 25.6533 160.574 26.68C160.574 27.3733 160.434 28 160.154 28.56C159.874 29.12 159.474 29.6 158.954 30C158.434 30.3867 157.808 30.6867 157.074 30.9C156.341 31.1133 155.514 31.22 154.594 31.22ZM167.622 31.22C167.088 31.22 166.528 31.18 165.942 31.1C165.368 31.0333 164.822 30.9267 164.302 30.78C163.782 30.6333 163.315 30.46 162.902 30.26C162.542 30.0867 162.288 29.86 162.142 29.58C161.995 29.2867 161.942 28.98 161.982 28.66C162.022 28.34 162.135 28.06 162.322 27.82C162.508 27.5667 162.755 27.4 163.062 27.32C163.368 27.2267 163.715 27.2667 164.102 27.44C164.608 27.68 165.182 27.8667 165.822 28C166.462 28.1333 167.062 28.2 167.622 28.2C168.502 28.2 169.115 28.0867 169.462 27.86C169.822 27.62 170.002 27.3267 170.002 26.98C170.002 26.6733 169.875 26.4267 169.622 26.24C169.382 26.0533 168.948 25.8933 168.322 25.76L165.982 25.26C164.702 24.9933 163.748 24.5267 163.122 23.86C162.495 23.1933 162.182 22.3333 162.182 21.28C162.182 20.5867 162.322 19.96 162.602 19.4C162.895 18.8267 163.302 18.34 163.822 17.94C164.355 17.54 164.982 17.2333 165.702 17.02C166.435 16.7933 167.248 16.68 168.142 16.68C168.835 16.68 169.535 16.76 170.242 16.92C170.962 17.0667 171.582 17.2933 172.102 17.6C172.408 17.76 172.628 17.98 172.762 18.26C172.895 18.54 172.948 18.8333 172.922 19.14C172.895 19.4333 172.788 19.6933 172.602 19.92C172.428 20.1467 172.188 20.3 171.882 20.38C171.588 20.4467 171.235 20.3933 170.822 20.22C170.435 20.0467 169.995 19.92 169.502 19.84C169.022 19.7467 168.555 19.7 168.102 19.7C167.608 19.7 167.188 19.76 166.842 19.88C166.495 19.9867 166.228 20.1467 166.042 20.36C165.868 20.5733 165.782 20.82 165.782 21.1C165.782 21.38 165.895 21.62 166.122 21.82C166.362 22.0067 166.795 22.1667 167.422 22.3L169.742 22.8C171.035 23.08 172.002 23.54 172.642 24.18C173.282 24.82 173.602 25.6533 173.602 26.68C173.602 27.3733 173.462 28 173.182 28.56C172.902 29.12 172.502 29.6 171.982 30C171.462 30.3867 170.835 30.6867 170.102 30.9C169.368 31.1133 168.542 31.22 167.622 31.22Z" fill="#FBDB89"/>
<path d="M18.76 30.7L18.3993 31.0463L18.4064 31.0536L18.4137 31.0607L18.76 30.7ZM18.76 17.4L19.1136 17.7536L19.1136 17.7536L18.76 17.4ZM27.94 17.26L28.2936 16.9064L28.2936 16.9064L27.94 17.26ZM27.94 19.38L28.2937 19.7337L28.303 19.7239L27.94 19.38ZM21.96 19.74V19.24H21.46V19.74H21.96ZM21.96 22.58H21.46V23.08H21.96V22.58ZM27.48 22.94L27.1263 23.2937L27.1361 23.303L27.48 22.94ZM27.48 25.04L27.136 24.6769L27.1264 24.6864L27.48 25.04ZM21.96 25.4V24.9H21.46V25.4H21.96ZM20.14 30.68C19.6461 30.68 19.3232 30.5476 19.1063 30.3393L18.4137 31.0607C18.8635 31.4924 19.4606 31.68 20.14 31.68V30.68ZM19.1207 30.3537C18.9162 30.1407 18.78 29.8077 18.78 29.28H17.78C17.78 29.979 17.9638 30.5926 18.3993 31.0463L19.1207 30.3537ZM18.78 29.28V18.8H17.78V29.28H18.78ZM18.78 18.8C18.78 18.2709 18.9167 17.9504 19.1136 17.7536L18.4064 17.0464C17.9633 17.4896 17.78 18.1024 17.78 18.8H18.78ZM19.1136 17.7536C19.3254 17.5417 19.6608 17.4 20.2 17.4V16.4C19.4859 16.4 18.8613 16.5916 18.4064 17.0464L19.1136 17.7536ZM20.2 17.4H26.86V16.4H20.2V17.4ZM26.86 17.4C27.2629 17.4 27.4733 17.5004 27.5864 17.6136L28.2936 16.9064C27.9267 16.5396 27.4171 16.4 26.86 16.4V17.4ZM27.5864 17.6136C27.7045 17.7316 27.8 17.9333 27.8 18.3H28.8C28.8 17.76 28.6555 17.2684 28.2936 16.9064L27.5864 17.6136ZM27.8 18.3C27.8 18.6829 27.7027 18.9034 27.577 19.0361L28.303 19.7239C28.6573 19.3499 28.8 18.8504 28.8 18.3H27.8ZM27.5864 19.0264C27.4733 19.1396 27.2629 19.24 26.86 19.24V20.24C27.4171 20.24 27.9267 20.1004 28.2936 19.7336L27.5864 19.0264ZM26.86 19.24H21.96V20.24H26.86V19.24ZM21.46 19.74V22.58H22.46V19.74H21.46ZM21.96 23.08H26.42V22.08H21.96V23.08ZM26.42 23.08C26.8049 23.08 27.0109 23.178 27.1264 23.2936L27.8336 22.5864C27.4691 22.222 26.9685 22.08 26.42 22.08V23.08ZM27.1361 23.303C27.2623 23.4225 27.36 23.6208 27.36 23.98H28.36C28.36 23.4325 28.2044 22.9375 27.8239 22.577L27.1361 23.303ZM27.36 23.98C27.36 24.3576 27.2595 24.5601 27.1361 24.677L27.8239 25.403C28.2072 25.0399 28.36 24.5358 28.36 23.98H27.36ZM27.1264 24.6864C27.0109 24.802 26.8049 24.9 26.42 24.9V25.9C26.9685 25.9 27.4691 25.758 27.8336 25.3936L27.1264 24.6864ZM26.42 24.9H21.96V25.9H26.42V24.9ZM21.46 25.4V29.28H22.46V25.4H21.46ZM21.46 29.28C21.46 29.8415 21.3252 30.1699 21.1439 30.3591C20.9665 30.5444 20.664 30.68 20.14 30.68V31.68C20.8293 31.68 21.4368 31.499 21.8661 31.0509C22.2915 30.6068 22.46 29.9852 22.46 29.28H21.46ZM32.7458 30.32L32.4989 30.7548L32.503 30.7571L32.7458 30.32ZM30.2258 27.76L29.7852 27.9964L29.7874 28.0005L30.2258 27.76ZM29.8458 20.96L29.3796 20.7791L29.3773 20.7852L29.8458 20.96ZM31.3058 18.66L30.9522 18.3064L30.9485 18.3102L31.3058 18.66ZM33.5858 17.2L33.7629 17.6676L33.769 17.6652L33.5858 17.2ZM40.2458 17.58L40.0006 18.0158L40.003 18.0171L40.2458 17.58ZM42.7658 20.12L42.3274 20.3606L42.3287 20.3628L42.7658 20.12ZM43.1458 26.92L42.6796 26.7391L42.6773 26.7452L43.1458 26.92ZM41.6858 29.24L41.3286 28.8901L41.3285 28.8902L41.6858 29.24ZM39.4258 30.72L39.6029 31.1876L39.609 31.1852L39.4258 30.72ZM38.3058 27.64L38.0259 27.2257L38.0259 27.2257L38.3058 27.64ZM39.4458 26.2L38.9857 26.0042L38.9857 26.0042L39.4458 26.2ZM38.9658 20.86L38.5753 21.1723L38.5753 21.1723L38.9658 20.86ZM34.7058 20.26L34.9779 20.6795L34.9806 20.6777L34.7058 20.26ZM33.5658 21.68L34.0243 21.8794L34.0259 21.8758L33.5658 21.68ZM34.0458 27.04L33.6526 27.3489L33.6553 27.3523L34.0458 27.04ZM36.5058 30.72C35.1508 30.72 33.9835 30.4357 32.9886 29.8829L32.503 30.7571C33.668 31.4043 35.0074 31.72 36.5058 31.72V30.72ZM32.9927 29.8852C31.9936 29.3178 31.2197 28.5319 30.6641 27.5195L29.7874 28.0005C30.4318 29.1748 31.3379 30.0955 32.4989 30.7548L32.9927 29.8852ZM30.6664 27.5236C30.1249 26.5145 29.8458 25.325 29.8458 23.94H28.8458C28.8458 25.4617 29.1533 26.8188 29.7852 27.9964L30.6664 27.5236ZM29.8458 23.94C29.8458 22.8977 30.0046 21.9647 30.3142 21.1348L29.3773 20.7852C29.0203 21.742 28.8458 22.7956 28.8458 23.94H29.8458ZM30.3119 21.1409C30.6358 20.3062 31.087 19.5981 31.663 19.0098L30.9485 18.3102C30.2713 19.0019 29.7491 19.8271 29.3796 20.7791L30.3119 21.1409ZM31.6593 19.0136C32.2473 18.4256 32.9464 17.9768 33.7629 17.6676L33.4087 16.7324C32.4651 17.0898 31.6443 17.6144 30.9522 18.3064L31.6593 19.0136ZM33.769 17.6652C34.5837 17.3443 35.4939 17.18 36.5058 17.18V16.18C35.3844 16.18 34.3479 16.3624 33.4025 16.7348L33.769 17.6652ZM36.5058 17.18C37.8609 17.18 39.0204 17.4644 40.0007 18.0158L40.4909 17.1442C39.3378 16.4956 38.004 16.18 36.5058 16.18V17.18ZM40.003 18.0171C40.9997 18.5708 41.7723 19.349 42.3274 20.3605L43.2041 19.8795C42.5592 18.7043 41.6518 17.7891 40.4886 17.1429L40.003 18.0171ZM42.3287 20.3628C42.8803 21.3558 43.1658 22.5424 43.1658 23.94H44.1658C44.1658 22.4043 43.8512 21.0442 43.2029 19.8772L42.3287 20.3628ZM43.1658 23.94C43.1658 24.9801 43.001 25.911 42.6796 26.7391L43.6119 27.1009C43.9839 26.1423 44.1658 25.0866 44.1658 23.94H43.1658ZM42.6773 26.7452C42.3674 27.5759 41.9176 28.2888 41.3286 28.8901L42.043 29.5899C42.734 28.8845 43.2575 28.0508 43.6142 27.0948L42.6773 26.7452ZM41.3285 28.8902C40.7538 29.4771 40.0608 29.9324 39.2425 30.2548L39.609 31.1852C40.5508 30.8142 41.3644 30.2829 42.043 29.5898L41.3285 28.8902ZM39.2487 30.2524C38.4323 30.5617 37.5199 30.72 36.5058 30.72V31.72C37.625 31.72 38.6593 31.545 39.6029 31.1876L39.2487 30.2524ZM36.5058 28.64C37.2932 28.64 37.9952 28.4533 38.5857 28.0543L38.0259 27.2257C37.6297 27.4934 37.1317 27.64 36.5058 27.64V28.64ZM38.5857 28.0543C39.1699 27.6596 39.607 27.098 39.9059 26.3958L38.9857 26.0042C38.7512 26.5553 38.4283 26.9538 38.0259 27.2257L38.5857 28.0543ZM39.9059 26.3958C40.2054 25.692 40.3458 24.8685 40.3458 23.94H39.3458C39.3458 24.7715 39.2195 25.4547 38.9857 26.0042L39.9059 26.3958ZM40.3458 23.94C40.3458 22.5517 40.0377 21.3995 39.3562 20.5477L38.5753 21.1723C39.0672 21.7872 39.3458 22.6883 39.3458 23.94H40.3458ZM39.3562 20.5477C38.6623 19.6803 37.6901 19.26 36.5058 19.26V20.26C37.4282 20.26 38.0959 20.5731 38.5753 21.1723L39.3562 20.5477ZM36.5058 19.26C35.7292 19.26 35.0305 19.4479 34.431 19.8423L34.9806 20.6777C35.3944 20.4055 35.8957 20.26 36.5058 20.26V19.26ZM34.4337 19.8405C33.8442 20.2229 33.405 20.7808 33.1057 21.4842L34.0259 21.8758C34.2599 21.3258 34.5807 20.9371 34.9779 20.6795L34.4337 19.8405ZM33.1072 21.4806C32.8057 22.1742 32.6658 22.9999 32.6658 23.94H33.6658C33.6658 23.0935 33.7925 22.4125 34.0243 21.8794L33.1072 21.4806ZM32.6658 23.94C32.6658 25.329 32.9742 26.4854 33.6526 27.3489L34.4389 26.7311C33.944 26.1012 33.6658 25.191 33.6658 23.94H32.6658ZM33.6553 27.3523C34.3493 28.2197 35.3215 28.64 36.5058 28.64V27.64C35.5834 27.64 34.9156 27.3269 34.4362 26.7277L33.6553 27.3523ZM48.8786 30.32L48.6317 30.7548L48.6358 30.7571L48.8786 30.32ZM46.3586 27.76L45.918 27.9964L45.9203 28.0005L46.3586 27.76ZM45.9786 20.96L45.5124 20.7791L45.5101 20.7852L45.9786 20.96ZM47.4386 18.66L47.085 18.3064L47.0813 18.3102L47.4386 18.66ZM49.7186 17.2L49.8957 17.6676L49.9019 17.6652L49.7186 17.2ZM56.3786 17.58L56.1335 18.0158L56.1358 18.0171L56.3786 17.58ZM58.8986 20.12L58.4603 20.3606L58.4615 20.3628L58.8986 20.12ZM59.2786 26.92L58.8124 26.7391L58.8101 26.7452L59.2786 26.92ZM57.8186 29.24L57.4614 28.8901L57.4613 28.8902L57.8186 29.24ZM55.5586 30.72L55.7357 31.1876L55.7419 31.1852L55.5586 30.72ZM54.4386 27.64L54.1587 27.2257L54.1587 27.2257L54.4386 27.64ZM55.5786 26.2L55.1185 26.0042L55.1185 26.0042L55.5786 26.2ZM55.0986 20.86L54.7082 21.1723L54.7082 21.1723L55.0986 20.86ZM50.8386 20.26L51.1107 20.6795L51.1134 20.6777L50.8386 20.26ZM49.6986 21.68L50.1571 21.8794L50.1587 21.8758L49.6986 21.68ZM50.1786 27.04L49.7854 27.3489L49.7882 27.3523L50.1786 27.04ZM52.6386 30.72C51.2836 30.72 50.1163 30.4357 49.1214 29.8829L48.6358 30.7571C49.8009 31.4043 51.1402 31.72 52.6386 31.72V30.72ZM49.1255 29.8852C48.1264 29.3178 47.3525 28.5319 46.7969 27.5195L45.9203 28.0005C46.5646 29.1748 47.4708 30.0955 48.6317 30.7548L49.1255 29.8852ZM46.7992 27.5236C46.2577 26.5145 45.9786 25.325 45.9786 23.94H44.9786C44.9786 25.4617 45.2862 26.8188 45.918 27.9964L46.7992 27.5236ZM45.9786 23.94C45.9786 22.8977 46.1374 21.9647 46.447 21.1348L45.5101 20.7852C45.1531 21.742 44.9786 22.7956 44.9786 23.94H45.9786ZM46.4447 21.1409C46.7686 20.3062 47.2198 19.5981 47.7958 19.0098L47.0813 18.3102C46.4041 19.0019 45.8819 19.8271 45.5125 20.7791L46.4447 21.1409ZM47.7921 19.0136C48.3801 18.4256 49.0792 17.9768 49.8957 17.6676L49.5415 16.7324C48.5979 17.0898 47.7771 17.6144 47.085 18.3064L47.7921 19.0136ZM49.9019 17.6652C50.7165 17.3443 51.6267 17.18 52.6386 17.18V16.18C51.5172 16.18 50.4807 16.3624 49.5353 16.7348L49.9019 17.6652ZM52.6386 17.18C53.9937 17.18 55.1532 17.4644 56.1335 18.0158L56.6237 17.1442C55.4706 16.4956 54.1368 16.18 52.6386 16.18V17.18ZM56.1358 18.0171C57.1326 18.5708 57.9052 19.349 58.4603 20.3605L59.3369 19.8795C58.692 18.7043 57.7846 17.7891 56.6214 17.1429L56.1358 18.0171ZM58.4615 20.3628C59.0132 21.3558 59.2986 22.5424 59.2986 23.94H60.2986C60.2986 22.4043 59.984 21.0442 59.3357 19.8772L58.4615 20.3628ZM59.2986 23.94C59.2986 24.9801 59.1338 25.911 58.8125 26.7391L59.7447 27.1009C60.1167 26.1423 60.2986 25.0866 60.2986 23.94H59.2986ZM58.8101 26.7452C58.5002 27.5759 58.0504 28.2888 57.4614 28.8901L58.1758 29.5899C58.8668 28.8845 59.3903 28.0508 59.747 27.0948L58.8101 26.7452ZM57.4613 28.8902C56.8866 29.4771 56.1936 29.9324 55.3753 30.2548L55.7419 31.1852C56.6836 30.8142 57.4972 30.2829 58.1758 29.5898L57.4613 28.8902ZM55.3815 30.2524C54.5651 30.5617 53.6528 30.72 52.6386 30.72V31.72C53.7578 31.72 54.7921 31.545 55.7357 31.1876L55.3815 30.2524ZM52.6386 28.64C53.426 28.64 54.1281 28.4533 54.7185 28.0543L54.1587 27.2257C53.7625 27.4934 53.2645 27.64 52.6386 27.64V28.64ZM54.7185 28.0543C55.3027 27.6596 55.7398 27.098 56.0387 26.3958L55.1185 26.0042C54.884 26.5553 54.5611 26.9538 54.1587 27.2257L54.7185 28.0543ZM56.0387 26.3958C56.3382 25.692 56.4786 24.8685 56.4786 23.94H55.4786C55.4786 24.7715 55.3524 25.4547 55.1185 26.0042L56.0387 26.3958ZM56.4786 23.94C56.4786 22.5517 56.1705 21.3995 55.489 20.5477L54.7082 21.1723C55.2 21.7872 55.4786 22.6883 55.4786 23.94H56.4786ZM55.489 20.5477C54.7951 19.6803 53.8229 19.26 52.6386 19.26V20.26C53.561 20.26 54.2287 20.5731 54.7082 21.1723L55.489 20.5477ZM52.6386 19.26C51.862 19.26 51.1633 19.4479 50.5638 19.8423L51.1134 20.6777C51.5272 20.4055 52.0285 20.26 52.6386 20.26V19.26ZM50.5665 19.8405C49.977 20.2229 49.5378 20.7808 49.2385 21.4842L50.1587 21.8758C50.3927 21.3258 50.7135 20.9371 51.1107 20.6795L50.5665 19.8405ZM49.2401 21.4806C48.9385 22.1742 48.7986 22.9999 48.7986 23.94H49.7986C49.7986 23.0935 49.9253 22.4125 50.1571 21.8794L49.2401 21.4806ZM48.7986 23.94C48.7986 25.329 49.107 26.4854 49.7854 27.3489L50.5718 26.7311C50.0769 26.1012 49.7986 25.191 49.7986 23.94H48.7986ZM49.7882 27.3523C50.4821 28.2197 51.4543 28.64 52.6386 28.64V27.64C51.7162 27.64 51.0484 27.3269 50.569 26.7277L49.7882 27.3523ZM62.4514 30.52L62.0907 30.8663L62.0978 30.8736L62.1051 30.8807L62.4514 30.52ZM62.4514 17.4L62.805 17.7536L62.805 17.7536L62.4514 17.4ZM73.4914 18.74L73.1529 19.108L73.1547 19.1096L73.4914 18.74ZM74.9914 26.94L75.4557 27.1257L75.4566 27.1233L74.9914 26.94ZM73.4914 29.16L73.8296 29.5283L73.8336 29.5245L73.4914 29.16ZM71.0714 30.54L71.2255 31.0157L71.2295 31.0143L71.0714 30.54ZM65.6514 28.02H65.1514V28.52H65.6514V28.02ZM69.3914 27.76L69.2333 27.2856L69.2296 27.2869L69.3914 27.76ZM70.6714 27L70.3248 26.6395L70.3179 26.6464L70.6714 27ZM71.4314 25.74L70.9582 25.5781L70.9546 25.5894L71.4314 25.74ZM70.6714 20.88L70.3214 21.2371L70.325 21.2406L70.6714 20.88ZM65.6514 19.88V19.38H65.1514V19.88H65.6514ZM63.8914 30.5C63.3469 30.5 63.0088 30.362 62.7977 30.1593L62.1051 30.8807C62.5607 31.318 63.1826 31.5 63.8914 31.5V30.5ZM62.8121 30.1737C62.6076 29.9607 62.4714 29.6277 62.4714 29.1H61.4714C61.4714 29.799 61.6552 30.4126 62.0907 30.8663L62.8121 30.1737ZM62.4714 29.1V18.8H61.4714V29.1H62.4714ZM62.4714 18.8C62.4714 18.2709 62.6081 17.9504 62.805 17.7536L62.0979 17.0464C61.6547 17.4896 61.4714 18.1024 61.4714 18.8H62.4714ZM62.805 17.7536C63.0168 17.5417 63.3522 17.4 63.8914 17.4V16.4C63.1773 16.4 62.5527 16.5916 62.0979 17.0464L62.805 17.7536ZM63.8914 17.4H67.8114V16.4H63.8914V17.4ZM67.8114 17.4C70.1844 17.4 71.9404 17.9924 73.1529 19.108L73.8299 18.372C72.3758 17.0342 70.3451 16.4 67.8114 16.4V17.4ZM73.1547 19.1096C74.3741 20.2204 75.0114 21.8059 75.0114 23.94H76.0114C76.0114 21.5941 75.302 19.7129 73.8281 18.3704L73.1547 19.1096ZM75.0114 23.94C75.0114 25.0086 74.8461 25.9448 74.5262 26.7567L75.4566 27.1233C75.8301 26.1752 76.0114 25.1114 76.0114 23.94H75.0114ZM74.5272 26.7543C74.2065 27.5561 73.747 28.2342 73.1492 28.7955L73.8336 29.5245C74.5424 28.8591 75.083 28.0573 75.4556 27.1257L74.5272 26.7543ZM73.1532 28.7917C72.5586 29.3378 71.8158 29.7648 70.9133 30.0657L71.2295 31.0143C72.247 30.6752 73.1176 30.1822 73.8296 29.5283L73.1532 28.7917ZM70.9173 30.0643C70.0304 30.3516 68.9974 30.5 67.8114 30.5V31.5C69.0787 31.5 70.219 31.3417 71.2255 31.0157L70.9173 30.0643ZM67.8114 30.5H63.8914V31.5H67.8114V30.5ZM65.6514 28.52H67.5714V27.52H65.6514V28.52ZM67.5714 28.52C68.3166 28.52 68.9808 28.4289 69.5533 28.2331L69.2296 27.2869C68.7886 27.4378 68.2396 27.52 67.5714 27.52V28.52ZM69.5495 28.2343C70.1312 28.0405 70.6285 27.7501 71.025 27.3536L70.3179 26.6464C70.0477 26.9166 69.6916 27.1329 69.2333 27.2857L69.5495 28.2343ZM71.018 27.3604C71.431 26.9632 71.7257 26.4684 71.9082 25.8906L70.9546 25.5894C70.8171 26.0249 70.6051 26.3701 70.3249 26.6396L71.018 27.3604ZM71.9045 25.9018C72.1 25.3303 72.1914 24.673 72.1914 23.94H71.1914C71.1914 24.5936 71.1095 25.1364 70.9583 25.5782L71.9045 25.9018ZM72.1914 23.94C72.1914 22.4814 71.8342 21.3038 71.0178 20.5194L70.325 21.2406C70.8686 21.7629 71.1914 22.6252 71.1914 23.94H72.1914ZM71.0214 20.523C70.2127 19.7301 69.0295 19.38 67.5714 19.38V20.38C68.8867 20.38 69.7701 20.6966 70.3214 21.237L71.0214 20.523ZM67.5714 19.38H65.6514V20.38H67.5714V19.38ZM65.1514 19.88V28.02H66.1514V19.88H65.1514ZM83.8967 30.52L83.536 30.8663L83.5431 30.8736L83.5505 30.8807L83.8967 30.52ZM83.8967 17.4L84.2503 17.7536L84.2503 17.7536L83.8967 17.4ZM93.1967 19.38L93.5504 19.7337L93.5597 19.7239L93.1967 19.38ZM86.9367 19.74V19.24H86.4367V19.74H86.9367ZM86.9367 22.42H86.4367V22.92H86.9367V22.42ZM92.7367 22.78L92.383 23.1337L92.3928 23.143L92.7367 22.78ZM92.7367 24.9L92.3927 24.5369L92.3832 24.5464L92.7367 24.9ZM86.9367 25.26V24.76H86.4367V25.26H86.9367ZM86.9367 28.16H86.4367V28.66H86.9367V28.16ZM93.1967 28.54L92.8336 28.884L92.8432 28.8936L93.1967 28.54ZM85.3367 30.5C84.7922 30.5 84.4541 30.362 84.243 30.1593L83.5505 30.8807C84.006 31.318 84.6279 31.5 85.3367 31.5V30.5ZM84.2574 30.1737C84.0529 29.9607 83.9167 29.6277 83.9167 29.1H82.9167C82.9167 29.799 83.1005 30.4126 83.536 30.8663L84.2574 30.1737ZM83.9167 29.1V18.8H82.9167V29.1H83.9167ZM83.9167 18.8C83.9167 18.2709 84.0535 17.9504 84.2503 17.7536L83.5432 17.0464C83.1 17.4896 82.9167 18.1024 82.9167 18.8H83.9167ZM84.2503 17.7536C84.4621 17.5417 84.7975 17.4 85.3367 17.4V16.4C84.6226 16.4 83.998 16.5916 83.5432 17.0464L84.2503 17.7536ZM85.3367 17.4H92.1167V16.4H85.3367V17.4ZM92.1167 17.4C92.5196 17.4 92.73 17.5004 92.8432 17.6136L93.5503 16.9064C93.1834 16.5396 92.6738 16.4 92.1167 16.4V17.4ZM92.8432 17.6136C92.9613 17.7316 93.0567 17.9333 93.0567 18.3H94.0567C94.0567 17.76 93.9122 17.2684 93.5503 16.9064L92.8432 17.6136ZM93.0567 18.3C93.0567 18.6829 92.9595 18.9034 92.8337 19.0361L93.5597 19.7239C93.914 19.3499 94.0567 18.8504 94.0567 18.3H93.0567ZM92.8432 19.0264C92.73 19.1396 92.5196 19.24 92.1167 19.24V20.24C92.6738 20.24 93.1834 20.1004 93.5503 19.7336L92.8432 19.0264ZM92.1167 19.24H86.9367V20.24H92.1167V19.24ZM86.4367 19.74V22.42H87.4367V19.74H86.4367ZM86.9367 22.92H91.6767V21.92H86.9367V22.92ZM91.6767 22.92C92.0616 22.92 92.2676 23.018 92.3832 23.1336L93.0903 22.4264C92.7258 22.062 92.2252 21.92 91.6767 21.92V22.92ZM92.3928 23.143C92.5162 23.2599 92.6167 23.4624 92.6167 23.84H93.6167C93.6167 23.2842 93.4639 22.7801 93.0806 22.417L92.3928 23.143ZM92.6167 23.84C92.6167 24.2176 92.5162 24.4201 92.3928 24.537L93.0806 25.263C93.4639 24.8999 93.6167 24.3958 93.6167 23.84H92.6167ZM92.3832 24.5464C92.2676 24.662 92.0616 24.76 91.6767 24.76V25.76C92.2252 25.76 92.7258 25.618 93.0903 25.2536L92.3832 24.5464ZM91.6767 24.76H86.9367V25.76H91.6767V24.76ZM86.4367 25.26V28.16H87.4367V25.26H86.4367ZM86.9367 28.66H92.1167V27.66H86.9367V28.66ZM92.1167 28.66C92.5125 28.66 92.7194 28.7631 92.8337 28.8839L93.5597 28.1961C93.1941 27.8102 92.6809 27.66 92.1167 27.66V28.66ZM92.8432 28.8936C92.9613 29.0116 93.0567 29.2133 93.0567 29.58H94.0567C94.0567 29.04 93.9122 28.5484 93.5503 28.1864L92.8432 28.8936ZM93.0567 29.58C93.0567 29.9649 92.9587 30.1709 92.8432 30.2864L93.5503 30.9936C93.9147 30.6291 94.0567 30.1285 94.0567 29.58H93.0567ZM92.8432 30.2864C92.73 30.3996 92.5196 30.5 92.1167 30.5V31.5C92.6738 31.5 93.1834 31.3604 93.5503 30.9936L92.8432 30.2864ZM92.1167 30.5H85.3367V31.5H92.1167V30.5ZM95.8028 30.8L96.1213 30.4145L96.1213 30.4145L95.8028 30.8ZM95.2628 29.84L94.7655 29.8914L94.7663 29.8999L94.7675 29.9083L95.2628 29.84ZM95.6628 28.66L96.0596 28.9642L96.0614 28.9618L95.6628 28.66ZM99.9028 23.06H100.403V21.5713L99.5042 22.7582L99.9028 23.06ZM99.9028 24.72L99.5037 25.0212L100.403 26.2127V24.72H99.9028ZM95.7828 19.26L95.3813 19.5579L95.3837 19.5612L95.7828 19.26ZM95.3828 18.06L94.8875 17.9917L94.8863 18.0001L94.8855 18.0086L95.3828 18.06ZM95.9228 17.1L96.2413 17.4855L96.2413 17.4855L95.9228 17.1ZM98.9828 17.9L98.575 18.1894L98.577 18.1921L98.9828 17.9ZM101.963 22.04V22.54H102.939L102.369 21.7479L101.963 22.04ZM100.763 22.04L100.358 21.7466L99.783 22.54H100.763V22.04ZM103.763 17.9L104.168 18.1935L104.175 18.1833L103.763 17.9ZM104.643 17L104.897 17.4305L104.904 17.4263L104.911 17.4218L104.643 17ZM106.843 17.1L106.524 17.4856L106.535 17.4938L106.843 17.1ZM107.363 18.04L106.865 18.0914L106.866 18.0999L106.868 18.1083L107.363 18.04ZM106.963 19.26L107.361 19.5621L107.363 19.56L106.963 19.26ZM102.823 24.72H102.323V26.207L103.221 25.0221L102.823 24.72ZM102.823 23.06L103.221 22.7582L102.323 21.5713V23.06H102.823ZM107.063 28.66L106.664 28.9619L106.672 28.9723L107.063 28.66ZM107.463 29.84L106.968 29.7717L106.966 29.7801L106.965 29.7886L107.463 29.84ZM106.943 30.8L106.624 30.4145L106.624 30.4145L106.943 30.8ZM104.763 30.92L104.494 31.3418L104.501 31.3463L104.508 31.3505L104.763 30.92ZM103.863 30L104.269 29.7082L104.268 29.707L103.863 30ZM100.783 25.74V25.24H99.8043L100.378 26.033L100.783 25.74ZM101.943 25.74L102.349 26.0317L102.918 25.24H101.943V25.74ZM98.8828 30L99.2888 30.2918L99.2889 30.2917L98.8828 30ZM97.9828 30.92L98.2372 31.3505L98.2443 31.3463L98.2513 31.3418L97.9828 30.92ZM96.9628 30.68C96.5913 30.68 96.3233 30.5814 96.1213 30.4145L95.4844 31.1855C95.8957 31.5253 96.401 31.68 96.9628 31.68V30.68ZM96.1213 30.4145C95.9092 30.2393 95.794 30.0316 95.7581 29.7717L94.7675 29.9083C94.8383 30.4217 95.0831 30.854 95.4844 31.1855L96.1213 30.4145ZM95.7602 29.7886C95.7368 29.5632 95.8068 29.294 96.0596 28.9642L95.266 28.3558C94.9055 28.826 94.7088 29.3435 94.7655 29.8914L95.7602 29.7886ZM96.0614 28.9618L100.301 23.3618L99.5042 22.7582L95.2642 28.3582L96.0614 28.9618ZM99.4028 23.06V24.72H100.403V23.06H99.4028ZM100.302 24.4188L96.1819 18.9588L95.3837 19.5612L99.5037 25.0212L100.302 24.4188ZM96.1844 18.9621C95.9275 18.6159 95.8567 18.338 95.8802 18.1114L94.8855 18.0086C94.8289 18.5554 95.0248 19.0774 95.3813 19.5579L96.1844 18.9621ZM95.8781 18.1283C95.914 17.8684 96.0292 17.6607 96.2413 17.4855L95.6044 16.7145C95.2031 17.046 94.9583 17.4783 94.8875 17.9917L95.8781 18.1283ZM96.2413 17.4855C96.4433 17.3186 96.7113 17.22 97.0828 17.22V16.22C96.521 16.22 96.0157 16.3747 95.6044 16.7145L96.2413 17.4855ZM97.0828 17.22C97.3854 17.22 97.6301 17.2918 97.8344 17.4218L98.3713 16.5782C97.9889 16.3348 97.5536 16.22 97.0828 16.22V17.22ZM97.8344 17.4218C98.0542 17.5617 98.3035 17.8067 98.5751 18.1894L99.3906 17.6106C99.0755 17.1666 98.7381 16.8116 98.3713 16.5782L97.8344 17.4218ZM98.577 18.1921L101.557 22.3321L102.369 21.7479L99.3886 17.6079L98.577 18.1921ZM101.963 21.54H100.763V22.54H101.963V21.54ZM101.168 22.3334L104.168 18.1934L103.358 17.6066L100.358 21.7466L101.168 22.3334ZM104.175 18.1833C104.446 17.7883 104.69 17.5526 104.897 17.4305L104.388 16.5695C104.008 16.7941 103.666 17.1584 103.351 17.6167L104.175 18.1833ZM104.911 17.4218C105.116 17.2918 105.36 17.22 105.663 17.22V16.22C105.192 16.22 104.757 16.3348 104.374 16.5782L104.911 17.4218ZM105.663 17.22C106.052 17.22 106.325 17.3207 106.524 17.4855L107.161 16.7145C106.747 16.3727 106.234 16.22 105.663 16.22V17.22ZM106.535 17.4938C106.735 17.6502 106.839 17.8401 106.865 18.0914L107.86 17.9886C107.806 17.4666 107.564 17.0298 107.151 16.7062L106.535 17.4938ZM106.868 18.1083C106.897 18.3226 106.833 18.5993 106.563 18.96L107.363 19.56C107.732 19.0674 107.935 18.5308 107.858 17.9717L106.868 18.1083ZM106.564 18.9579L102.424 24.4179L103.221 25.0221L107.361 19.5621L106.564 18.9579ZM103.323 24.72V23.06H102.323V24.72H103.323ZM102.424 23.3618L106.664 28.9618L107.461 28.3582L103.221 22.7582L102.424 23.3618ZM106.672 28.9723C106.935 29.3003 106.997 29.5598 106.968 29.7717L107.958 29.9083C108.036 29.3469 107.831 28.8197 107.453 28.3477L106.672 28.9723ZM106.965 29.7886C106.939 30.0414 106.833 30.2426 106.624 30.4145L107.261 31.1855C107.666 30.8508 107.906 30.412 107.96 29.8914L106.965 29.7886ZM106.624 30.4145C106.425 30.5793 106.152 30.68 105.763 30.68V31.68C106.334 31.68 106.847 31.5273 107.261 31.1855L106.624 30.4145ZM105.763 30.68C105.47 30.68 105.226 30.6131 105.017 30.4895L104.508 31.3505C104.886 31.5736 105.309 31.68 105.763 31.68V30.68ZM105.031 30.4982C104.812 30.3585 104.555 30.107 104.269 29.7082L103.457 30.2918C103.784 30.7464 104.127 31.1081 104.494 31.3418L105.031 30.4982ZM104.268 29.707L101.188 25.447L100.378 26.033L103.458 30.293L104.268 29.707ZM100.783 26.24H101.943V25.24H100.783V26.24ZM101.537 25.4483L98.4767 29.7083L99.2889 30.2917L102.349 26.0317L101.537 25.4483ZM98.4768 29.7082C98.1902 30.107 97.9338 30.3585 97.7144 30.4982L98.2513 31.3418C98.6185 31.1081 98.9621 30.7464 99.2888 30.2918L98.4768 29.7082ZM97.7284 30.4895C97.5221 30.6115 97.2723 30.68 96.9628 30.68V31.68C97.4267 31.68 97.8569 31.5752 98.2372 31.3505L97.7284 30.4895ZM110.108 30.7L109.747 31.0463L109.754 31.0536L110.108 30.7ZM110.108 17.38L109.761 17.0192L109.754 17.0264L110.108 17.38ZM120.108 18.14L119.763 18.5018L119.768 18.5072L120.108 18.14ZM120.108 24.92L120.45 25.2846L120.45 25.2844L120.108 24.92ZM113.308 26.14V25.64H112.808V26.14H113.308ZM112.848 30.7L113.209 31.046L113.216 31.0385L112.848 30.7ZM113.308 23.32H112.808V23.82H113.308V23.32ZM117.368 22.88L117.677 23.2733L117.685 23.2664L117.368 22.88ZM117.368 20.16L117.677 19.7668L117.677 19.7668L117.368 20.16ZM113.308 19.72V19.22H112.808V19.72H113.308ZM111.468 30.68C110.973 30.68 110.662 30.5472 110.461 30.3464L109.754 31.0536C110.193 31.4928 110.789 31.68 111.468 31.68V30.68ZM110.468 30.3537C110.26 30.1368 110.128 29.8139 110.128 29.32H109.128C109.128 29.9994 109.315 30.5965 109.747 31.0463L110.468 30.3537ZM110.128 29.32V18.76H109.128V29.32H110.128ZM110.128 18.76C110.128 18.2479 110.262 17.9323 110.461 17.7336L109.754 17.0264C109.313 17.4677 109.128 18.0721 109.128 18.76H110.128ZM110.454 17.7407C110.671 17.5324 110.994 17.4 111.488 17.4V16.4C110.808 16.4 110.211 16.5876 109.761 17.0193L110.454 17.7407ZM111.488 17.4H116.408V16.4H111.488V17.4ZM116.408 17.4C117.923 17.4 119.017 17.7903 119.763 18.5018L120.453 17.7782C119.465 16.8364 118.092 16.4 116.408 16.4V17.4ZM119.768 18.5072C120.525 19.207 120.928 20.189 120.928 21.52H121.928C121.928 19.971 121.45 18.6997 120.447 17.7728L119.768 18.5072ZM120.928 21.52C120.928 22.8508 120.525 23.8415 119.765 24.5556L120.45 25.2844C121.45 24.3452 121.928 23.0692 121.928 21.52H120.928ZM119.765 24.5554C119.02 25.2553 117.925 25.64 116.408 25.64V26.64C118.09 26.64 119.462 26.2114 120.45 25.2846L119.765 24.5554ZM116.408 25.64H113.308V26.64H116.408V25.64ZM112.808 26.14V29.32H113.808V26.14H112.808ZM112.808 29.32C112.808 29.8194 112.679 30.1451 112.48 30.3615L113.216 31.0385C113.63 30.5882 113.808 29.9939 113.808 29.32H112.808ZM112.487 30.354C112.306 30.5427 111.998 30.68 111.468 30.68V31.68C112.164 31.68 112.776 31.4973 113.209 31.046L112.487 30.354ZM113.308 23.82H115.768V22.82H113.308V23.82ZM115.768 23.82C116.523 23.82 117.183 23.6612 117.677 23.2732L117.059 22.4868C116.806 22.6854 116.399 22.82 115.768 22.82V23.82ZM117.685 23.2664C118.201 22.8422 118.428 22.23 118.428 21.52H117.428C117.428 22.01 117.281 22.3045 117.05 22.4936L117.685 23.2664ZM118.428 21.52C118.428 20.8019 118.204 20.1815 117.677 19.7668L117.059 20.5532C117.278 20.7252 117.428 21.0114 117.428 21.52H118.428ZM117.677 19.7668C117.183 19.3788 116.523 19.22 115.768 19.22V20.22C116.399 20.22 116.806 20.3546 117.059 20.5532L117.677 19.7668ZM115.768 19.22H113.308V20.22H115.768V19.22ZM112.808 19.72V23.32H113.808V19.72H112.808ZM123.623 30.7L123.263 31.0463L123.27 31.0536L123.623 30.7ZM123.623 17.38L123.277 17.0192L123.27 17.0264L123.623 17.38ZM133.623 18.08L133.287 18.4503L133.293 18.4556L133.623 18.08ZM134.343 23.66L133.915 23.4027L133.913 23.4053L134.343 23.66ZM132.643 25.18L132.857 25.632L132.86 25.6304L132.643 25.18ZM129.923 25.7L129.466 25.4969L129.154 26.2H129.923V25.7ZM130.083 25.34V24.84H129.758L129.626 25.1369L130.083 25.34ZM132.563 25.76L132.295 26.1819L132.304 26.1876L132.563 25.76ZM133.663 27L133.22 27.2321L133.226 27.2428L133.663 27ZM134.663 28.8L135.101 28.5585L135.1 28.5572L134.663 28.8ZM134.963 29.94L135.463 29.9585L135.463 29.9578L134.963 29.94ZM134.523 30.84L134.847 31.221L134.849 31.2196L134.523 30.84ZM132.063 30.86L131.786 31.2761L131.794 31.2811L132.063 30.86ZM131.203 29.86L130.764 30.0993L130.767 30.1039L131.203 29.86ZM129.383 26.52L129.822 26.2808L129.822 26.2806L129.383 26.52ZM128.763 25.92L128.54 26.3672L128.554 26.3745L128.569 26.3808L128.763 25.92ZM126.823 25.74V25.24H126.323V25.74H126.823ZM126.363 30.7L126.724 31.046L126.731 31.0385L126.363 30.7ZM126.823 23.14H126.323V23.64H126.823V23.14ZM130.883 22.72L130.583 22.32L130.583 22.32L130.883 22.72ZM130.883 20.16L130.574 20.5533L130.583 20.56L130.883 20.16ZM126.823 19.72V19.22H126.323V19.72H126.823ZM124.983 30.68C124.488 30.68 124.178 30.5472 123.977 30.3464L123.27 31.0536C123.709 31.4928 124.305 31.68 124.983 31.68V30.68ZM123.984 30.3537C123.776 30.1368 123.643 29.8139 123.643 29.32H122.643C122.643 29.9994 122.831 30.5965 123.263 31.0463L123.984 30.3537ZM123.643 29.32V18.76H122.643V29.32H123.643ZM123.643 18.76C123.643 18.2479 123.778 17.9323 123.977 17.7336L123.27 17.0264C122.828 17.4677 122.643 18.0721 122.643 18.76H123.643ZM123.97 17.7407C124.186 17.5324 124.509 17.4 125.003 17.4V16.4C124.324 16.4 123.727 16.5876 123.277 17.0193L123.97 17.7407ZM125.003 17.4H129.923V16.4H125.003V17.4ZM129.923 17.4C131.445 17.4 132.542 17.7736 133.287 18.4502L133.959 17.7098C132.971 16.8131 131.602 16.4 129.923 16.4V17.4ZM133.293 18.4556C134.045 19.1164 134.443 20.0481 134.443 21.32H135.443C135.443 19.8185 134.961 18.5903 133.953 17.7044L133.293 18.4556ZM134.443 21.32C134.443 22.1365 134.261 22.8248 133.915 23.4028L134.772 23.9172C135.225 23.1619 135.443 22.2902 135.443 21.32H134.443ZM133.913 23.4053C133.581 23.9661 133.093 24.4083 132.426 24.7296L132.86 25.6304C133.687 25.2317 134.332 24.6606 134.774 23.9147L133.913 23.4053ZM132.43 24.728C131.781 25.0344 130.953 25.2 129.923 25.2V26.2C131.054 26.2 132.039 26.0189 132.857 25.632L132.43 24.728ZM130.38 25.9031L130.54 25.5431L129.626 25.1369L129.466 25.4969L130.38 25.9031ZM130.083 25.84H131.043V24.84H130.083V25.84ZM131.043 25.84C131.531 25.84 131.943 25.9579 132.295 26.1818L132.832 25.3382C132.304 25.0021 131.702 24.84 131.043 24.84V25.84ZM132.304 26.1876C132.65 26.3973 132.96 26.7343 133.22 27.232L134.106 26.768C133.78 26.1457 133.356 25.656 132.822 25.3324L132.304 26.1876ZM133.226 27.2428L134.226 29.0428L135.1 28.5572L134.1 26.7572L133.226 27.2428ZM134.225 29.0415C134.403 29.3635 134.473 29.6546 134.464 29.9222L135.463 29.9578C135.48 29.4787 135.35 29.0098 135.101 28.5585L134.225 29.0415ZM134.464 29.9215C134.456 30.1384 134.375 30.3087 134.198 30.4604L134.849 31.2196C135.232 30.8913 135.444 30.4616 135.463 29.9585L134.464 29.9215ZM134.199 30.459C134.058 30.5791 133.8 30.68 133.343 30.68V31.68C133.926 31.68 134.455 31.5542 134.847 31.221L134.199 30.459ZM133.343 30.68C132.889 30.68 132.564 30.5869 132.333 30.4389L131.794 31.2811C132.229 31.5598 132.757 31.68 133.343 31.68V30.68ZM132.341 30.444C132.106 30.2872 131.867 30.0234 131.64 29.6161L130.767 30.1039C131.046 30.6033 131.381 31.0061 131.786 31.276L132.341 30.444ZM131.642 29.6208L129.822 26.2808L128.944 26.7592L130.764 30.0992L131.642 29.6208ZM129.822 26.2806C129.62 25.91 129.336 25.6187 128.957 25.4592L128.569 26.3808C128.697 26.4347 128.826 26.5434 128.944 26.7594L129.822 26.2806ZM128.987 25.4728C128.665 25.312 128.306 25.24 127.923 25.24V26.24C128.18 26.24 128.381 26.288 128.54 26.3672L128.987 25.4728ZM127.923 25.24H126.823V26.24H127.923V25.24ZM126.323 25.74V29.32H127.323V25.74H126.323ZM126.323 29.32C126.323 29.8194 126.194 30.1451 125.995 30.3615L126.731 31.0385C127.146 30.5882 127.323 29.9939 127.323 29.32H126.323ZM126.002 30.354C125.822 30.5427 125.514 30.68 124.983 30.68V31.68C125.679 31.68 126.292 31.4973 126.724 31.046L126.002 30.354ZM126.823 23.64H129.263V22.64H126.823V23.64ZM129.263 23.64C130.025 23.64 130.689 23.4907 131.183 23.12L130.583 22.32C130.331 22.5093 129.914 22.64 129.263 22.64V23.64ZM131.183 23.12C131.714 22.7216 131.943 22.1192 131.943 21.42H130.943C130.943 21.8941 130.799 22.1584 130.583 22.32L131.183 23.12ZM131.943 21.42C131.943 20.738 131.708 20.1538 131.183 19.76L130.583 20.56C130.805 20.7262 130.943 20.982 130.943 21.42H131.943ZM131.192 19.7668C130.697 19.3777 130.03 19.22 129.263 19.22V20.22C129.91 20.22 130.323 20.3557 130.574 20.5532L131.192 19.7668ZM129.263 19.22H126.823V20.22H129.263V19.22ZM126.323 19.72V23.14H127.323V19.72H126.323ZM137.744 30.52L137.384 30.8663L137.391 30.8736L137.398 30.8807L137.744 30.52ZM137.744 17.4L138.098 17.7536L138.098 17.7536L137.744 17.4ZM147.044 19.38L147.398 19.7337L147.407 19.7239L147.044 19.38ZM140.784 19.74V19.24H140.284V19.74H140.784ZM140.784 22.42H140.284V22.92H140.784V22.42ZM146.584 22.78L146.231 23.1337L146.241 23.143L146.584 22.78ZM146.584 24.9L146.24 24.5369L146.231 24.5464L146.584 24.9ZM140.784 25.26V24.76H140.284V25.26H140.784ZM140.784 28.16H140.284V28.66H140.784V28.16ZM147.044 28.54L146.681 28.884L146.691 28.8936L147.044 28.54ZM139.184 30.5C138.64 30.5 138.302 30.362 138.091 30.1593L137.398 30.8807C137.854 31.318 138.476 31.5 139.184 31.5V30.5ZM138.105 30.1737C137.901 29.9607 137.764 29.6277 137.764 29.1H136.764C136.764 29.799 136.948 30.4126 137.384 30.8663L138.105 30.1737ZM137.764 29.1V18.8H136.764V29.1H137.764ZM137.764 18.8C137.764 18.2709 137.901 17.9504 138.098 17.7536L137.391 17.0464C136.948 17.4896 136.764 18.1024 136.764 18.8H137.764ZM138.098 17.7536C138.31 17.5417 138.645 17.4 139.184 17.4V16.4C138.47 16.4 137.846 16.5916 137.391 17.0464L138.098 17.7536ZM139.184 17.4H145.964V16.4H139.184V17.4ZM145.964 17.4C146.367 17.4 146.578 17.5004 146.691 17.6136L147.398 16.9064C147.031 16.5396 146.521 16.4 145.964 16.4V17.4ZM146.691 17.6136C146.809 17.7316 146.904 17.9333 146.904 18.3H147.904C147.904 17.76 147.76 17.2684 147.398 16.9064L146.691 17.6136ZM146.904 18.3C146.904 18.6829 146.807 18.9034 146.681 19.0361L147.407 19.7239C147.762 19.3499 147.904 18.8504 147.904 18.3H146.904ZM146.691 19.0264C146.578 19.1396 146.367 19.24 145.964 19.24V20.24C146.521 20.24 147.031 20.1004 147.398 19.7336L146.691 19.0264ZM145.964 19.24H140.784V20.24H145.964V19.24ZM140.284 19.74V22.42H141.284V19.74H140.284ZM140.784 22.92H145.524V21.92H140.784V22.92ZM145.524 22.92C145.909 22.92 146.115 23.018 146.231 23.1336L146.938 22.4264C146.573 22.062 146.073 21.92 145.524 21.92V22.92ZM146.241 23.143C146.364 23.2599 146.464 23.4624 146.464 23.84H147.464C147.464 23.2842 147.312 22.7801 146.928 22.417L146.241 23.143ZM146.464 23.84C146.464 24.2176 146.364 24.4201 146.241 24.537L146.928 25.263C147.312 24.8999 147.464 24.3958 147.464 23.84H146.464ZM146.231 24.5464C146.115 24.662 145.909 24.76 145.524 24.76V25.76C146.073 25.76 146.573 25.618 146.938 25.2536L146.231 24.5464ZM145.524 24.76H140.784V25.76H145.524V24.76ZM140.284 25.26V28.16H141.284V25.26H140.284ZM140.784 28.66H145.964V27.66H140.784V28.66ZM145.964 28.66C146.36 28.66 146.567 28.7631 146.681 28.8839L147.407 28.1961C147.042 27.8102 146.529 27.66 145.964 27.66V28.66ZM146.691 28.8936C146.809 29.0116 146.904 29.2133 146.904 29.58H147.904C147.904 29.04 147.76 28.5484 147.398 28.1864L146.691 28.8936ZM146.904 29.58C146.904 29.9649 146.806 30.1709 146.691 30.2864L147.398 30.9936C147.762 30.6291 147.904 30.1285 147.904 29.58H146.904ZM146.691 30.2864C146.578 30.3996 146.367 30.5 145.964 30.5V31.5C146.521 31.5 147.031 31.3604 147.398 30.9936L146.691 30.2864ZM145.964 30.5H139.184V31.5H145.964V30.5ZM152.914 31.1L152.982 30.6045L152.972 30.6033L152.914 31.1ZM149.874 30.26L150.092 29.8099L150.091 29.8095L149.874 30.26ZM149.114 29.58L148.667 29.8036L148.671 29.812L149.114 29.58ZM148.954 28.66L149.45 28.722L149.45 28.722L148.954 28.66ZM149.294 27.82L149.689 28.1271L149.697 28.1166L149.294 27.82ZM150.034 27.32L150.16 27.8038L150.17 27.8013L150.18 27.7983L150.034 27.32ZM151.074 27.44L151.288 26.988L151.279 26.9837L151.074 27.44ZM152.794 28L152.896 27.5105L152.896 27.5105L152.794 28ZM156.434 27.86L156.708 28.2785L156.712 28.276L156.434 27.86ZM156.594 26.24L156.287 26.6348L156.298 26.6425L156.594 26.24ZM155.294 25.76L155.19 26.249L155.19 26.2491L155.294 25.76ZM152.954 25.26L153.059 24.771L153.056 24.7705L152.954 25.26ZM150.094 23.86L150.459 23.5175L150.459 23.5175L150.094 23.86ZM149.574 19.4L149.129 19.1723L149.127 19.1764L149.574 19.4ZM150.794 17.94L150.494 17.54L150.489 17.5437L150.794 17.94ZM152.674 17.02L152.816 17.4994L152.822 17.4977L152.674 17.02ZM157.214 16.92L157.104 17.4078L157.114 17.4099L157.214 16.92ZM159.074 17.6L158.82 18.0307L158.831 18.0373L158.843 18.0433L159.074 17.6ZM159.734 18.26L159.283 18.475L159.283 18.475L159.734 18.26ZM159.894 19.14L160.392 19.1853L160.392 19.1833L159.894 19.14ZM159.574 19.92L159.188 19.6021L159.183 19.6091L159.177 19.6163L159.574 19.92ZM158.854 20.38L158.965 20.8676L158.973 20.8658L158.98 20.8638L158.854 20.38ZM157.794 20.22L157.59 20.6764L157.601 20.6811L157.794 20.22ZM156.474 19.84L156.379 20.3308L156.386 20.3323L156.394 20.3336L156.474 19.84ZM153.814 19.88L153.961 20.3579L153.97 20.3553L153.978 20.3525L153.814 19.88ZM153.014 20.36L152.638 20.0307L152.632 20.0376L152.626 20.0447L153.014 20.36ZM153.094 21.82L152.763 22.1949L152.775 22.2052L152.787 22.2147L153.094 21.82ZM154.394 22.3L154.5 21.8112L154.498 21.8109L154.394 22.3ZM156.714 22.8L156.82 22.3113L156.82 22.3112L156.714 22.8ZM160.154 28.56L160.601 28.7836L160.601 28.7836L160.154 28.56ZM158.954 30L159.253 30.4013L159.259 30.3963L158.954 30ZM157.074 30.9L157.214 31.3801L157.214 31.3801L157.074 30.9ZM154.594 30.72C154.086 30.72 153.548 30.6819 152.982 30.6046L152.847 31.5954C153.453 31.6781 154.036 31.72 154.594 31.72V30.72ZM152.972 30.6033C152.423 30.5395 151.903 30.4378 151.41 30.2988L151.138 31.2612C151.686 31.4156 152.259 31.5271 152.856 31.5967L152.972 30.6033ZM151.41 30.2988C150.913 30.1587 150.475 29.9952 150.092 29.8099L149.656 30.7101C150.1 30.9248 150.595 31.108 151.138 31.2612L151.41 30.2988ZM150.091 29.8095C149.802 29.6704 149.642 29.5102 149.557 29.348L148.671 29.812C148.88 30.2098 149.226 30.503 149.657 30.7105L150.091 29.8095ZM149.561 29.3564C149.458 29.1498 149.423 28.9423 149.45 28.722L148.458 28.598C148.406 29.0177 148.477 29.4236 148.667 29.8036L149.561 29.3564ZM149.45 28.722C149.48 28.4857 149.561 28.2916 149.689 28.127L148.9 27.513C148.654 27.8284 148.509 28.1943 148.458 28.598L149.45 28.722ZM149.697 28.1166C149.815 27.9562 149.964 27.8551 150.16 27.8038L149.908 26.8362C149.491 26.9449 149.147 27.1771 148.892 27.5234L149.697 28.1166ZM150.18 27.7983C150.338 27.7502 150.557 27.7562 150.87 27.8963L151.279 26.9837C150.818 26.7772 150.344 26.7032 149.889 26.8417L150.18 27.7983ZM150.86 27.8919C151.408 28.1513 152.02 28.3494 152.692 28.4895L152.896 27.5105C152.289 27.3839 151.754 27.2087 151.288 26.9881L150.86 27.8919ZM152.692 28.4895C153.36 28.6287 153.995 28.7 154.594 28.7V27.7C154.074 27.7 153.508 27.638 152.896 27.5105L152.692 28.4895ZM154.594 28.7C155.484 28.7 156.229 28.5916 156.708 28.2785L156.161 27.4415C155.946 27.5817 155.464 27.7 154.594 27.7V28.7ZM156.712 28.276C157.172 27.9694 157.474 27.536 157.474 26.98H156.474C156.474 27.1174 156.417 27.2706 156.157 27.444L156.712 28.276ZM157.474 26.98C157.474 26.5096 157.268 26.1155 156.891 25.8375L156.298 26.6425C156.427 26.7379 156.474 26.837 156.474 26.98H157.474ZM156.901 25.8453C156.565 25.5841 156.035 25.4063 155.398 25.2709L155.19 26.2491C155.807 26.3803 156.143 26.5225 156.287 26.6347L156.901 25.8453ZM155.399 25.271L153.059 24.771L152.85 25.749L155.19 26.249L155.399 25.271ZM153.056 24.7705C151.835 24.5161 150.991 24.0836 150.459 23.5175L149.73 24.2025C150.451 24.9697 151.513 25.4705 152.852 25.7495L153.056 24.7705ZM150.459 23.5175C149.932 22.9576 149.654 22.2267 149.654 21.28H148.654C148.654 22.4399 149.003 23.429 149.73 24.2025L150.459 23.5175ZM149.654 21.28C149.654 20.6558 149.78 20.107 150.021 19.6236L149.127 19.1764C148.809 19.813 148.654 20.5175 148.654 21.28H149.654ZM150.019 19.6277C150.278 19.1215 150.637 18.6921 151.099 18.3363L150.489 17.5437C149.912 17.9879 149.457 18.5318 149.129 19.1723L150.019 19.6277ZM151.094 18.34C151.574 17.9798 152.146 17.698 152.816 17.4994L152.532 16.5406C151.762 16.7687 151.081 17.1002 150.494 17.54L151.094 18.34ZM152.822 17.4977C153.5 17.288 154.263 17.18 155.114 17.18V16.18C154.179 16.18 153.315 16.2987 152.527 16.5423L152.822 17.4977ZM155.114 17.18C155.769 17.18 156.432 17.2555 157.104 17.4077L157.325 16.4323C156.583 16.2645 155.846 16.18 155.114 16.18V17.18ZM157.114 17.4099C157.791 17.5479 158.357 17.7575 158.82 18.0307L159.328 17.1693C158.751 16.8291 158.077 16.5855 157.314 16.4301L157.114 17.4099ZM158.843 18.0433C159.065 18.1592 159.201 18.3042 159.283 18.475L160.186 18.045C160 17.6558 159.697 17.3608 159.306 17.1567L158.843 18.0433ZM159.283 18.475C159.378 18.6752 159.415 18.8794 159.396 19.0967L160.392 19.1833C160.427 18.7872 160.357 18.4048 160.186 18.045L159.283 18.475ZM159.396 19.0947C159.379 19.2883 159.311 19.4533 159.188 19.6021L159.96 20.2379C160.211 19.9334 160.356 19.5783 160.392 19.1853L159.396 19.0947ZM159.177 19.6163C159.079 19.7445 158.939 19.841 158.728 19.8962L158.98 20.8638C159.382 20.759 159.723 20.5488 159.971 20.2237L159.177 19.6163ZM158.743 19.8924C158.591 19.9272 158.349 19.9106 157.988 19.7589L157.601 20.6811C158.066 20.876 158.531 20.9661 158.965 20.8676L158.743 19.8924ZM157.999 19.7637C157.566 19.5698 157.083 19.4322 156.554 19.3464L156.394 20.3336C156.852 20.4078 157.249 20.5236 157.59 20.6763L157.999 19.7637ZM156.57 19.3492C156.061 19.2502 155.562 19.2 155.074 19.2V20.2C155.493 20.2 155.928 20.2431 156.379 20.3308L156.57 19.3492ZM155.074 19.2C154.543 19.2 154.065 19.2642 153.651 19.4075L153.978 20.3525C154.257 20.2558 154.619 20.2 155.074 20.2V19.2ZM153.667 19.4021C153.256 19.5286 152.901 19.7305 152.638 20.0307L153.391 20.6893C153.501 20.5628 153.679 20.4448 153.961 20.3579L153.667 19.4021ZM152.626 20.0447C152.379 20.349 152.254 20.7075 152.254 21.1H153.254C153.254 20.9325 153.303 20.7977 153.402 20.6753L152.626 20.0447ZM152.254 21.1C152.254 21.5358 152.439 21.9085 152.763 22.1949L153.425 21.4451C153.296 21.3315 153.254 21.2242 153.254 21.1H152.254ZM152.787 22.2147C153.123 22.4759 153.654 22.6537 154.29 22.7891L154.498 21.8109C153.881 21.6797 153.545 21.5374 153.401 21.4253L152.787 22.2147ZM154.289 22.7888L156.609 23.2888L156.82 22.3112L154.5 21.8112L154.289 22.7888ZM156.608 23.2887C157.849 23.5572 158.713 23.986 159.261 24.5336L159.968 23.8264C159.235 23.094 158.166 22.6028 156.82 22.3113L156.608 23.2887ZM159.261 24.5336C159.794 25.0669 160.074 25.7665 160.074 26.68H161.074C161.074 25.5401 160.714 24.5731 159.968 23.8264L159.261 24.5336ZM160.074 26.68C160.074 27.3042 159.949 27.853 159.707 28.3364L160.601 28.7836C160.92 28.147 161.074 27.4425 161.074 26.68H160.074ZM159.707 28.3364C159.462 28.8256 159.112 29.2475 158.649 29.6037L159.259 30.3963C159.836 29.9525 160.286 29.4144 160.601 28.7836L159.707 28.3364ZM158.656 29.5988C158.191 29.9442 157.621 30.2203 156.935 30.4199L157.214 31.3801C157.994 31.153 158.677 30.8291 159.253 30.4012L158.656 29.5988ZM156.935 30.4199C156.255 30.6177 155.476 30.72 154.594 30.72V31.72C155.552 31.72 156.427 31.609 157.214 31.3801L156.935 30.4199ZM165.942 31.1L166.009 30.6045L165.999 30.6033L165.942 31.1ZM162.902 30.26L163.119 29.8099L163.118 29.8095L162.902 30.26ZM162.142 29.58L161.694 29.8036L161.699 29.812L162.142 29.58ZM161.982 28.66L162.478 28.722L162.478 28.722L161.982 28.66ZM162.322 27.82L162.716 28.1271L162.724 28.1166L162.322 27.82ZM163.062 27.32L163.188 27.8038L163.198 27.8013L163.207 27.7983L163.062 27.32ZM164.102 27.44L164.316 26.988L164.306 26.9837L164.102 27.44ZM165.822 28L165.924 27.5105L165.924 27.5105L165.822 28ZM169.462 27.86L169.735 28.2785L169.739 28.276L169.462 27.86ZM169.622 26.24L169.314 26.6348L169.325 26.6425L169.622 26.24ZM168.322 25.76L168.217 26.249L168.218 26.2491L168.322 25.76ZM165.982 25.26L166.086 24.771L166.084 24.7705L165.982 25.26ZM163.122 23.86L163.486 23.5175L163.486 23.5175L163.122 23.86ZM162.602 19.4L162.156 19.1723L162.154 19.1764L162.602 19.4ZM163.822 17.94L163.522 17.54L163.517 17.5437L163.822 17.94ZM165.702 17.02L165.844 17.4994L165.849 17.4977L165.702 17.02ZM170.242 16.92L170.131 17.4078L170.142 17.4099L170.242 16.92ZM172.102 17.6L171.848 18.0307L171.859 18.0373L171.87 18.0433L172.102 17.6ZM172.762 18.26L172.31 18.475L172.31 18.475L172.762 18.26ZM172.922 19.14L173.42 19.1853L173.42 19.1833L172.922 19.14ZM172.602 19.92L172.216 19.6021L172.21 19.6091L172.204 19.6163L172.602 19.92ZM171.882 20.38L171.992 20.8676L172 20.8658L172.008 20.8638L171.882 20.38ZM170.822 20.22L170.617 20.6764L170.628 20.6811L170.822 20.22ZM169.502 19.84L169.406 20.3308L169.414 20.3323L169.422 20.3336L169.502 19.84ZM166.842 19.88L166.989 20.3579L166.997 20.3553L167.005 20.3525L166.842 19.88ZM166.042 20.36L165.665 20.0307L165.659 20.0376L165.654 20.0447L166.042 20.36ZM166.122 21.82L165.791 22.1949L165.802 22.2052L165.815 22.2147L166.122 21.82ZM167.422 22.3L167.527 21.8112L167.526 21.8109L167.422 22.3ZM169.742 22.8L169.847 22.3113L169.847 22.3112L169.742 22.8ZM173.182 28.56L173.629 28.7836L173.629 28.7836L173.182 28.56ZM171.982 30L172.28 30.4013L172.286 30.3963L171.982 30ZM170.102 30.9L170.241 31.3801L170.241 31.3801L170.102 30.9ZM167.622 30.72C167.113 30.72 166.576 30.6819 166.009 30.6046L165.874 31.5954C166.481 31.6781 167.063 31.72 167.622 31.72V30.72ZM165.999 30.6033C165.451 30.5395 164.93 30.4378 164.437 30.2988L164.166 31.2612C164.713 31.4156 165.286 31.5271 165.884 31.5967L165.999 30.6033ZM164.437 30.2988C163.941 30.1587 163.502 29.9952 163.119 29.8099L162.684 30.7101C163.128 30.9248 163.622 31.108 164.166 31.2612L164.437 30.2988ZM163.118 29.8095C162.829 29.6704 162.669 29.5102 162.584 29.348L161.699 29.812C161.907 30.2098 162.254 30.503 162.685 30.7105L163.118 29.8095ZM162.589 29.3564C162.485 29.1498 162.45 28.9423 162.478 28.722L161.485 28.598C161.433 29.0177 161.504 29.4236 161.694 29.8036L162.589 29.3564ZM162.478 28.722C162.507 28.4857 162.588 28.2916 162.716 28.127L161.927 27.513C161.682 27.8284 161.536 28.1943 161.485 28.598L162.478 28.722ZM162.724 28.1166C162.842 27.9562 162.991 27.8551 163.188 27.8038L162.935 26.8362C162.519 26.9449 162.174 27.1771 161.919 27.5234L162.724 28.1166ZM163.207 27.7983C163.365 27.7502 163.585 27.7562 163.897 27.8963L164.306 26.9837C163.845 26.7772 163.371 26.7032 162.916 26.8417L163.207 27.7983ZM163.888 27.8919C164.435 28.1513 165.047 28.3494 165.72 28.4895L165.924 27.5105C165.316 27.3839 164.781 27.2087 164.316 26.9881L163.888 27.8919ZM165.72 28.4895C166.388 28.6287 167.022 28.7 167.622 28.7V27.7C167.101 27.7 166.535 27.638 165.924 27.5105L165.72 28.4895ZM167.622 28.7C168.511 28.7 169.256 28.5916 169.735 28.2785L169.188 27.4415C168.974 27.5817 168.492 27.7 167.622 27.7V28.7ZM169.739 28.276C170.199 27.9694 170.502 27.536 170.502 26.98H169.502C169.502 27.1174 169.444 27.2706 169.184 27.444L169.739 28.276ZM170.502 26.98C170.502 26.5096 170.295 26.1155 169.918 25.8375L169.325 26.6425C169.454 26.7379 169.502 26.837 169.502 26.98H170.502ZM169.929 25.8453C169.593 25.5841 169.062 25.4063 168.426 25.2709L168.218 26.2491C168.835 26.3803 169.17 26.5225 169.315 26.6347L169.929 25.8453ZM168.426 25.271L166.086 24.771L165.877 25.749L168.217 26.249L168.426 25.271ZM166.084 24.7705C164.863 24.5161 164.018 24.0836 163.486 23.5175L162.757 24.2025C163.478 24.9697 164.541 25.4705 165.88 25.7495L166.084 24.7705ZM163.486 23.5175C162.96 22.9576 162.682 22.2267 162.682 21.28H161.682C161.682 22.4399 162.03 23.429 162.757 24.2025L163.486 23.5175ZM162.682 21.28C162.682 20.6558 162.807 20.107 163.049 19.6236L162.154 19.1764C161.836 19.813 161.682 20.5175 161.682 21.28H162.682ZM163.047 19.6277C163.306 19.1215 163.664 18.6921 164.126 18.3363L163.517 17.5437C162.939 17.9879 162.484 18.5318 162.156 19.1723L163.047 19.6277ZM164.122 18.34C164.602 17.9798 165.173 17.698 165.844 17.4994L165.56 16.5406C164.79 16.7687 164.108 17.1002 163.522 17.54L164.122 18.34ZM165.849 17.4977C166.528 17.288 167.29 17.18 168.142 17.18V16.18C167.206 16.18 166.342 16.2987 165.554 16.5423L165.849 17.4977ZM168.142 17.18C168.796 17.18 169.459 17.2555 170.131 17.4077L170.352 16.4323C169.611 16.2645 168.874 16.18 168.142 16.18V17.18ZM170.142 17.4099C170.819 17.5479 171.384 17.7575 171.848 18.0307L172.356 17.1693C171.779 16.8291 171.104 16.5855 170.341 16.4301L170.142 17.4099ZM171.87 18.0433C172.092 18.1592 172.229 18.3042 172.31 18.475L173.213 18.045C173.028 17.6558 172.724 17.3608 172.333 17.1567L171.87 18.0433ZM172.31 18.475C172.405 18.6752 172.442 18.8794 172.423 19.0967L173.42 19.1833C173.454 18.7872 173.384 18.4048 173.213 18.045L172.31 18.475ZM172.424 19.0947C172.406 19.2883 172.338 19.4533 172.216 19.6021L172.988 20.2379C173.238 19.9334 173.384 19.5783 173.42 19.1853L172.424 19.0947ZM172.204 19.6163C172.106 19.7445 171.967 19.841 171.755 19.8962L172.008 20.8638C172.41 20.759 172.75 20.5488 172.999 20.2237L172.204 19.6163ZM171.771 19.8924C171.618 19.9272 171.377 19.9106 171.015 19.7589L170.628 20.6811C171.093 20.876 171.559 20.9661 171.992 20.8676L171.771 19.8924ZM171.026 19.7637C170.593 19.5698 170.11 19.4322 169.582 19.3464L169.422 20.3336C169.879 20.4078 170.276 20.5236 170.617 20.6763L171.026 19.7637ZM169.597 19.3492C169.088 19.2502 168.589 19.2 168.102 19.2V20.2C168.52 20.2 168.955 20.2431 169.406 20.3308L169.597 19.3492ZM168.102 19.2C167.571 19.2 167.092 19.2642 166.678 19.4075L167.005 20.3525C167.285 20.2558 167.646 20.2 168.102 20.2V19.2ZM166.695 19.4021C166.284 19.5286 165.928 19.7305 165.665 20.0307L166.418 20.6893C166.528 20.5628 166.706 20.4448 166.989 20.3579L166.695 19.4021ZM165.654 20.0447C165.406 20.349 165.282 20.7075 165.282 21.1H166.282C166.282 20.9325 166.33 20.7977 166.43 20.6753L165.654 20.0447ZM165.282 21.1C165.282 21.5358 165.466 21.9085 165.791 22.1949L166.452 21.4451C166.324 21.3315 166.282 21.2242 166.282 21.1H165.282ZM165.815 22.2147C166.15 22.4759 166.681 22.6537 167.318 22.7891L167.526 21.8109C166.909 21.6797 166.573 21.5374 166.429 21.4253L165.815 22.2147ZM167.316 22.7888L169.636 23.2888L169.847 22.3112L167.527 21.8112L167.316 22.7888ZM169.636 23.2887C170.876 23.5572 171.74 23.986 172.288 24.5336L172.995 23.8264C172.263 23.094 171.194 22.6028 169.847 22.3113L169.636 23.2887ZM172.288 24.5336C172.821 25.0669 173.102 25.7665 173.102 26.68H174.102C174.102 25.5401 173.742 24.5731 172.995 23.8264L172.288 24.5336ZM173.102 26.68C173.102 27.3042 172.976 27.853 172.734 28.3364L173.629 28.7836C173.947 28.147 174.102 27.4425 174.102 26.68H173.102ZM172.734 28.3364C172.49 28.8256 172.14 29.2475 171.677 29.6037L172.286 30.3963C172.863 29.9525 173.313 29.4144 173.629 28.7836L172.734 28.3364ZM171.683 29.5988C171.219 29.9442 170.648 30.2203 169.962 30.4199L170.241 31.3801C171.022 31.153 171.704 30.8291 172.28 30.4012L171.683 29.5988ZM169.962 30.4199C169.282 30.6177 168.504 30.72 167.622 30.72V31.72C168.58 31.72 169.454 31.609 170.241 31.3801L169.962 30.4199Z" fill="#F38E82" mask="url(#path-1-outside-1_2_29)"/>
</g>
</svg>
