<svg width="200" height="50" viewBox="0 0 200 50" fill="none" xmlns="http://www.w3.org/2000/svg">
<g clip-path="url(#clip0_1_14)">
<path d="M7.04121 43.0307C9.98677 45.9093 13.2782 47.363 16.4377 44.2753C18.6804 42.0835 18.1097 37.9722 15.1629 35.0912C12.2161 32.2126 8.01043 31.6548 5.76643 33.8466C2.60699 36.9343 4.09443 40.1497 7.04121 43.0307ZM15.0504 35.2023C17.2602 37.3619 17.688 40.4459 16.0062 42.0907C13.6375 44.4055 11.1687 43.315 8.95766 41.1554C6.74666 38.9971 5.63199 36.5855 8.00188 34.2683C9.68366 32.6247 12.8394 33.0428 15.0504 35.2023ZM44.9607 5.97069C42.0151 3.09089 38.7249 1.63844 35.5642 4.72608C33.3214 6.91789 33.8922 11.0292 36.839 13.909C39.7858 16.7888 43.9902 17.3466 46.2354 15.1536C49.3949 12.0659 47.9074 8.8493 44.9607 5.97069ZM36.9514 13.7979C34.7417 11.6383 34.3139 8.55547 35.9957 6.91072C38.3643 4.59589 40.8332 5.68522 43.0442 7.84477C45.2552 10.0043 46.3699 12.4159 44 14.7319C42.3182 16.3755 39.1624 15.9574 36.9514 13.7979Z" fill="#292F33"/>
<path d="M26 44.8056C37.4753 44.8056 46.7778 35.7144 46.7778 24.5C46.7778 13.2856 37.4753 4.19444 26 4.19444C14.5248 4.19444 5.22222 13.2856 5.22222 24.5C5.22222 35.7144 14.5248 44.8056 26 44.8056Z" fill="#292F33"/>
<path d="M42.6222 24.5C42.6222 33.4715 35.1801 40.7444 26 40.7444C16.8199 40.7444 9.37778 33.4715 9.37778 24.5C9.37778 15.5285 16.8199 8.25556 26 8.25556C35.1801 8.25556 42.6222 15.5285 42.6222 24.5Z" fill="#FFAC33"/>
<path d="M27.7661 15.7388L24.6629 12.7061C24.8952 12.442 25.0132 12.0999 24.9917 11.7523C24.9703 11.4047 24.8111 11.0789 24.5479 10.8441C24.2847 10.6093 23.9383 10.484 23.5822 10.4946C23.226 10.5053 22.8881 10.6511 22.6401 10.9012C22.3101 11.2237 22.1854 11.6693 22.26 12.0849C21.9721 12.0349 21.6754 12.076 21.413 12.2021C21.1506 12.3283 20.9363 12.533 20.8012 12.7864C20.666 13.0398 20.6172 13.3288 20.6617 13.6112C20.7063 13.8937 20.8419 14.1549 21.0488 14.3568C21.556 14.8525 22.3566 14.874 22.8956 14.4332L25.9988 17.4647L27.7661 15.7388Z" fill="#FFE8B6"/>
<path d="M37.8177 27.2902C38.7013 26.4266 40.9356 22.7203 37.8433 19.6983C35.6886 17.5925 33.9518 17.7132 30.7214 16.9308C29.3966 16.4984 27.6683 14.9421 27.2271 14.5109C26.7847 14.9421 26.9399 16.5211 26.9399 16.5211C26.9399 16.5211 25.0149 16.674 24.5724 17.1052C25.0137 17.5364 27.067 19.4344 27.4263 20.3242C28.3919 23.3199 28.2819 24.844 30.4379 26.9486C33.9713 30.4017 36.9352 28.1538 37.8177 27.2902Z" fill="#C1694F"/>
<path d="M15.407 22.7083C15.407 25.0172 19.1947 26.8889 16.8333 26.8889C16.2716 26.8889 15.7153 26.7808 15.1963 26.5707C14.6773 26.3606 14.2057 26.0526 13.8085 25.6644C13.4113 25.2762 13.0962 24.8154 12.8812 24.3082C12.6662 23.801 12.5556 23.2573 12.5556 22.7083C12.5556 22.1593 12.6662 21.6157 12.8812 21.1085C13.0962 20.6013 13.4113 20.1404 13.8085 19.7522C14.2057 19.364 14.6773 19.0561 15.1963 18.846C15.7153 18.6359 16.2716 18.5278 16.8333 18.5278C19.1959 18.5278 15.407 20.3995 15.407 22.7083ZM26.022 34.0436C27.9763 34.9645 31.0771 32.6497 30.1336 34.5608C29.6801 35.4785 28.8721 36.1826 27.8874 36.5182C26.9027 36.8537 25.822 36.7933 24.8829 36.3501C23.9438 35.9069 23.2234 35.1173 22.88 34.155C22.5366 33.1927 22.5985 32.1365 23.052 31.2187C23.9956 29.3076 24.0677 33.1215 26.022 34.0436Z" fill="#77B255"/>
<path d="M22.3333 25.6944C23.6834 25.6944 24.7778 24.6249 24.7778 23.3056C24.7778 21.9862 23.6834 20.9167 22.3333 20.9167C20.9833 20.9167 19.8889 21.9862 19.8889 23.3056C19.8889 24.6249 20.9833 25.6944 22.3333 25.6944Z" fill="#F4900C"/>
<path d="M33.3333 32.8611C34.0083 32.8611 34.5556 32.3263 34.5556 31.6667C34.5556 31.007 34.0083 30.4722 33.3333 30.4722C32.6583 30.4722 32.1111 31.007 32.1111 31.6667C32.1111 32.3263 32.6583 32.8611 33.3333 32.8611Z" fill="#F4900C"/>
<path d="M17.4444 31.6667C18.1195 31.6667 18.6667 31.1319 18.6667 30.4722C18.6667 29.8125 18.1195 29.2778 17.4444 29.2778C16.7694 29.2778 16.2222 29.8125 16.2222 30.4722C16.2222 31.1319 16.7694 31.6667 17.4444 31.6667Z" fill="#F4900C"/>
</g>
<g style="mix-blend-mode:multiply">
<mask id="path-10-outside-1_1_14" maskUnits="userSpaceOnUse" x="56" y="18" width="137" height="13" fill="black">
<rect fill="white" x="56" y="18" width="137" height="13"/>
<path d="M58.512 30.144C58.0427 30.144 57.6747 30.016 57.408 29.76C57.152 29.4933 57.024 29.1147 57.024 28.624V20.24C57.024 19.7493 57.152 19.376 57.408 19.12C57.6747 18.8533 58.0587 18.72 58.56 18.72H63.888C64.272 18.72 64.56 18.816 64.752 19.008C64.944 19.2 65.04 19.4773 65.04 19.84C65.04 20.2133 64.944 20.5013 64.752 20.704C64.56 20.896 64.272 20.992 63.888 20.992H59.968V23.264H63.536C63.9093 23.264 64.192 23.36 64.384 23.552C64.5867 23.744 64.688 24.0213 64.688 24.384C64.688 24.7573 64.5867 25.04 64.384 25.232C64.192 25.424 63.9093 25.52 63.536 25.52H59.968V28.624C59.968 29.6373 59.4827 30.144 58.512 30.144ZM72.5646 30.176C71.4233 30.176 70.4206 29.936 69.5566 29.456C68.6926 28.9653 68.0206 28.2827 67.5406 27.408C67.0713 26.5333 66.8366 25.5147 66.8366 24.352C66.8366 23.4773 66.97 22.6827 67.2366 21.968C67.514 21.2533 67.9033 20.64 68.4046 20.128C68.9166 19.616 69.5246 19.2267 70.2286 18.96C70.9326 18.6827 71.7113 18.544 72.5646 18.544C73.706 18.544 74.7033 18.784 75.5566 19.264C76.4206 19.744 77.0926 20.4213 77.5726 21.296C78.0526 22.16 78.2926 23.1787 78.2926 24.352C78.2926 25.2267 78.154 26.0213 77.8766 26.736C77.61 27.4507 77.2206 28.0693 76.7086 28.592C76.2073 29.104 75.6046 29.4987 74.9006 29.776C74.1966 30.0427 73.418 30.176 72.5646 30.176ZM72.5646 27.712C73.13 27.712 73.61 27.5787 74.0046 27.312C74.3993 27.0453 74.7033 26.6613 74.9166 26.16C75.13 25.6587 75.2366 25.056 75.2366 24.352C75.2366 23.296 75.002 22.4747 74.5326 21.888C74.0633 21.3013 73.4073 21.008 72.5646 21.008C72.01 21.008 71.53 21.1413 71.1246 21.408C70.73 21.664 70.426 22.0427 70.2126 22.544C69.9993 23.0347 69.8926 23.6373 69.8926 24.352C69.8926 25.408 70.1273 26.2347 70.5966 26.832C71.066 27.4187 71.722 27.712 72.5646 27.712ZM86.4309 30.176C85.2895 30.176 84.2869 29.936 83.4229 29.456C82.5589 28.9653 81.8869 28.2827 81.4069 27.408C80.9375 26.5333 80.7029 25.5147 80.7029 24.352C80.7029 23.4773 80.8362 22.6827 81.1029 21.968C81.3802 21.2533 81.7695 20.64 82.2709 20.128C82.7829 19.616 83.3909 19.2267 84.0949 18.96C84.7989 18.6827 85.5775 18.544 86.4309 18.544C87.5722 18.544 88.5695 18.784 89.4229 19.264C90.2869 19.744 90.9589 20.4213 91.4389 21.296C91.9189 22.16 92.1589 23.1787 92.1589 24.352C92.1589 25.2267 92.0202 26.0213 91.7429 26.736C91.4762 27.4507 91.0869 28.0693 90.5749 28.592C90.0735 29.104 89.4709 29.4987 88.7669 29.776C88.0629 30.0427 87.2842 30.176 86.4309 30.176ZM86.4309 27.712C86.9962 27.712 87.4762 27.5787 87.8709 27.312C88.2655 27.0453 88.5695 26.6613 88.7829 26.16C88.9962 25.6587 89.1029 25.056 89.1029 24.352C89.1029 23.296 88.8682 22.4747 88.3989 21.888C87.9295 21.3013 87.2735 21.008 86.4309 21.008C85.8762 21.008 85.3962 21.1413 84.9909 21.408C84.5962 21.664 84.2922 22.0427 84.0789 22.544C83.8655 23.0347 83.7589 23.6373 83.7589 24.352C83.7589 25.408 83.9935 26.2347 84.4629 26.832C84.9322 27.4187 85.5882 27.712 86.4309 27.712ZM96.3931 30C95.8918 30 95.5078 29.872 95.2411 29.616C94.9851 29.3493 94.8571 28.9707 94.8571 28.48V20.24C94.8571 19.7493 94.9851 19.376 95.2411 19.12C95.5078 18.8533 95.8918 18.72 96.3931 18.72H99.5291C101.492 18.72 103.006 19.2107 104.073 20.192C105.15 21.1733 105.689 22.56 105.689 24.352C105.689 25.248 105.55 26.048 105.273 26.752C104.996 27.4453 104.596 28.0373 104.073 28.528C103.55 29.008 102.905 29.376 102.137 29.632C101.38 29.8773 100.51 30 99.5291 30H96.3931ZM97.8011 27.616H99.3371C99.9025 27.616 100.388 27.5467 100.793 27.408C101.209 27.2693 101.55 27.0667 101.817 26.8C102.094 26.5333 102.297 26.1973 102.425 25.792C102.564 25.3867 102.633 24.9067 102.633 24.352C102.633 23.2427 102.361 22.4267 101.817 21.904C101.273 21.3707 100.446 21.104 99.3371 21.104H97.8011V27.616ZM115.469 30C114.968 30 114.584 29.872 114.317 29.616C114.061 29.3493 113.933 28.9707 113.933 28.48V20.24C113.933 19.7493 114.061 19.376 114.317 19.12C114.584 18.8533 114.968 18.72 115.469 18.72H120.893C121.277 18.72 121.565 18.816 121.757 19.008C121.949 19.2 122.045 19.4773 122.045 19.84C122.045 20.2133 121.949 20.5013 121.757 20.704C121.565 20.896 121.277 20.992 120.893 20.992H116.749V23.136H120.541C120.915 23.136 121.197 23.232 121.389 23.424C121.592 23.616 121.693 23.8987 121.693 24.272C121.693 24.6453 121.592 24.928 121.389 25.12C121.197 25.312 120.915 25.408 120.541 25.408H116.749V27.728H120.893C121.277 27.728 121.565 27.8293 121.757 28.032C121.949 28.224 122.045 28.5013 122.045 28.864C122.045 29.2373 121.949 29.52 121.757 29.712C121.565 29.904 121.277 30 120.893 30H115.469ZM125.73 30.144C125.357 30.144 125.048 30.0427 124.802 29.84C124.557 29.6373 124.413 29.3813 124.37 29.072C124.338 28.7627 124.445 28.448 124.69 28.128L128.082 23.648V24.976L124.786 20.608C124.541 20.2773 124.434 19.9573 124.466 19.648C124.509 19.3387 124.653 19.0827 124.898 18.88C125.144 18.6773 125.453 18.576 125.826 18.576C126.136 18.576 126.408 18.6507 126.642 18.8C126.877 18.9493 127.112 19.1893 127.346 19.52L129.73 22.832H128.77L131.17 19.52C131.405 19.1787 131.64 18.9387 131.874 18.8C132.109 18.6507 132.381 18.576 132.69 18.576C133.074 18.576 133.389 18.6773 133.634 18.88C133.88 19.072 134.018 19.3227 134.05 19.632C134.093 19.9413 133.986 20.2667 133.73 20.608L130.418 24.976V23.648L133.81 28.128C134.066 28.448 134.173 28.7627 134.13 29.072C134.098 29.3813 133.96 29.6373 133.714 29.84C133.469 30.0427 133.154 30.144 132.77 30.144C132.472 30.144 132.205 30.0747 131.97 29.936C131.736 29.7867 131.496 29.5413 131.25 29.2L128.786 25.792H129.714L127.266 29.2C127.021 29.5413 126.781 29.7867 126.546 29.936C126.312 30.0747 126.04 30.144 125.73 30.144ZM138.294 30.144C137.825 30.144 137.462 30.016 137.206 29.76C136.95 29.4933 136.822 29.1253 136.822 28.656V20.208C136.822 19.728 136.95 19.36 137.206 19.104C137.473 18.848 137.841 18.72 138.31 18.72H142.246C143.526 18.72 144.513 19.0507 145.206 19.712C145.91 20.3627 146.262 21.264 146.262 22.416C146.262 23.568 145.91 24.4747 145.206 25.136C144.513 25.7867 143.526 26.112 142.246 26.112H139.766V28.656C139.766 29.1253 139.643 29.4933 139.398 29.76C139.153 30.016 138.785 30.144 138.294 30.144ZM139.766 23.856H141.734C142.289 23.856 142.715 23.7387 143.014 23.504C143.313 23.2587 143.462 22.896 143.462 22.416C143.462 21.9253 143.313 21.5627 143.014 21.328C142.715 21.0933 142.289 20.976 141.734 20.976H139.766V23.856ZM150.067 30.144C149.597 30.144 149.235 30.016 148.979 29.76C148.723 29.4933 148.595 29.1253 148.595 28.656V20.208C148.595 19.728 148.723 19.36 148.979 19.104C149.245 18.848 149.613 18.72 150.083 18.72H154.019C155.299 18.72 156.285 19.0347 156.979 19.664C157.683 20.2827 158.035 21.1467 158.035 22.256C158.035 22.9707 157.875 23.5947 157.555 24.128C157.245 24.6507 156.792 25.056 156.195 25.344C155.608 25.6213 154.883 25.76 154.019 25.76L154.147 25.472H154.915C155.373 25.472 155.779 25.584 156.131 25.808C156.483 26.0213 156.776 26.352 157.011 26.8L157.811 28.24C157.981 28.5493 158.061 28.8533 158.051 29.152C158.04 29.44 157.923 29.68 157.699 29.872C157.485 30.0533 157.171 30.144 156.755 30.144C156.339 30.144 155.997 30.0587 155.731 29.888C155.475 29.7173 155.245 29.4507 155.043 29.088L153.587 26.416C153.459 26.1813 153.293 26.0213 153.091 25.936C152.899 25.84 152.675 25.792 152.419 25.792H151.539V28.656C151.539 29.1253 151.416 29.4933 151.171 29.76C150.925 30.016 150.557 30.144 150.067 30.144ZM151.539 23.712H153.491C154.056 23.712 154.488 23.6 154.787 23.376C155.085 23.152 155.235 22.8053 155.235 22.336C155.235 21.888 155.085 21.552 154.787 21.328C154.488 21.0933 154.056 20.976 153.491 20.976H151.539V23.712ZM162.387 30C161.886 30 161.502 29.872 161.235 29.616C160.979 29.3493 160.851 28.9707 160.851 28.48V20.24C160.851 19.7493 160.979 19.376 161.235 19.12C161.502 18.8533 161.886 18.72 162.387 18.72H167.811C168.195 18.72 168.483 18.816 168.675 19.008C168.867 19.2 168.964 19.4773 168.964 19.84C168.964 20.2133 168.867 20.5013 168.675 20.704C168.483 20.896 168.195 20.992 167.811 20.992H163.667V23.136H167.459C167.833 23.136 168.115 23.232 168.307 23.424C168.51 23.616 168.611 23.8987 168.611 24.272C168.611 24.6453 168.51 24.928 168.307 25.12C168.115 25.312 167.833 25.408 167.459 25.408H163.667V27.728H167.811C168.195 27.728 168.483 27.8293 168.675 28.032C168.867 28.224 168.964 28.5013 168.964 28.864C168.964 29.2373 168.867 29.52 168.675 29.712C168.483 29.904 168.195 30 167.811 30H162.387ZM175.675 30.176C175.249 30.176 174.801 30.144 174.331 30.08C173.873 30.0267 173.435 29.9413 173.019 29.824C172.603 29.7067 172.23 29.568 171.899 29.408C171.611 29.2693 171.409 29.088 171.291 28.864C171.174 28.6293 171.131 28.384 171.163 28.128C171.195 27.872 171.286 27.648 171.435 27.456C171.585 27.2533 171.782 27.12 172.027 27.056C172.273 26.9813 172.55 27.0133 172.859 27.152C173.265 27.344 173.723 27.4933 174.235 27.6C174.747 27.7067 175.227 27.76 175.675 27.76C176.379 27.76 176.87 27.6693 177.147 27.488C177.435 27.296 177.579 27.0613 177.579 26.784C177.579 26.5387 177.478 26.3413 177.275 26.192C177.083 26.0427 176.737 25.9147 176.235 25.808L174.363 25.408C173.339 25.1947 172.577 24.8213 172.075 24.288C171.574 23.7547 171.323 23.0667 171.323 22.224C171.323 21.6693 171.435 21.168 171.659 20.72C171.894 20.2613 172.219 19.872 172.635 19.552C173.062 19.232 173.563 18.9867 174.139 18.816C174.726 18.6347 175.377 18.544 176.091 18.544C176.646 18.544 177.206 18.608 177.771 18.736C178.347 18.8533 178.843 19.0347 179.259 19.28C179.505 19.408 179.681 19.584 179.787 19.808C179.894 20.032 179.937 20.2667 179.915 20.512C179.894 20.7467 179.809 20.9547 179.659 21.136C179.521 21.3173 179.329 21.44 179.083 21.504C178.849 21.5573 178.566 21.5147 178.235 21.376C177.926 21.2373 177.574 21.136 177.179 21.072C176.795 20.9973 176.422 20.96 176.059 20.96C175.665 20.96 175.329 21.008 175.051 21.104C174.774 21.1893 174.561 21.3173 174.411 21.488C174.273 21.6587 174.203 21.856 174.203 22.08C174.203 22.304 174.294 22.496 174.475 22.656C174.667 22.8053 175.014 22.9333 175.515 23.04L177.371 23.44C178.406 23.664 179.179 24.032 179.691 24.544C180.203 25.056 180.459 25.7227 180.459 26.544C180.459 27.0987 180.347 27.6 180.123 28.048C179.899 28.496 179.579 28.88 179.163 29.2C178.747 29.5093 178.246 29.7493 177.659 29.92C177.073 30.0907 176.411 30.176 175.675 30.176ZM187.057 30.176C186.631 30.176 186.183 30.144 185.713 30.08C185.255 30.0267 184.817 29.9413 184.401 29.824C183.985 29.7067 183.612 29.568 183.281 29.408C182.993 29.2693 182.791 29.088 182.673 28.864C182.556 28.6293 182.513 28.384 182.545 28.128C182.577 27.872 182.668 27.648 182.817 27.456C182.967 27.2533 183.164 27.12 183.409 27.056C183.655 26.9813 183.932 27.0133 184.241 27.152C184.647 27.344 185.105 27.4933 185.617 27.6C186.129 27.7067 186.609 27.76 187.057 27.76C187.761 27.76 188.252 27.6693 188.529 27.488C188.817 27.296 188.961 27.0613 188.961 26.784C188.961 26.5387 188.86 26.3413 188.657 26.192C188.465 26.0427 188.119 25.9147 187.617 25.808L185.745 25.408C184.721 25.1947 183.959 24.8213 183.457 24.288C182.956 23.7547 182.705 23.0667 182.705 22.224C182.705 21.6693 182.817 21.168 183.041 20.72C183.276 20.2613 183.601 19.872 184.017 19.552C184.444 19.232 184.945 18.9867 185.521 18.816C186.108 18.6347 186.759 18.544 187.473 18.544C188.028 18.544 188.588 18.608 189.153 18.736C189.729 18.8533 190.225 19.0347 190.641 19.28C190.887 19.408 191.063 19.584 191.169 19.808C191.276 20.032 191.319 20.2667 191.297 20.512C191.276 20.7467 191.191 20.9547 191.041 21.136C190.903 21.3173 190.711 21.44 190.465 21.504C190.231 21.5573 189.948 21.5147 189.617 21.376C189.308 21.2373 188.956 21.136 188.561 21.072C188.177 20.9973 187.804 20.96 187.441 20.96C187.047 20.96 186.711 21.008 186.433 21.104C186.156 21.1893 185.943 21.3173 185.793 21.488C185.655 21.6587 185.585 21.856 185.585 22.08C185.585 22.304 185.676 22.496 185.857 22.656C186.049 22.8053 186.396 22.9333 186.897 23.04L188.753 23.44C189.788 23.664 190.561 24.032 191.073 24.544C191.585 25.056 191.841 25.7227 191.841 26.544C191.841 27.0987 191.729 27.6 191.505 28.048C191.281 28.496 190.961 28.88 190.545 29.2C190.129 29.5093 189.628 29.7493 189.041 29.92C188.455 30.0907 187.793 30.176 187.057 30.176Z"/>
</mask>
<path d="M58.512 30.144C58.0427 30.144 57.6747 30.016 57.408 29.76C57.152 29.4933 57.024 29.1147 57.024 28.624V20.24C57.024 19.7493 57.152 19.376 57.408 19.12C57.6747 18.8533 58.0587 18.72 58.56 18.72H63.888C64.272 18.72 64.56 18.816 64.752 19.008C64.944 19.2 65.04 19.4773 65.04 19.84C65.04 20.2133 64.944 20.5013 64.752 20.704C64.56 20.896 64.272 20.992 63.888 20.992H59.968V23.264H63.536C63.9093 23.264 64.192 23.36 64.384 23.552C64.5867 23.744 64.688 24.0213 64.688 24.384C64.688 24.7573 64.5867 25.04 64.384 25.232C64.192 25.424 63.9093 25.52 63.536 25.52H59.968V28.624C59.968 29.6373 59.4827 30.144 58.512 30.144ZM72.5646 30.176C71.4233 30.176 70.4206 29.936 69.5566 29.456C68.6926 28.9653 68.0206 28.2827 67.5406 27.408C67.0713 26.5333 66.8366 25.5147 66.8366 24.352C66.8366 23.4773 66.97 22.6827 67.2366 21.968C67.514 21.2533 67.9033 20.64 68.4046 20.128C68.9166 19.616 69.5246 19.2267 70.2286 18.96C70.9326 18.6827 71.7113 18.544 72.5646 18.544C73.706 18.544 74.7033 18.784 75.5566 19.264C76.4206 19.744 77.0926 20.4213 77.5726 21.296C78.0526 22.16 78.2926 23.1787 78.2926 24.352C78.2926 25.2267 78.154 26.0213 77.8766 26.736C77.61 27.4507 77.2206 28.0693 76.7086 28.592C76.2073 29.104 75.6046 29.4987 74.9006 29.776C74.1966 30.0427 73.418 30.176 72.5646 30.176ZM72.5646 27.712C73.13 27.712 73.61 27.5787 74.0046 27.312C74.3993 27.0453 74.7033 26.6613 74.9166 26.16C75.13 25.6587 75.2366 25.056 75.2366 24.352C75.2366 23.296 75.002 22.4747 74.5326 21.888C74.0633 21.3013 73.4073 21.008 72.5646 21.008C72.01 21.008 71.53 21.1413 71.1246 21.408C70.73 21.664 70.426 22.0427 70.2126 22.544C69.9993 23.0347 69.8926 23.6373 69.8926 24.352C69.8926 25.408 70.1273 26.2347 70.5966 26.832C71.066 27.4187 71.722 27.712 72.5646 27.712ZM86.4309 30.176C85.2895 30.176 84.2869 29.936 83.4229 29.456C82.5589 28.9653 81.8869 28.2827 81.4069 27.408C80.9375 26.5333 80.7029 25.5147 80.7029 24.352C80.7029 23.4773 80.8362 22.6827 81.1029 21.968C81.3802 21.2533 81.7695 20.64 82.2709 20.128C82.7829 19.616 83.3909 19.2267 84.0949 18.96C84.7989 18.6827 85.5775 18.544 86.4309 18.544C87.5722 18.544 88.5695 18.784 89.4229 19.264C90.2869 19.744 90.9589 20.4213 91.4389 21.296C91.9189 22.16 92.1589 23.1787 92.1589 24.352C92.1589 25.2267 92.0202 26.0213 91.7429 26.736C91.4762 27.4507 91.0869 28.0693 90.5749 28.592C90.0735 29.104 89.4709 29.4987 88.7669 29.776C88.0629 30.0427 87.2842 30.176 86.4309 30.176ZM86.4309 27.712C86.9962 27.712 87.4762 27.5787 87.8709 27.312C88.2655 27.0453 88.5695 26.6613 88.7829 26.16C88.9962 25.6587 89.1029 25.056 89.1029 24.352C89.1029 23.296 88.8682 22.4747 88.3989 21.888C87.9295 21.3013 87.2735 21.008 86.4309 21.008C85.8762 21.008 85.3962 21.1413 84.9909 21.408C84.5962 21.664 84.2922 22.0427 84.0789 22.544C83.8655 23.0347 83.7589 23.6373 83.7589 24.352C83.7589 25.408 83.9935 26.2347 84.4629 26.832C84.9322 27.4187 85.5882 27.712 86.4309 27.712ZM96.3931 30C95.8918 30 95.5078 29.872 95.2411 29.616C94.9851 29.3493 94.8571 28.9707 94.8571 28.48V20.24C94.8571 19.7493 94.9851 19.376 95.2411 19.12C95.5078 18.8533 95.8918 18.72 96.3931 18.72H99.5291C101.492 18.72 103.006 19.2107 104.073 20.192C105.15 21.1733 105.689 22.56 105.689 24.352C105.689 25.248 105.55 26.048 105.273 26.752C104.996 27.4453 104.596 28.0373 104.073 28.528C103.55 29.008 102.905 29.376 102.137 29.632C101.38 29.8773 100.51 30 99.5291 30H96.3931ZM97.8011 27.616H99.3371C99.9025 27.616 100.388 27.5467 100.793 27.408C101.209 27.2693 101.55 27.0667 101.817 26.8C102.094 26.5333 102.297 26.1973 102.425 25.792C102.564 25.3867 102.633 24.9067 102.633 24.352C102.633 23.2427 102.361 22.4267 101.817 21.904C101.273 21.3707 100.446 21.104 99.3371 21.104H97.8011V27.616ZM115.469 30C114.968 30 114.584 29.872 114.317 29.616C114.061 29.3493 113.933 28.9707 113.933 28.48V20.24C113.933 19.7493 114.061 19.376 114.317 19.12C114.584 18.8533 114.968 18.72 115.469 18.72H120.893C121.277 18.72 121.565 18.816 121.757 19.008C121.949 19.2 122.045 19.4773 122.045 19.84C122.045 20.2133 121.949 20.5013 121.757 20.704C121.565 20.896 121.277 20.992 120.893 20.992H116.749V23.136H120.541C120.915 23.136 121.197 23.232 121.389 23.424C121.592 23.616 121.693 23.8987 121.693 24.272C121.693 24.6453 121.592 24.928 121.389 25.12C121.197 25.312 120.915 25.408 120.541 25.408H116.749V27.728H120.893C121.277 27.728 121.565 27.8293 121.757 28.032C121.949 28.224 122.045 28.5013 122.045 28.864C122.045 29.2373 121.949 29.52 121.757 29.712C121.565 29.904 121.277 30 120.893 30H115.469ZM125.73 30.144C125.357 30.144 125.048 30.0427 124.802 29.84C124.557 29.6373 124.413 29.3813 124.37 29.072C124.338 28.7627 124.445 28.448 124.69 28.128L128.082 23.648V24.976L124.786 20.608C124.541 20.2773 124.434 19.9573 124.466 19.648C124.509 19.3387 124.653 19.0827 124.898 18.88C125.144 18.6773 125.453 18.576 125.826 18.576C126.136 18.576 126.408 18.6507 126.642 18.8C126.877 18.9493 127.112 19.1893 127.346 19.52L129.73 22.832H128.77L131.17 19.52C131.405 19.1787 131.64 18.9387 131.874 18.8C132.109 18.6507 132.381 18.576 132.69 18.576C133.074 18.576 133.389 18.6773 133.634 18.88C133.88 19.072 134.018 19.3227 134.05 19.632C134.093 19.9413 133.986 20.2667 133.73 20.608L130.418 24.976V23.648L133.81 28.128C134.066 28.448 134.173 28.7627 134.13 29.072C134.098 29.3813 133.96 29.6373 133.714 29.84C133.469 30.0427 133.154 30.144 132.77 30.144C132.472 30.144 132.205 30.0747 131.97 29.936C131.736 29.7867 131.496 29.5413 131.25 29.2L128.786 25.792H129.714L127.266 29.2C127.021 29.5413 126.781 29.7867 126.546 29.936C126.312 30.0747 126.04 30.144 125.73 30.144ZM138.294 30.144C137.825 30.144 137.462 30.016 137.206 29.76C136.95 29.4933 136.822 29.1253 136.822 28.656V20.208C136.822 19.728 136.95 19.36 137.206 19.104C137.473 18.848 137.841 18.72 138.31 18.72H142.246C143.526 18.72 144.513 19.0507 145.206 19.712C145.91 20.3627 146.262 21.264 146.262 22.416C146.262 23.568 145.91 24.4747 145.206 25.136C144.513 25.7867 143.526 26.112 142.246 26.112H139.766V28.656C139.766 29.1253 139.643 29.4933 139.398 29.76C139.153 30.016 138.785 30.144 138.294 30.144ZM139.766 23.856H141.734C142.289 23.856 142.715 23.7387 143.014 23.504C143.313 23.2587 143.462 22.896 143.462 22.416C143.462 21.9253 143.313 21.5627 143.014 21.328C142.715 21.0933 142.289 20.976 141.734 20.976H139.766V23.856ZM150.067 30.144C149.597 30.144 149.235 30.016 148.979 29.76C148.723 29.4933 148.595 29.1253 148.595 28.656V20.208C148.595 19.728 148.723 19.36 148.979 19.104C149.245 18.848 149.613 18.72 150.083 18.72H154.019C155.299 18.72 156.285 19.0347 156.979 19.664C157.683 20.2827 158.035 21.1467 158.035 22.256C158.035 22.9707 157.875 23.5947 157.555 24.128C157.245 24.6507 156.792 25.056 156.195 25.344C155.608 25.6213 154.883 25.76 154.019 25.76L154.147 25.472H154.915C155.373 25.472 155.779 25.584 156.131 25.808C156.483 26.0213 156.776 26.352 157.011 26.8L157.811 28.24C157.981 28.5493 158.061 28.8533 158.051 29.152C158.04 29.44 157.923 29.68 157.699 29.872C157.485 30.0533 157.171 30.144 156.755 30.144C156.339 30.144 155.997 30.0587 155.731 29.888C155.475 29.7173 155.245 29.4507 155.043 29.088L153.587 26.416C153.459 26.1813 153.293 26.0213 153.091 25.936C152.899 25.84 152.675 25.792 152.419 25.792H151.539V28.656C151.539 29.1253 151.416 29.4933 151.171 29.76C150.925 30.016 150.557 30.144 150.067 30.144ZM151.539 23.712H153.491C154.056 23.712 154.488 23.6 154.787 23.376C155.085 23.152 155.235 22.8053 155.235 22.336C155.235 21.888 155.085 21.552 154.787 21.328C154.488 21.0933 154.056 20.976 153.491 20.976H151.539V23.712ZM162.387 30C161.886 30 161.502 29.872 161.235 29.616C160.979 29.3493 160.851 28.9707 160.851 28.48V20.24C160.851 19.7493 160.979 19.376 161.235 19.12C161.502 18.8533 161.886 18.72 162.387 18.72H167.811C168.195 18.72 168.483 18.816 168.675 19.008C168.867 19.2 168.964 19.4773 168.964 19.84C168.964 20.2133 168.867 20.5013 168.675 20.704C168.483 20.896 168.195 20.992 167.811 20.992H163.667V23.136H167.459C167.833 23.136 168.115 23.232 168.307 23.424C168.51 23.616 168.611 23.8987 168.611 24.272C168.611 24.6453 168.51 24.928 168.307 25.12C168.115 25.312 167.833 25.408 167.459 25.408H163.667V27.728H167.811C168.195 27.728 168.483 27.8293 168.675 28.032C168.867 28.224 168.964 28.5013 168.964 28.864C168.964 29.2373 168.867 29.52 168.675 29.712C168.483 29.904 168.195 30 167.811 30H162.387ZM175.675 30.176C175.249 30.176 174.801 30.144 174.331 30.08C173.873 30.0267 173.435 29.9413 173.019 29.824C172.603 29.7067 172.23 29.568 171.899 29.408C171.611 29.2693 171.409 29.088 171.291 28.864C171.174 28.6293 171.131 28.384 171.163 28.128C171.195 27.872 171.286 27.648 171.435 27.456C171.585 27.2533 171.782 27.12 172.027 27.056C172.273 26.9813 172.55 27.0133 172.859 27.152C173.265 27.344 173.723 27.4933 174.235 27.6C174.747 27.7067 175.227 27.76 175.675 27.76C176.379 27.76 176.87 27.6693 177.147 27.488C177.435 27.296 177.579 27.0613 177.579 26.784C177.579 26.5387 177.478 26.3413 177.275 26.192C177.083 26.0427 176.737 25.9147 176.235 25.808L174.363 25.408C173.339 25.1947 172.577 24.8213 172.075 24.288C171.574 23.7547 171.323 23.0667 171.323 22.224C171.323 21.6693 171.435 21.168 171.659 20.72C171.894 20.2613 172.219 19.872 172.635 19.552C173.062 19.232 173.563 18.9867 174.139 18.816C174.726 18.6347 175.377 18.544 176.091 18.544C176.646 18.544 177.206 18.608 177.771 18.736C178.347 18.8533 178.843 19.0347 179.259 19.28C179.505 19.408 179.681 19.584 179.787 19.808C179.894 20.032 179.937 20.2667 179.915 20.512C179.894 20.7467 179.809 20.9547 179.659 21.136C179.521 21.3173 179.329 21.44 179.083 21.504C178.849 21.5573 178.566 21.5147 178.235 21.376C177.926 21.2373 177.574 21.136 177.179 21.072C176.795 20.9973 176.422 20.96 176.059 20.96C175.665 20.96 175.329 21.008 175.051 21.104C174.774 21.1893 174.561 21.3173 174.411 21.488C174.273 21.6587 174.203 21.856 174.203 22.08C174.203 22.304 174.294 22.496 174.475 22.656C174.667 22.8053 175.014 22.9333 175.515 23.04L177.371 23.44C178.406 23.664 179.179 24.032 179.691 24.544C180.203 25.056 180.459 25.7227 180.459 26.544C180.459 27.0987 180.347 27.6 180.123 28.048C179.899 28.496 179.579 28.88 179.163 29.2C178.747 29.5093 178.246 29.7493 177.659 29.92C177.073 30.0907 176.411 30.176 175.675 30.176ZM187.057 30.176C186.631 30.176 186.183 30.144 185.713 30.08C185.255 30.0267 184.817 29.9413 184.401 29.824C183.985 29.7067 183.612 29.568 183.281 29.408C182.993 29.2693 182.791 29.088 182.673 28.864C182.556 28.6293 182.513 28.384 182.545 28.128C182.577 27.872 182.668 27.648 182.817 27.456C182.967 27.2533 183.164 27.12 183.409 27.056C183.655 26.9813 183.932 27.0133 184.241 27.152C184.647 27.344 185.105 27.4933 185.617 27.6C186.129 27.7067 186.609 27.76 187.057 27.76C187.761 27.76 188.252 27.6693 188.529 27.488C188.817 27.296 188.961 27.0613 188.961 26.784C188.961 26.5387 188.86 26.3413 188.657 26.192C188.465 26.0427 188.119 25.9147 187.617 25.808L185.745 25.408C184.721 25.1947 183.959 24.8213 183.457 24.288C182.956 23.7547 182.705 23.0667 182.705 22.224C182.705 21.6693 182.817 21.168 183.041 20.72C183.276 20.2613 183.601 19.872 184.017 19.552C184.444 19.232 184.945 18.9867 185.521 18.816C186.108 18.6347 186.759 18.544 187.473 18.544C188.028 18.544 188.588 18.608 189.153 18.736C189.729 18.8533 190.225 19.0347 190.641 19.28C190.887 19.408 191.063 19.584 191.169 19.808C191.276 20.032 191.319 20.2667 191.297 20.512C191.276 20.7467 191.191 20.9547 191.041 21.136C190.903 21.3173 190.711 21.44 190.465 21.504C190.231 21.5573 189.948 21.5147 189.617 21.376C189.308 21.2373 188.956 21.136 188.561 21.072C188.177 20.9973 187.804 20.96 187.441 20.96C187.047 20.96 186.711 21.008 186.433 21.104C186.156 21.1893 185.943 21.3173 185.793 21.488C185.655 21.6587 185.585 21.856 185.585 22.08C185.585 22.304 185.676 22.496 185.857 22.656C186.049 22.8053 186.396 22.9333 186.897 23.04L188.753 23.44C189.788 23.664 190.561 24.032 191.073 24.544C191.585 25.056 191.841 25.7227 191.841 26.544C191.841 27.0987 191.729 27.6 191.505 28.048C191.281 28.496 190.961 28.88 190.545 29.2C190.129 29.5093 189.628 29.7493 189.041 29.92C188.455 30.0907 187.793 30.176 187.057 30.176Z" fill="#FBDB89"/>
<path d="M57.408 29.76L57.0473 30.1063L57.0544 30.1136L57.0617 30.1207L57.408 29.76ZM57.408 19.12L57.7616 19.4736L57.7616 19.4736L57.408 19.12ZM64.752 19.008L65.1056 18.6544L65.1056 18.6544L64.752 19.008ZM64.752 20.704L65.1057 21.0577L65.115 21.0479L64.752 20.704ZM59.968 20.992V20.492H59.468V20.992H59.968ZM59.968 23.264H59.468V23.764H59.968V23.264ZM64.384 23.552L64.0303 23.9057L64.0401 23.915L64.384 23.552ZM64.384 25.232L64.04 24.8689L64.0304 24.8784L64.384 25.232ZM59.968 25.52V25.02H59.468V25.52H59.968ZM58.512 29.644C58.1354 29.644 57.9045 29.5436 57.7543 29.3993L57.0617 30.1207C57.4448 30.4884 57.9499 30.644 58.512 30.644V29.644ZM57.7687 29.4137C57.6282 29.2674 57.524 29.029 57.524 28.624H56.524C56.524 29.2003 56.6758 29.7193 57.0473 30.1063L57.7687 29.4137ZM57.524 28.624V20.24H56.524V28.624H57.524ZM57.524 20.24C57.524 19.8336 57.6287 19.6064 57.7616 19.4736L57.0544 18.7664C56.6753 19.1456 56.524 19.6651 56.524 20.24H57.524ZM57.7616 19.4736C57.9067 19.3284 58.1461 19.22 58.56 19.22V18.22C57.9712 18.22 57.4426 18.3783 57.0544 18.7664L57.7616 19.4736ZM58.56 19.22H63.888V18.22H58.56V19.22ZM63.888 19.22C64.1949 19.22 64.3333 19.2964 64.3984 19.3616L65.1056 18.6544C64.7867 18.3356 64.3491 18.22 63.888 18.22V19.22ZM64.3984 19.3616C64.4685 19.4316 64.54 19.564 64.54 19.84H65.54C65.54 19.3907 65.4195 18.9684 65.1056 18.6544L64.3984 19.3616ZM64.54 19.84C64.54 20.1296 64.4667 20.2781 64.389 20.3601L65.115 21.0479C65.4213 20.7246 65.54 20.2971 65.54 19.84H64.54ZM64.3984 20.3504C64.3333 20.4156 64.1949 20.492 63.888 20.492V21.492C64.3491 21.492 64.7867 21.3764 65.1056 21.0576L64.3984 20.3504ZM63.888 20.492H59.968V21.492H63.888V20.492ZM59.468 20.992V23.264H60.468V20.992H59.468ZM59.968 23.764H63.536V22.764H59.968V23.764ZM63.536 23.764C63.8275 23.764 63.9629 23.838 64.0304 23.9056L64.7376 23.1984C64.4211 22.882 63.9911 22.764 63.536 22.764V23.764ZM64.0401 23.915C64.1156 23.9865 64.188 24.1155 64.188 24.384H65.188C65.188 23.9272 65.0577 23.5015 64.7279 23.189L64.0401 23.915ZM64.188 24.384C64.188 24.6682 64.1128 24.8001 64.0401 24.869L64.7279 25.595C65.0605 25.2799 65.188 24.8464 65.188 24.384H64.188ZM64.0304 24.8784C63.9629 24.946 63.8275 25.02 63.536 25.02V26.02C63.9911 26.02 64.4211 25.902 64.7376 25.5856L64.0304 24.8784ZM63.536 25.02H59.968V26.02H63.536V25.02ZM59.468 25.52V28.624H60.468V25.52H59.468ZM59.468 28.624C59.468 29.0588 59.3635 29.2922 59.2429 29.4181C59.1262 29.54 58.9147 29.644 58.512 29.644V30.644C59.08 30.644 59.5965 30.4946 59.9651 30.1099C60.3298 29.7291 60.468 29.2025 60.468 28.624H59.468ZM69.5566 29.456L69.3097 29.8908L69.3138 29.8931L69.5566 29.456ZM67.5406 27.408L67.1 27.6444L67.1023 27.6485L67.5406 27.408ZM67.2366 21.968L66.7705 21.7871L66.7682 21.7932L67.2366 21.968ZM68.4046 20.128L68.0511 19.7744L68.0474 19.7782L68.4046 20.128ZM70.2286 18.96L70.4058 19.4276L70.4119 19.4252L70.2286 18.96ZM75.5566 19.264L75.3115 19.6998L75.3138 19.7011L75.5566 19.264ZM77.5726 21.296L77.1343 21.5366L77.1355 21.5388L77.5726 21.296ZM77.8766 26.736L77.4105 26.5551L77.4082 26.5612L77.8766 26.736ZM76.7086 28.592L76.3514 28.2421L76.3514 28.2422L76.7086 28.592ZM74.9006 29.776L75.0778 30.2436L75.0839 30.2412L74.9006 29.776ZM74.0046 27.312L73.7247 26.8977L73.7247 26.8977L74.0046 27.312ZM74.9166 26.16L74.4565 25.9642L74.4565 25.9642L74.9166 26.16ZM74.5326 21.888L74.1422 22.2003L74.1422 22.2003L74.5326 21.888ZM71.1246 21.408L71.3967 21.8275L71.3994 21.8257L71.1246 21.408ZM70.2126 22.544L70.6712 22.7434L70.6727 22.7398L70.2126 22.544ZM70.5966 26.832L70.2035 27.1409L70.2062 27.1443L70.5966 26.832ZM72.5646 29.676C71.495 29.676 70.5784 29.4517 69.7994 29.0189L69.3138 29.8931C70.2629 30.4203 71.3516 30.676 72.5646 30.676V29.676ZM69.8035 29.0212C69.0205 28.5765 68.4146 27.9612 67.979 27.1675L67.1023 27.6485C67.6267 28.6041 68.3648 29.3542 69.3097 29.8908L69.8035 29.0212ZM67.9812 27.1716C67.5571 26.3812 67.3366 25.4463 67.3366 24.352H66.3366C66.3366 25.583 66.5855 26.6855 67.1 27.6444L67.9812 27.1716ZM67.3366 24.352C67.3366 23.5284 67.4621 22.794 67.7051 22.1428L66.7682 21.7932C66.4778 22.5713 66.3366 23.4263 66.3366 24.352H67.3366ZM67.7028 22.1489C67.9573 21.4929 68.3111 20.9381 68.7619 20.4778L68.0474 19.7782C67.4954 20.3419 67.0706 21.0138 66.7705 21.7871L67.7028 22.1489ZM68.7582 20.4816C69.2181 20.0216 69.7653 19.6702 70.4057 19.4276L70.0515 18.4924C69.284 18.7832 68.6151 19.2104 68.0511 19.7744L68.7582 20.4816ZM70.4119 19.4252C71.0505 19.1736 71.7661 19.044 72.5646 19.044V18.044C71.6565 18.044 70.8147 18.1917 70.0454 18.4948L70.4119 19.4252ZM72.5646 19.044C73.6344 19.044 74.5446 19.2684 75.3115 19.6998L75.8018 18.8282C74.862 18.2996 73.7775 18.044 72.5646 18.044V19.044ZM75.3138 19.7011C76.0946 20.1348 76.6992 20.7437 77.1343 21.5365L78.011 21.0555C77.4861 20.099 76.7467 19.3531 75.7994 18.8269L75.3138 19.7011ZM77.1355 21.5388C77.5672 22.3158 77.7926 23.2477 77.7926 24.352H78.7926C78.7926 23.1096 78.5381 22.0042 78.0097 21.0532L77.1355 21.5388ZM77.7926 24.352C77.7926 25.1734 77.6625 25.9057 77.4105 26.5551L78.3428 26.9169C78.6454 26.137 78.7926 25.2799 78.7926 24.352H77.7926ZM77.4082 26.5612C77.1649 27.2132 76.8124 27.7715 76.3514 28.2421L77.0658 28.9419C77.6288 28.3672 78.055 27.6881 78.3451 26.9108L77.4082 26.5612ZM76.3514 28.2422C75.902 28.7011 75.3596 29.0578 74.7174 29.3108L75.0839 30.2412C75.8496 29.9396 76.5126 29.5069 77.0659 28.9418L76.3514 28.2422ZM74.7235 29.3084C74.0831 29.551 73.3655 29.676 72.5646 29.676V30.676C73.4705 30.676 74.3101 30.5343 75.0777 30.2436L74.7235 29.3084ZM72.5646 28.212C73.2107 28.212 73.7928 28.0586 74.2846 27.7263L73.7247 26.8977C73.4272 27.0987 73.0492 27.212 72.5646 27.212V28.212ZM74.2846 27.7263C74.7701 27.3982 75.1312 26.9327 75.3767 26.3558L74.4565 25.9642C74.2754 26.39 74.0285 26.6924 73.7247 26.8977L74.2846 27.7263ZM75.3767 26.3558C75.6229 25.7773 75.7366 25.1045 75.7366 24.352H74.7366C74.7366 25.0075 74.6371 25.54 74.4565 25.9642L75.3767 26.3558ZM75.7366 24.352C75.7366 23.2277 75.4872 22.2808 74.9231 21.5757L74.1422 22.2003C74.5167 22.6685 74.7366 23.3643 74.7366 24.352H75.7366ZM74.9231 21.5757C74.3465 20.8549 73.5382 20.508 72.5646 20.508V21.508C73.2764 21.508 73.7801 21.7477 74.1422 22.2003L74.9231 21.5757ZM72.5646 20.508C71.9267 20.508 71.348 20.6625 70.8498 20.9903L71.3994 21.8257C71.7119 21.6201 72.0932 21.508 72.5646 21.508V20.508ZM70.8525 20.9885C70.3617 21.3069 69.9985 21.7702 69.7525 22.3482L70.6727 22.7398C70.8534 22.3152 71.0982 22.0211 71.3967 21.8275L70.8525 20.9885ZM69.7541 22.3446C69.5059 22.9155 69.3926 23.5905 69.3926 24.352H70.3926C70.3926 23.6841 70.4927 23.1538 70.6712 22.7434L69.7541 22.3446ZM69.3926 24.352C69.3926 25.477 69.6424 26.4268 70.2035 27.1409L70.9898 26.5231C70.6122 26.0426 70.3926 25.339 70.3926 24.352H69.3926ZM70.2062 27.1443C70.7828 27.8651 71.591 28.212 72.5646 28.212V27.212C71.8529 27.212 71.3491 26.9723 70.9871 26.5197L70.2062 27.1443ZM83.4229 29.456L83.176 29.8908L83.1801 29.8931L83.4229 29.456ZM81.4069 27.408L80.9663 27.6444L80.9685 27.6485L81.4069 27.408ZM81.1029 21.968L80.6367 21.7871L80.6344 21.7932L81.1029 21.968ZM82.2709 20.128L81.9173 19.7744L81.9136 19.7782L82.2709 20.128ZM84.0949 18.96L84.272 19.4276L84.2781 19.4252L84.0949 18.96ZM89.4229 19.264L89.1777 19.6998L89.1801 19.7011L89.4229 19.264ZM91.4389 21.296L91.0005 21.5366L91.0018 21.5388L91.4389 21.296ZM91.7429 26.736L91.2767 26.5551L91.2744 26.5612L91.7429 26.736ZM90.5749 28.592L90.2177 28.2421L90.2176 28.2422L90.5749 28.592ZM88.7669 29.776L88.944 30.2436L88.9501 30.2412L88.7669 29.776ZM87.8709 27.312L87.5909 26.8977L87.5909 26.8977L87.8709 27.312ZM88.7829 26.16L88.3228 25.9642L88.3228 25.9642L88.7829 26.16ZM88.3989 21.888L88.0084 22.2003L88.0084 22.2003L88.3989 21.888ZM84.9909 21.408L85.263 21.8275L85.2657 21.8257L84.9909 21.408ZM84.0789 22.544L84.5374 22.7434L84.539 22.7398L84.0789 22.544ZM84.4629 26.832L84.0697 27.1409L84.0724 27.1443L84.4629 26.832ZM86.4309 29.676C85.3612 29.676 84.4446 29.4517 83.6657 29.0189L83.1801 29.8931C84.1291 30.4203 85.2178 30.676 86.4309 30.676V29.676ZM83.6698 29.0212C82.8867 28.5765 82.2808 27.9612 81.8452 27.1675L80.9685 27.6485C81.4929 28.6041 82.231 29.3542 83.176 29.8908L83.6698 29.0212ZM81.8475 27.1716C81.4233 26.3812 81.2029 25.4463 81.2029 24.352H80.2029C80.2029 25.583 80.4518 26.6855 80.9663 27.6444L81.8475 27.1716ZM81.2029 24.352C81.2029 23.5284 81.3283 22.794 81.5713 22.1428L80.6344 21.7932C80.3441 22.5713 80.2029 23.4263 80.2029 24.352H81.2029ZM81.569 22.1489C81.8236 21.4929 82.1774 20.9381 82.6281 20.4778L81.9136 19.7782C81.3617 20.3419 80.9368 21.0138 80.6367 21.7871L81.569 22.1489ZM82.6244 20.4816C83.0844 20.0216 83.6315 19.6702 84.272 19.4276L83.9178 18.4924C83.1502 18.7832 82.4814 19.2104 81.9173 19.7744L82.6244 20.4816ZM84.2781 19.4252C84.9168 19.1736 85.6323 19.044 86.4309 19.044V18.044C85.5228 18.044 84.681 18.1917 83.9116 18.4948L84.2781 19.4252ZM86.4309 19.044C87.5007 19.044 88.4108 19.2684 89.1777 19.6998L89.668 18.8282C88.7283 18.2996 87.6437 18.044 86.4309 18.044V19.044ZM89.1801 19.7011C89.9608 20.1348 90.5654 20.7437 91.0005 21.5365L91.8772 21.0555C91.3523 20.099 90.6129 19.3531 89.6657 18.8269L89.1801 19.7011ZM91.0018 21.5388C91.4334 22.3158 91.6589 23.2477 91.6589 24.352H92.6589C92.6589 23.1096 92.4043 22.0042 91.876 21.0532L91.0018 21.5388ZM91.6589 24.352C91.6589 25.1734 91.5288 25.9057 91.2767 26.5551L92.209 26.9169C92.5117 26.137 92.6589 25.2799 92.6589 24.352H91.6589ZM91.2744 26.5612C91.0311 27.2132 90.6787 27.7715 90.2177 28.2421L90.9321 28.9419C91.4951 28.3672 91.9213 27.6881 92.2113 26.9108L91.2744 26.5612ZM90.2176 28.2422C89.7683 28.7011 89.2259 29.0578 88.5836 29.3108L88.9501 30.2412C89.7159 29.9396 90.3788 29.5069 90.9321 28.9418L90.2176 28.2422ZM88.5898 29.3084C87.9494 29.551 87.2317 29.676 86.4309 29.676V30.676C87.3367 30.676 88.1764 30.5343 88.944 30.2436L88.5898 29.3084ZM86.4309 28.212C87.077 28.212 87.659 28.0586 88.1508 27.7263L87.5909 26.8977C87.2934 27.0987 86.9155 27.212 86.4309 27.212V28.212ZM88.1508 27.7263C88.6364 27.3982 88.9975 26.9327 89.243 26.3558L88.3228 25.9642C88.1416 26.39 87.8947 26.6924 87.5909 26.8977L88.1508 27.7263ZM89.243 26.3558C89.4891 25.7773 89.6029 25.1045 89.6029 24.352H88.6029C88.6029 25.0075 88.5033 25.54 88.3228 25.9642L89.243 26.3558ZM89.6029 24.352C89.6029 23.2277 89.3534 22.2808 88.7893 21.5757L88.0084 22.2003C88.383 22.6685 88.6029 23.3643 88.6029 24.352H89.6029ZM88.7893 21.5757C88.2127 20.8549 87.4045 20.508 86.4309 20.508V21.508C87.1426 21.508 87.6464 21.7477 88.0084 22.2003L88.7893 21.5757ZM86.4309 20.508C85.7929 20.508 85.2142 20.6625 84.7161 20.9903L85.2657 21.8257C85.5782 21.6201 85.9595 21.508 86.4309 21.508V20.508ZM84.7188 20.9885C84.228 21.3069 83.8648 21.7702 83.6188 22.3482L84.539 22.7398C84.7196 22.3152 84.9645 22.0211 85.263 21.8275L84.7188 20.9885ZM83.6203 22.3446C83.3721 22.9155 83.2589 23.5905 83.2589 24.352H84.2589C84.2589 23.6841 84.359 23.1538 84.5374 22.7434L83.6203 22.3446ZM83.2589 24.352C83.2589 25.477 83.5086 26.4268 84.0697 27.1409L84.856 26.5231C84.4785 26.0426 84.2589 25.339 84.2589 24.352H83.2589ZM84.0724 27.1443C84.649 27.8651 85.4573 28.212 86.4309 28.212V27.212C85.7191 27.212 85.2154 26.9723 84.8533 26.5197L84.0724 27.1443ZM95.2411 29.616L94.8804 29.9623L94.8875 29.9696L94.8949 29.9767L95.2411 29.616ZM95.2411 19.12L95.5947 19.4736L95.5947 19.4736L95.2411 19.12ZM104.073 20.192L103.735 20.56L103.736 20.5616L104.073 20.192ZM105.273 26.752L105.737 26.9377L105.738 26.9353L105.273 26.752ZM104.073 28.528L104.411 28.8963L104.415 28.8925L104.073 28.528ZM102.137 29.632L102.291 30.1077L102.295 30.1063L102.137 29.632ZM97.8011 27.616H97.3011V28.116H97.8011V27.616ZM100.793 27.408L100.635 26.9336L100.631 26.9349L100.793 27.408ZM101.817 26.8L101.471 26.4395L101.464 26.4464L101.817 26.8ZM102.425 25.792L101.952 25.6301L101.948 25.6414L102.425 25.792ZM101.817 21.904L101.467 22.2611L101.471 22.2646L101.817 21.904ZM97.8011 21.104V20.604H97.3011V21.104H97.8011ZM96.3931 29.5C95.9739 29.5 95.7319 29.394 95.5874 29.2553L94.8949 29.9767C95.2837 30.35 95.8096 30.5 96.3931 30.5V29.5ZM95.6018 29.2697C95.4613 29.1234 95.3571 28.885 95.3571 28.48H94.3571C94.3571 29.0563 94.5089 29.5753 94.8804 29.9623L95.6018 29.2697ZM95.3571 28.48V20.24H94.3571V28.48H95.3571ZM95.3571 20.24C95.3571 19.8336 95.4619 19.6064 95.5947 19.4736L94.8876 18.7664C94.5084 19.1456 94.3571 19.6651 94.3571 20.24H95.3571ZM95.5947 19.4736C95.7399 19.3284 95.9792 19.22 96.3931 19.22V18.22C95.8044 18.22 95.2757 18.3783 94.8876 18.7664L95.5947 19.4736ZM96.3931 19.22H99.5291V18.22H96.3931V19.22ZM99.5291 19.22C101.411 19.22 102.789 19.6898 103.735 20.56L104.412 19.824C103.224 18.7315 101.572 18.22 99.5291 18.22V19.22ZM103.736 20.5616C104.687 21.4271 105.189 22.6659 105.189 24.352H106.189C106.189 22.4541 105.614 20.9196 104.41 19.8224L103.736 20.5616ZM105.189 24.352C105.189 25.1966 105.058 25.9328 104.808 26.5687L105.738 26.9353C106.042 26.1632 106.189 25.2994 106.189 24.352H105.189ZM104.809 26.5663C104.558 27.1947 104.198 27.7249 103.731 28.1635L104.415 28.8925C104.993 28.3498 105.434 27.6959 105.737 26.9377L104.809 26.5663ZM103.735 28.1597C103.271 28.5858 102.69 28.9208 101.979 29.1577L102.295 30.1063C103.121 29.8312 103.83 29.4302 104.411 28.8963L103.735 28.1597ZM101.983 29.1563C101.285 29.3823 100.47 29.5 99.5291 29.5V30.5C100.551 30.5 101.474 30.3724 102.291 30.1077L101.983 29.1563ZM99.5291 29.5H96.3931V30.5H99.5291V29.5ZM97.8011 28.116H99.3371V27.116H97.8011V28.116ZM99.3371 28.116C99.941 28.116 100.484 28.0422 100.955 27.8811L100.631 26.9349C100.292 27.0511 99.8639 27.116 99.3371 27.116V28.116ZM100.951 27.8823C101.429 27.7231 101.841 27.4834 102.171 27.1536L101.464 26.4464C101.26 26.6499 100.989 26.8155 100.635 26.9337L100.951 27.8823ZM102.164 27.1604C102.507 26.8299 102.751 26.4191 102.902 25.9426L101.948 25.6414C101.843 25.9756 101.681 26.2368 101.471 26.4396L102.164 27.1604ZM102.898 25.9538C103.059 25.4836 103.133 24.9464 103.133 24.352H102.133C102.133 24.867 102.069 25.2897 101.952 25.6302L102.898 25.9538ZM103.133 24.352C103.133 23.1708 102.844 22.1971 102.164 21.5434L101.471 22.2646C101.878 22.6562 102.133 23.3146 102.133 24.352H103.133ZM102.167 21.547C101.494 20.8874 100.518 20.604 99.3371 20.604V21.604C100.375 21.604 101.052 21.8539 101.467 22.261L102.167 21.547ZM99.3371 20.604H97.8011V21.604H99.3371V20.604ZM97.3011 21.104V27.616H98.3011V21.104H97.3011ZM114.317 29.616L113.957 29.9623L113.964 29.9696L113.971 29.9767L114.317 29.616ZM114.317 19.12L114.671 19.4736L114.671 19.4736L114.317 19.12ZM121.757 20.704L122.111 21.0577L122.12 21.0479L121.757 20.704ZM116.749 20.992V20.492H116.249V20.992H116.749ZM116.749 23.136H116.249V23.636H116.749V23.136ZM121.389 23.424L121.036 23.7777L121.046 23.787L121.389 23.424ZM121.389 25.12L121.045 24.7569L121.036 24.7664L121.389 25.12ZM116.749 25.408V24.908H116.249V25.408H116.749ZM116.749 27.728H116.249V28.228H116.749V27.728ZM121.757 28.032L121.394 28.376L121.404 28.3856L121.757 28.032ZM115.469 29.5C115.05 29.5 114.808 29.394 114.664 29.2553L113.971 29.9767C114.36 30.35 114.886 30.5 115.469 30.5V29.5ZM114.678 29.2697C114.538 29.1234 114.433 28.885 114.433 28.48H113.433C113.433 29.0563 113.585 29.5753 113.957 29.9623L114.678 29.2697ZM114.433 28.48V20.24H113.433V28.48H114.433ZM114.433 20.24C114.433 19.8336 114.538 19.6064 114.671 19.4736L113.964 18.7664C113.585 19.1456 113.433 19.6651 113.433 20.24H114.433ZM114.671 19.4736C114.816 19.3284 115.055 19.22 115.469 19.22V18.22C114.881 18.22 114.352 18.3783 113.964 18.7664L114.671 19.4736ZM115.469 19.22H120.893V18.22H115.469V19.22ZM120.893 19.22C121.2 19.22 121.339 19.2964 121.404 19.3616L122.111 18.6544C121.792 18.3356 121.354 18.22 120.893 18.22V19.22ZM121.404 19.3616C121.474 19.4316 121.545 19.564 121.545 19.84H122.545C122.545 19.3907 122.425 18.9684 122.111 18.6544L121.404 19.3616ZM121.545 19.84C121.545 20.1296 121.472 20.2781 121.394 20.3601L122.12 21.0479C122.427 20.7246 122.545 20.2971 122.545 19.84H121.545ZM121.404 20.3504C121.339 20.4156 121.2 20.492 120.893 20.492V21.492C121.354 21.492 121.792 21.3764 122.111 21.0576L121.404 20.3504ZM120.893 20.492H116.749V21.492H120.893V20.492ZM116.249 20.992V23.136H117.249V20.992H116.249ZM116.749 23.636H120.541V22.636H116.749V23.636ZM120.541 23.636C120.833 23.636 120.968 23.71 121.036 23.7776L121.743 23.0704C121.426 22.754 120.997 22.636 120.541 22.636V23.636ZM121.046 23.787C121.118 23.8559 121.193 23.9878 121.193 24.272H122.193C122.193 23.8096 122.066 23.3761 121.733 23.061L121.046 23.787ZM121.193 24.272C121.193 24.5562 121.118 24.6881 121.046 24.757L121.733 25.483C122.066 25.1679 122.193 24.7344 122.193 24.272H121.193ZM121.036 24.7664C120.968 24.834 120.833 24.908 120.541 24.908V25.908C120.997 25.908 121.426 25.79 121.743 25.4736L121.036 24.7664ZM120.541 24.908H116.749V25.908H120.541V24.908ZM116.249 25.408V27.728H117.249V25.408H116.249ZM116.749 28.228H120.893V27.228H116.749V28.228ZM120.893 28.228C121.193 28.228 121.328 28.3058 121.394 28.3759L122.12 27.6881C121.803 27.3529 121.362 27.228 120.893 27.228V28.228ZM121.404 28.3856C121.474 28.4556 121.545 28.588 121.545 28.864H122.545C122.545 28.4147 122.425 27.9924 122.111 27.6784L121.404 28.3856ZM121.545 28.864C121.545 29.1555 121.471 29.2909 121.404 29.3584L122.111 30.0656C122.427 29.7491 122.545 29.3191 122.545 28.864H121.545ZM121.404 29.3584C121.339 29.4236 121.2 29.5 120.893 29.5V30.5C121.354 30.5 121.792 30.3844 122.111 30.0656L121.404 29.3584ZM120.893 29.5H115.469V30.5H120.893V29.5ZM124.802 29.84L125.121 29.4545L125.121 29.4545L124.802 29.84ZM124.37 29.072L123.873 29.1234L123.874 29.1319L123.875 29.1403L124.37 29.072ZM124.69 28.128L125.087 28.4322L125.089 28.4298L124.69 28.128ZM128.082 23.648H128.582V22.1593L127.684 23.3462L128.082 23.648ZM128.082 24.976L127.683 25.2772L128.582 26.4687V24.976H128.082ZM124.786 20.608L124.385 20.9059L124.387 20.9092L124.786 20.608ZM124.466 19.648L123.971 19.5797L123.97 19.5881L123.969 19.5966L124.466 19.648ZM124.898 18.88L125.217 19.2655L125.217 19.2655L124.898 18.88ZM127.346 19.52L126.938 19.8094L126.94 19.8121L127.346 19.52ZM129.73 22.832V23.332H130.706L130.136 22.5399L129.73 22.832ZM128.77 22.832L128.365 22.5386L127.79 23.332H128.77V22.832ZM131.17 19.52L131.575 19.8135L131.582 19.8033L131.17 19.52ZM131.874 18.8L132.129 19.2305L132.136 19.2263L132.143 19.2218L131.874 18.8ZM133.634 18.88L133.316 19.2656L133.326 19.2738L133.634 18.88ZM134.05 19.632L133.553 19.6834L133.554 19.6919L133.555 19.7003L134.05 19.632ZM133.73 20.608L134.129 20.9101L134.13 20.908L133.73 20.608ZM130.418 24.976H129.918V26.463L130.817 25.2781L130.418 24.976ZM130.418 23.648L130.817 23.3462L129.918 22.1593V23.648H130.418ZM133.81 28.128L133.411 28.4299L133.42 28.4403L133.81 28.128ZM134.13 29.072L133.635 29.0037L133.634 29.0121L133.633 29.0206L134.13 29.072ZM133.714 29.84L133.396 29.4545L133.396 29.4545L133.714 29.84ZM131.97 29.936L131.702 30.3578L131.709 30.3623L131.716 30.3665L131.97 29.936ZM131.25 29.2L131.656 28.9082L131.655 28.907L131.25 29.2ZM128.786 25.792V25.292H127.808L128.381 26.085L128.786 25.792ZM129.714 25.792L130.12 26.0837L130.689 25.292H129.714V25.792ZM127.266 29.2L127.672 29.4918L127.672 29.4917L127.266 29.2ZM126.546 29.936L126.801 30.3665L126.808 30.3623L126.815 30.3578L126.546 29.936ZM125.73 29.644C125.452 29.644 125.261 29.5707 125.121 29.4545L124.484 30.2255C124.834 30.5146 125.262 30.644 125.73 30.644V29.644ZM125.121 29.4545C124.97 29.33 124.891 29.1863 124.866 29.0037L123.875 29.1403C123.935 29.5764 124.144 29.9447 124.484 30.2255L125.121 29.4545ZM124.868 29.0206C124.852 28.8725 124.896 28.682 125.087 28.4322L124.293 27.8238C123.994 28.214 123.824 28.6528 123.873 29.1234L124.868 29.0206ZM125.089 28.4298L128.481 23.9498L127.684 23.3462L124.292 27.8262L125.089 28.4298ZM127.582 23.648V24.976H128.582V23.648H127.582ZM128.481 24.6748L125.185 20.3068L124.387 20.9092L127.683 25.2772L128.481 24.6748ZM125.188 20.3101C124.992 20.0466 124.948 19.8486 124.964 19.6994L123.969 19.5966C123.92 20.066 124.09 20.5081 124.385 20.9059L125.188 20.3101ZM124.962 19.7163C124.987 19.5337 125.066 19.39 125.217 19.2655L124.58 18.4945C124.24 18.7753 124.031 19.1436 123.971 19.5797L124.962 19.7163ZM125.217 19.2655C125.357 19.1493 125.548 19.076 125.826 19.076V18.076C125.358 18.076 124.93 18.2054 124.58 18.4945L125.217 19.2655ZM125.826 19.076C126.052 19.076 126.228 19.1292 126.374 19.2218L126.911 18.3782C126.587 18.1722 126.22 18.076 125.826 18.076V19.076ZM126.374 19.2218C126.535 19.3244 126.726 19.5094 126.938 19.8094L127.754 19.2306C127.498 18.8693 127.219 18.5743 126.911 18.3782L126.374 19.2218ZM126.94 19.8121L129.324 23.1241L130.136 22.5399L127.752 19.2279L126.94 19.8121ZM129.73 22.332H128.77V23.332H129.73V22.332ZM129.175 23.1254L131.575 19.8134L130.765 19.2266L128.365 22.5386L129.175 23.1254ZM131.582 19.8033C131.795 19.4936 131.981 19.3179 132.129 19.2305L131.62 18.3695C131.299 18.5594 131.015 18.8637 130.758 19.2367L131.582 19.8033ZM132.143 19.2218C132.288 19.1292 132.465 19.076 132.69 19.076V18.076C132.297 18.076 131.93 18.1722 131.606 18.3782L132.143 19.2218ZM132.69 19.076C132.983 19.076 133.178 19.1513 133.316 19.2655L133.953 18.4945C133.6 18.2033 133.166 18.076 132.69 18.076V19.076ZM133.326 19.2738C133.465 19.3822 133.535 19.5094 133.553 19.6834L134.548 19.5806C134.502 19.1359 134.294 18.7618 133.942 18.4862L133.326 19.2738ZM133.555 19.7003C133.574 19.8372 133.537 20.0326 133.33 20.308L134.13 20.908C134.436 20.5007 134.612 20.0454 134.546 19.5637L133.555 19.7003ZM133.332 20.3059L130.02 24.6739L130.817 25.2781L134.129 20.9101L133.332 20.3059ZM130.918 24.976V23.648H129.918V24.976H130.918ZM130.02 23.9498L133.412 28.4298L134.209 27.8262L130.817 23.3462L130.02 23.9498ZM133.42 28.4403C133.618 28.6883 133.654 28.8691 133.635 29.0037L134.626 29.1403C134.692 28.6562 134.514 28.2077 134.201 27.8157L133.42 28.4403ZM133.633 29.0206C133.615 29.196 133.543 29.3332 133.396 29.4545L134.033 30.2255C134.377 29.9414 134.582 29.5666 134.628 29.1234L133.633 29.0206ZM133.396 29.4545C133.258 29.5687 133.063 29.644 132.77 29.644V30.644C133.246 30.644 133.68 30.5167 134.033 30.2255L133.396 29.4545ZM132.77 29.644C132.552 29.644 132.375 29.5944 132.225 29.5055L131.716 30.3665C132.035 30.5549 132.391 30.644 132.77 30.644V29.644ZM132.239 29.5142C132.078 29.4119 131.882 29.2216 131.656 28.9082L130.844 29.4918C131.11 29.861 131.393 30.1615 131.702 30.3578L132.239 29.5142ZM131.655 28.907L129.191 25.499L128.381 26.085L130.845 29.493L131.655 28.907ZM128.786 26.292H129.714V25.292H128.786V26.292ZM129.308 25.5003L126.86 28.9083L127.672 29.4917L130.12 26.0837L129.308 25.5003ZM126.86 28.9082C126.635 29.2216 126.439 29.4119 126.278 29.5142L126.815 30.3578C127.123 30.1615 127.407 29.861 127.672 29.4918L126.86 28.9082ZM126.292 29.5055C126.144 29.5928 125.962 29.644 125.73 29.644V30.644C126.117 30.644 126.479 30.5565 126.801 30.3665L126.292 29.5055ZM137.206 29.76L136.845 30.1063L136.853 30.1136L137.206 29.76ZM137.206 19.104L136.86 18.7432L136.853 18.7504L137.206 19.104ZM145.206 19.712L144.861 20.0738L144.867 20.0792L145.206 19.712ZM145.206 25.136L145.548 25.5006L145.548 25.5004L145.206 25.136ZM139.766 26.112V25.612H139.266V26.112H139.766ZM139.398 29.76L139.759 30.106L139.766 30.0985L139.398 29.76ZM139.766 23.856H139.266V24.356H139.766V23.856ZM143.014 23.504L143.323 23.8973L143.331 23.8904L143.014 23.504ZM143.014 21.328L143.323 20.9348L143.323 20.9348L143.014 21.328ZM139.766 20.976V20.476H139.266V20.976H139.766ZM138.294 29.644C137.916 29.644 137.696 29.5432 137.56 29.4064L136.853 30.1136C137.228 30.4888 137.733 30.644 138.294 30.644V29.644ZM137.567 29.4137C137.423 29.2635 137.322 29.0326 137.322 28.656H136.322C136.322 29.2181 136.478 29.7232 136.845 30.1063L137.567 29.4137ZM137.322 28.656V20.208H136.322V28.656H137.322ZM137.322 20.208C137.322 19.8159 137.425 19.5923 137.56 19.4576L136.853 18.7504C136.475 19.1277 136.322 19.6401 136.322 20.208H137.322ZM137.552 19.4647C137.703 19.3204 137.934 19.22 138.31 19.22V18.22C137.748 18.22 137.243 18.3756 136.86 18.7433L137.552 19.4647ZM138.31 19.22H142.246V18.22H138.31V19.22ZM142.246 19.22C143.442 19.22 144.288 19.5276 144.861 20.0738L145.551 19.3502C144.737 18.5737 143.61 18.22 142.246 18.22V19.22ZM144.867 20.0792C145.448 20.6163 145.762 21.373 145.762 22.416H146.762C146.762 21.155 146.372 20.109 145.545 19.3448L144.867 20.0792ZM145.762 22.416C145.762 23.4588 145.448 24.2228 144.864 24.7716L145.548 25.5004C146.372 24.7265 146.762 23.6772 146.762 22.416H145.762ZM144.864 24.7714C144.292 25.3086 143.444 25.612 142.246 25.612V26.612C143.608 26.612 144.734 26.2647 145.548 25.5006L144.864 24.7714ZM142.246 25.612H139.766V26.612H142.246V25.612ZM139.266 26.112V28.656H140.266V26.112H139.266ZM139.266 28.656C139.266 29.0381 139.168 29.2718 139.03 29.4215L139.766 30.0985C140.119 29.7149 140.266 29.2126 140.266 28.656H139.266ZM139.037 29.414C138.918 29.5387 138.702 29.644 138.294 29.644V30.644C138.867 30.644 139.388 30.4933 139.759 30.106L139.037 29.414ZM139.766 24.356H141.734V23.356H139.766V24.356ZM141.734 24.356C142.351 24.356 142.904 24.2266 143.323 23.8972L142.705 23.1108C142.527 23.2508 142.227 23.356 141.734 23.356V24.356ZM143.331 23.8904C143.773 23.5275 143.962 23.006 143.962 22.416H142.962C142.962 22.786 142.852 22.9898 142.697 23.1176L143.331 23.8904ZM143.962 22.416C143.962 21.8206 143.776 21.2908 143.323 20.9348L142.705 21.7212C142.85 21.8345 142.962 22.0301 142.962 22.416H143.962ZM143.323 20.9348C142.904 20.6054 142.351 20.476 141.734 20.476V21.476C142.227 21.476 142.527 21.5812 142.705 21.7212L143.323 20.9348ZM141.734 20.476H139.766V21.476H141.734V20.476ZM139.266 20.976V23.856H140.266V20.976H139.266ZM148.979 29.76L148.618 30.1063L148.625 30.1136L148.979 29.76ZM148.979 19.104L148.632 18.7432L148.625 18.7504L148.979 19.104ZM156.979 19.664L156.643 20.0343L156.649 20.0396L156.979 19.664ZM157.555 24.128L157.126 23.8707L157.124 23.8733L157.555 24.128ZM156.195 25.344L156.408 25.796L156.412 25.7944L156.195 25.344ZM154.019 25.76L153.562 25.5569L153.249 26.26H154.019V25.76ZM154.147 25.472V24.972H153.822L153.69 25.2689L154.147 25.472ZM156.131 25.808L155.862 26.2299L155.871 26.2356L156.131 25.808ZM157.011 26.8L156.568 27.0321L156.574 27.0428L157.011 26.8ZM157.811 28.24L158.248 27.9985L158.248 27.9972L157.811 28.24ZM158.051 29.152L158.55 29.1705L158.55 29.1698L158.051 29.152ZM157.699 29.872L158.022 30.253L158.024 30.2516L157.699 29.872ZM155.731 29.888L155.453 30.3041L155.461 30.3091L155.731 29.888ZM155.043 29.088L154.604 29.3273L154.606 29.3319L155.043 29.088ZM153.587 26.416L154.026 26.1768L154.026 26.1766L153.587 26.416ZM153.091 25.936L152.867 26.3832L152.882 26.3905L152.897 26.3968L153.091 25.936ZM151.539 25.792V25.292H151.039V25.792H151.539ZM151.171 29.76L151.532 30.106L151.539 30.0985L151.171 29.76ZM151.539 23.712H151.039V24.212H151.539V23.712ZM154.787 23.376L154.487 22.976L154.487 22.976L154.787 23.376ZM154.787 21.328L154.478 21.7213L154.487 21.728L154.787 21.328ZM151.539 20.976V20.476H151.039V20.976H151.539ZM150.067 29.644C149.689 29.644 149.469 29.5432 149.332 29.4064L148.625 30.1136C149 30.4888 149.506 30.644 150.067 30.644V29.644ZM149.339 29.4137C149.195 29.2635 149.095 29.0326 149.095 28.656H148.095C148.095 29.2181 148.25 29.7232 148.618 30.1063L149.339 29.4137ZM149.095 28.656V20.208H148.095V28.656H149.095ZM149.095 20.208C149.095 19.8159 149.197 19.5923 149.332 19.4576L148.625 18.7504C148.248 19.1277 148.095 19.6401 148.095 20.208H149.095ZM149.325 19.4647C149.475 19.3204 149.706 19.22 150.083 19.22V18.22C149.521 18.22 149.015 18.3756 148.632 18.7433L149.325 19.4647ZM150.083 19.22H154.019V18.22H150.083V19.22ZM154.019 19.22C155.22 19.22 156.07 19.5149 156.643 20.0342L157.315 19.2938C156.5 18.5544 155.377 18.22 154.019 18.22V19.22ZM156.649 20.0396C157.225 20.5457 157.535 21.2615 157.535 22.256H158.535C158.535 21.0319 158.141 20.0196 157.309 19.2884L156.649 20.0396ZM157.535 22.256C157.535 22.8938 157.393 23.4261 157.126 23.8708L157.983 24.3852C158.357 23.7632 158.535 23.0475 158.535 22.256H157.535ZM157.124 23.8733C156.87 24.3034 156.495 24.6443 155.977 24.8936L156.412 25.7944C157.089 25.4677 157.621 24.9979 157.985 24.3827L157.124 23.8733ZM155.981 24.892C155.479 25.1291 154.832 25.26 154.019 25.26V26.26C154.933 26.26 155.737 26.1136 156.408 25.796L155.981 24.892ZM154.476 25.9631L154.604 25.6751L153.69 25.2689L153.562 25.5569L154.476 25.9631ZM154.147 25.972H154.915V24.972H154.147V25.972ZM154.915 25.972C155.288 25.972 155.598 26.0619 155.862 26.2298L156.399 25.3862C155.959 25.1061 155.459 24.972 154.915 24.972V25.972ZM155.871 26.2356C156.129 26.392 156.366 26.6463 156.568 27.032L157.454 26.568C157.186 26.0577 156.836 25.6507 156.39 25.3804L155.871 26.2356ZM156.574 27.0428L157.374 28.4828L158.248 27.9972L157.448 26.5572L156.574 27.0428ZM157.373 28.4815C157.508 28.7262 157.558 28.9413 157.551 29.1342L158.55 29.1698C158.565 28.7654 158.455 28.3725 158.248 27.9985L157.373 28.4815ZM157.551 29.1335C157.546 29.2784 157.494 29.3887 157.373 29.4924L158.024 30.2516C158.351 29.9713 158.534 29.6016 158.55 29.1705L157.551 29.1335ZM157.375 29.491C157.287 29.5658 157.108 29.644 156.755 29.644V30.644C157.233 30.644 157.684 30.5409 158.022 30.253L157.375 29.491ZM156.755 29.644C156.405 29.644 156.165 29.5722 156 29.4669L155.461 30.3091C155.83 30.5451 156.273 30.644 156.755 30.644V29.644ZM156.008 29.472C155.837 29.3579 155.656 29.1607 155.479 28.8441L154.606 29.3319C154.835 29.7406 155.112 30.0768 155.453 30.304L156.008 29.472ZM155.482 28.8488L154.026 26.1768L153.148 26.6552L154.604 29.3272L155.482 28.8488ZM154.026 26.1766C153.855 25.8646 153.613 25.6133 153.285 25.4752L152.897 26.3968C152.974 26.4293 153.062 26.498 153.148 26.6554L154.026 26.1766ZM153.314 25.4888C153.041 25.352 152.737 25.292 152.419 25.292V26.292C152.612 26.292 152.757 26.328 152.867 26.3832L153.314 25.4888ZM152.419 25.292H151.539V26.292H152.419V25.292ZM151.039 25.792V28.656H152.039V25.792H151.039ZM151.039 28.656C151.039 29.0381 150.94 29.2718 150.803 29.4215L151.539 30.0985C151.892 29.7149 152.039 29.2126 152.039 28.656H151.039ZM150.81 29.414C150.69 29.5387 150.475 29.644 150.067 29.644V30.644C150.64 30.644 151.16 30.4933 151.532 30.106L150.81 29.414ZM151.539 24.212H153.491V23.212H151.539V24.212ZM153.491 24.212C154.111 24.212 154.667 24.0907 155.087 23.776L154.487 22.976C154.309 23.1093 154 23.212 153.491 23.212V24.212ZM155.087 23.776C155.543 23.4336 155.735 22.9179 155.735 22.336H154.735C154.735 22.6928 154.627 22.8704 154.487 22.976L155.087 23.776ZM155.735 22.336C155.735 21.766 155.537 21.2658 155.087 20.928L154.487 21.728C154.634 21.8382 154.735 22.01 154.735 22.336H155.735ZM155.096 20.9348C154.675 20.6043 154.116 20.476 153.491 20.476V21.476C153.996 21.476 154.301 21.5823 154.478 21.7212L155.096 20.9348ZM153.491 20.476H151.539V21.476H153.491V20.476ZM151.039 20.976V23.712H152.039V20.976H151.039ZM161.235 29.616L160.875 29.9623L160.882 29.9696L160.889 29.9767L161.235 29.616ZM161.235 19.12L161.589 19.4736L161.589 19.4736L161.235 19.12ZM168.675 20.704L169.029 21.0577L169.038 21.0479L168.675 20.704ZM163.667 20.992V20.492H163.167V20.992H163.667ZM163.667 23.136H163.167V23.636H163.667V23.136ZM168.307 23.424L167.954 23.7777L167.964 23.787L168.307 23.424ZM168.307 25.12L167.964 24.7569L167.954 24.7664L168.307 25.12ZM163.667 25.408V24.908H163.167V25.408H163.667ZM163.667 27.728H163.167V28.228H163.667V27.728ZM168.675 28.032L168.312 28.376L168.322 28.3856L168.675 28.032ZM162.387 29.5C161.968 29.5 161.726 29.394 161.582 29.2553L160.889 29.9767C161.278 30.35 161.804 30.5 162.387 30.5V29.5ZM161.596 29.2697C161.456 29.1234 161.351 28.885 161.351 28.48H160.351C160.351 29.0563 160.503 29.5753 160.875 29.9623L161.596 29.2697ZM161.351 28.48V20.24H160.351V28.48H161.351ZM161.351 20.24C161.351 19.8336 161.456 19.6064 161.589 19.4736L160.882 18.7664C160.503 19.1456 160.351 19.6651 160.351 20.24H161.351ZM161.589 19.4736C161.734 19.3284 161.974 19.22 162.387 19.22V18.22C161.799 18.22 161.27 18.3783 160.882 18.7664L161.589 19.4736ZM162.387 19.22H167.811V18.22H162.387V19.22ZM167.811 19.22C168.118 19.22 168.257 19.2964 168.322 19.3616L169.029 18.6544C168.71 18.3356 168.273 18.22 167.811 18.22V19.22ZM168.322 19.3616C168.392 19.4316 168.464 19.564 168.464 19.84H169.464C169.464 19.3907 169.343 18.9684 169.029 18.6544L168.322 19.3616ZM168.464 19.84C168.464 20.1296 168.39 20.2781 168.313 20.3601L169.038 21.0479C169.345 20.7246 169.464 20.2971 169.464 19.84H168.464ZM168.322 20.3504C168.257 20.4156 168.118 20.492 167.811 20.492V21.492C168.273 21.492 168.71 21.3764 169.029 21.0576L168.322 20.3504ZM167.811 20.492H163.667V21.492H167.811V20.492ZM163.167 20.992V23.136H164.167V20.992H163.167ZM163.667 23.636H167.459V22.636H163.667V23.636ZM167.459 23.636C167.751 23.636 167.886 23.71 167.954 23.7776L168.661 23.0704C168.345 22.754 167.915 22.636 167.459 22.636V23.636ZM167.964 23.787C168.036 23.8559 168.111 23.9878 168.111 24.272H169.111C169.111 23.8096 168.984 23.3761 168.651 23.061L167.964 23.787ZM168.111 24.272C168.111 24.5562 168.036 24.6881 167.964 24.757L168.651 25.483C168.984 25.1679 169.111 24.7344 169.111 24.272H168.111ZM167.954 24.7664C167.886 24.834 167.751 24.908 167.459 24.908V25.908C167.915 25.908 168.345 25.79 168.661 25.4736L167.954 24.7664ZM167.459 24.908H163.667V25.908H167.459V24.908ZM163.167 25.408V27.728H164.167V25.408H163.167ZM163.667 28.228H167.811V27.228H163.667V28.228ZM167.811 28.228C168.111 28.228 168.246 28.3058 168.313 28.3759L169.038 27.6881C168.721 27.3529 168.28 27.228 167.811 27.228V28.228ZM168.322 28.3856C168.392 28.4556 168.464 28.588 168.464 28.864H169.464C169.464 28.4147 169.343 27.9924 169.029 27.6784L168.322 28.3856ZM168.464 28.864C168.464 29.1555 168.39 29.2909 168.322 29.3584L169.029 30.0656C169.345 29.7491 169.464 29.3191 169.464 28.864H168.464ZM168.322 29.3584C168.257 29.4236 168.118 29.5 167.811 29.5V30.5C168.273 30.5 168.71 30.3844 169.029 30.0656L168.322 29.3584ZM167.811 29.5H162.387V30.5H167.811V29.5ZM174.331 30.08L174.399 29.5845L174.389 29.5833L174.331 30.08ZM171.899 29.408L172.117 28.9579L172.116 28.9575L171.899 29.408ZM171.291 28.864L170.844 29.0876L170.848 29.096L171.291 28.864ZM171.163 28.128L171.66 28.19L171.66 28.19L171.163 28.128ZM171.435 27.456L171.83 27.7631L171.838 27.7526L171.435 27.456ZM172.027 27.056L172.154 27.5398L172.163 27.5373L172.173 27.5343L172.027 27.056ZM172.859 27.152L173.073 26.7L173.064 26.6957L172.859 27.152ZM174.235 27.6L174.337 27.1105L174.337 27.1105L174.235 27.6ZM177.147 27.488L177.421 27.9065L177.425 27.904L177.147 27.488ZM177.275 26.192L176.968 26.5868L176.979 26.5945L177.275 26.192ZM176.235 25.808L176.131 26.297L176.131 26.2971L176.235 25.808ZM174.363 25.408L174.468 24.919L174.465 24.9185L174.363 25.408ZM172.075 24.288L172.44 23.9455L172.44 23.9455L172.075 24.288ZM171.659 20.72L171.214 20.4923L171.212 20.4964L171.659 20.72ZM172.635 19.552L172.335 19.152L172.331 19.1557L172.635 19.552ZM174.139 18.816L174.281 19.2954L174.287 19.2937L174.139 18.816ZM177.771 18.736L177.661 19.2238L177.672 19.2259L177.771 18.736ZM179.259 19.28L179.005 19.7107L179.017 19.7173L179.028 19.7233L179.259 19.28ZM179.787 19.808L179.336 20.023L179.336 20.023L179.787 19.808ZM179.915 20.512L180.413 20.5573L180.413 20.5553L179.915 20.512ZM179.659 21.136L179.273 20.8181L179.268 20.8251L179.262 20.8323L179.659 21.136ZM179.083 21.504L179.194 21.9916L179.202 21.9898L179.21 21.9878L179.083 21.504ZM178.235 21.376L178.031 21.8324L178.042 21.8371L178.235 21.376ZM177.179 21.072L177.084 21.5628L177.092 21.5643L177.099 21.5656L177.179 21.072ZM175.051 21.104L175.198 21.5819L175.207 21.5793L175.215 21.5765L175.051 21.104ZM174.411 21.488L174.035 21.1587L174.029 21.1656L174.023 21.1727L174.411 21.488ZM174.475 22.656L174.145 23.0309L174.156 23.0412L174.168 23.0507L174.475 22.656ZM175.515 23.04L175.621 22.5512L175.619 22.5509L175.515 23.04ZM177.371 23.44L177.477 22.9513L177.477 22.9512L177.371 23.44ZM180.123 28.048L180.571 28.2716L180.571 28.2716L180.123 28.048ZM179.163 29.2L179.462 29.6013L179.468 29.5963L179.163 29.2ZM177.659 29.92L177.799 30.4001L177.799 30.4001L177.659 29.92ZM175.675 29.676C175.274 29.676 174.848 29.6459 174.399 29.5846L174.264 30.5754C174.753 30.6421 175.224 30.676 175.675 30.676V29.676ZM174.389 29.5833C173.955 29.5329 173.544 29.4524 173.155 29.3428L172.884 30.3052C173.327 30.4302 173.79 30.5205 174.274 30.5767L174.389 29.5833ZM173.155 29.3428C172.763 29.232 172.417 29.1032 172.117 28.9579L171.682 29.8581C172.043 30.0328 172.444 30.1813 172.884 30.3052L173.155 29.3428ZM172.116 28.9575C171.899 28.853 171.79 28.7382 171.734 28.632L170.848 29.096C171.028 29.4378 171.323 29.6856 171.682 29.8585L172.116 28.9575ZM171.739 28.6404C171.665 28.4924 171.64 28.3463 171.66 28.19L170.667 28.066C170.623 28.4217 170.683 28.7662 170.844 29.0876L171.739 28.6404ZM171.66 28.19C171.681 28.0177 171.739 27.8796 171.83 27.763L171.041 27.149C170.833 27.4164 170.71 27.7263 170.667 28.066L171.66 28.19ZM171.838 27.7526C171.919 27.6429 172.018 27.5751 172.154 27.5398L171.901 26.5722C171.546 26.6649 171.251 26.8638 171.033 27.1594L171.838 27.7526ZM172.173 27.5343C172.27 27.5048 172.42 27.5028 172.655 27.6083L173.064 26.6957C172.68 26.5238 172.276 26.4578 171.882 26.5777L172.173 27.5343ZM172.645 27.6039C173.092 27.8153 173.589 27.9761 174.133 28.0895L174.337 27.1105C173.858 27.0106 173.438 26.8727 173.073 26.7001L172.645 27.6039ZM174.133 28.0895C174.674 28.202 175.188 28.26 175.675 28.26V27.26C175.267 27.26 174.821 27.2113 174.337 27.1105L174.133 28.0895ZM175.675 28.26C176.389 28.26 177.011 28.1743 177.421 27.9065L176.874 27.0695C176.729 27.1644 176.37 27.26 175.675 27.26V28.26ZM177.425 27.904C177.813 27.6454 178.079 27.2706 178.079 26.784H177.079C177.079 26.852 177.058 26.9466 176.87 27.072L177.425 27.904ZM178.079 26.784C178.079 26.375 177.899 26.0301 177.572 25.7895L176.979 26.5945C177.057 26.6525 177.079 26.7024 177.079 26.784H178.079ZM177.582 25.7973C177.295 25.5735 176.85 25.4277 176.339 25.3189L176.131 26.2971C176.623 26.4017 176.872 26.5119 176.968 26.5867L177.582 25.7973ZM176.34 25.319L174.468 24.919L174.259 25.897L176.131 26.297L176.34 25.319ZM174.465 24.9185C173.5 24.7175 172.846 24.3783 172.44 23.9455L171.711 24.6305C172.307 25.2644 173.178 25.6719 174.261 25.8975L174.465 24.9185ZM172.44 23.9455C172.039 23.519 171.823 22.9601 171.823 22.224H170.823C170.823 23.1733 171.109 23.9904 171.711 24.6305L172.44 23.9455ZM171.823 22.224C171.823 21.7385 171.921 21.315 172.107 20.9436L171.212 20.4964C170.95 21.021 170.823 21.6002 170.823 22.224H171.823ZM172.104 20.9477C172.305 20.5562 172.582 20.2241 172.94 19.9483L172.331 19.1557C171.857 19.5199 171.483 19.9665 171.214 20.4923L172.104 20.9477ZM172.935 19.952C173.309 19.6718 173.755 19.4513 174.281 19.2954L173.997 18.3366C173.372 18.522 172.815 18.7922 172.335 19.152L172.935 19.952ZM174.287 19.2937C174.819 19.1293 175.419 19.044 176.091 19.044V18.044C175.335 18.044 174.633 18.14 173.992 18.3383L174.287 19.2937ZM176.091 19.044C176.607 19.044 177.13 19.1035 177.661 19.2237L177.882 18.2483C177.282 18.1125 176.685 18.044 176.091 18.044V19.044ZM177.672 19.2259C178.205 19.3345 178.646 19.4989 179.005 19.7107L179.513 18.8493C179.041 18.5705 178.49 18.3721 177.871 18.2461L177.672 19.2259ZM179.028 19.7233C179.189 19.8072 179.281 19.9082 179.336 20.023L180.239 19.593C180.08 19.2598 179.821 19.0088 179.491 18.8367L179.028 19.7233ZM179.336 20.023C179.405 20.1672 179.431 20.3128 179.417 20.4687L180.413 20.5553C180.443 20.2206 180.383 19.8968 180.239 19.593L179.336 20.023ZM179.417 20.4667C179.405 20.6017 179.359 20.7146 179.273 20.8181L180.045 21.4539C180.259 21.1947 180.383 20.8917 180.413 20.5573L179.417 20.4667ZM179.262 20.8323C179.199 20.9152 179.107 20.981 178.957 21.0202L179.21 21.9878C179.55 21.899 179.843 21.7195 180.057 21.4397L179.262 20.8323ZM178.973 21.0164C178.878 21.0378 178.708 21.032 178.429 20.9149L178.042 21.8371C178.424 21.9974 178.819 22.0768 179.194 21.9916L178.973 21.0164ZM178.44 20.9197C178.085 20.7604 177.69 20.6482 177.259 20.5784L177.099 21.5656C177.459 21.6238 177.768 21.7142 178.031 21.8323L178.44 20.9197ZM177.275 20.5812C176.862 20.5009 176.456 20.46 176.059 20.46V21.46C176.388 21.46 176.729 21.4938 177.084 21.5628L177.275 20.5812ZM176.059 20.46C175.627 20.46 175.232 20.5122 174.888 20.6315L175.215 21.5765C175.425 21.5038 175.702 21.46 176.059 21.46V20.46ZM174.904 20.6261C174.563 20.7312 174.26 20.9012 174.035 21.1587L174.788 21.8173C174.861 21.7335 174.985 21.6474 175.198 21.5819L174.904 20.6261ZM174.023 21.1727C173.811 21.4343 173.703 21.7435 173.703 22.08H174.703C174.703 21.9685 174.735 21.883 174.799 21.8033L174.023 21.1727ZM173.703 22.08C173.703 22.4598 173.865 22.7845 174.145 23.0309L174.806 22.2811C174.723 22.2075 174.703 22.1482 174.703 22.08H173.703ZM174.168 23.0507C174.456 23.2745 174.9 23.4203 175.411 23.5291L175.619 22.5509C175.128 22.4463 174.879 22.3361 174.782 22.2613L174.168 23.0507ZM175.41 23.5288L177.266 23.9288L177.477 22.9512L175.621 22.5512L175.41 23.5288ZM177.266 23.9287C178.247 24.1412 178.918 24.478 179.338 24.8976L180.045 24.1904C179.44 23.586 178.565 23.1868 177.477 22.9513L177.266 23.9287ZM179.338 24.8976C179.743 25.3029 179.959 25.8359 179.959 26.544H180.959C180.959 25.6095 180.664 24.8091 180.045 24.1904L179.338 24.8976ZM179.959 26.544C179.959 27.0295 179.862 27.453 179.676 27.8244L180.571 28.2716C180.833 27.747 180.959 27.1678 180.959 26.544H179.959ZM179.676 27.8244C179.488 28.2016 179.218 28.5275 178.859 28.8037L179.468 29.5963C179.941 29.2325 180.311 28.7904 180.571 28.2716L179.676 27.8244ZM178.865 28.7988C178.504 29.0669 178.059 29.283 177.52 29.4399L177.799 30.4001C178.433 30.2157 178.99 29.9518 179.462 29.6012L178.865 28.7988ZM177.52 29.4399C176.987 29.595 176.373 29.676 175.675 29.676V30.676C176.449 30.676 177.159 30.5863 177.799 30.4001L177.52 29.4399ZM185.713 30.08L185.781 29.5845L185.771 29.5833L185.713 30.08ZM183.281 29.408L183.499 28.9579L183.498 28.9575L183.281 29.408ZM182.673 28.864L182.226 29.0876L182.23 29.096L182.673 28.864ZM182.545 28.128L183.041 28.19L183.041 28.19L182.545 28.128ZM182.817 27.456L183.212 27.7631L183.22 27.7526L182.817 27.456ZM183.409 27.056L183.535 27.5398L183.545 27.5373L183.555 27.5343L183.409 27.056ZM184.241 27.152L184.455 26.7L184.446 26.6957L184.241 27.152ZM185.617 27.6L185.719 27.1105L185.719 27.1105L185.617 27.6ZM188.529 27.488L188.803 27.9065L188.807 27.904L188.529 27.488ZM188.657 26.192L188.35 26.5868L188.361 26.5945L188.657 26.192ZM187.617 25.808L187.513 26.297L187.513 26.2971L187.617 25.808ZM185.745 25.408L185.85 24.919L185.847 24.9185L185.745 25.408ZM183.457 24.288L183.822 23.9455L183.822 23.9455L183.457 24.288ZM183.041 20.72L182.596 20.4923L182.594 20.4964L183.041 20.72ZM184.017 19.552L183.717 19.152L183.712 19.1557L184.017 19.552ZM185.521 18.816L185.663 19.2954L185.669 19.2937L185.521 18.816ZM189.153 18.736L189.043 19.2238L189.053 19.2259L189.153 18.736ZM190.641 19.28L190.387 19.7107L190.398 19.7173L190.41 19.7233L190.641 19.28ZM191.169 19.808L190.718 20.023L190.718 20.023L191.169 19.808ZM191.297 20.512L191.795 20.5573L191.795 20.5553L191.297 20.512ZM191.041 21.136L190.655 20.8181L190.65 20.8251L190.644 20.8323L191.041 21.136ZM190.465 21.504L190.576 21.9916L190.584 21.9898L190.591 21.9878L190.465 21.504ZM189.617 21.376L189.413 21.8324L189.424 21.8371L189.617 21.376ZM188.561 21.072L188.466 21.5628L188.473 21.5643L188.481 21.5656L188.561 21.072ZM186.433 21.104L186.58 21.5819L186.589 21.5793L186.597 21.5765L186.433 21.104ZM185.793 21.488L185.417 21.1587L185.411 21.1656L185.405 21.1727L185.793 21.488ZM185.857 22.656L185.526 23.0309L185.538 23.0412L185.55 23.0507L185.857 22.656ZM186.897 23.04L187.003 22.5512L187.001 22.5509L186.897 23.04ZM188.753 23.44L188.859 22.9513L188.859 22.9512L188.753 23.44ZM191.505 28.048L191.952 28.2716L191.952 28.2716L191.505 28.048ZM190.545 29.2L190.844 29.6013L190.85 29.5963L190.545 29.2ZM189.041 29.92L189.181 30.4001L189.181 30.4001L189.041 29.92ZM187.057 29.676C186.655 29.676 186.23 29.6459 185.781 29.5846L185.646 30.5754C186.135 30.6421 186.606 30.676 187.057 30.676V29.676ZM185.771 29.5833C185.337 29.5329 184.926 29.4524 184.537 29.3428L184.266 30.3052C184.709 30.4302 185.172 30.5205 185.655 30.5767L185.771 29.5833ZM184.537 29.3428C184.144 29.232 183.799 29.1032 183.499 28.9579L183.063 29.8581C183.425 30.0328 183.826 30.1813 184.266 30.3052L184.537 29.3428ZM183.498 28.9575C183.281 28.853 183.172 28.7382 183.116 28.632L182.23 29.096C182.409 29.4378 182.705 29.6856 183.064 29.8585L183.498 28.9575ZM183.12 28.6404C183.046 28.4924 183.022 28.3463 183.041 28.19L182.049 28.066C182.005 28.4217 182.065 28.7662 182.226 29.0876L183.12 28.6404ZM183.041 28.19C183.063 28.0177 183.121 27.8796 183.212 27.763L182.423 27.149C182.215 27.4164 182.092 27.7263 182.049 28.066L183.041 28.19ZM183.22 27.7526C183.301 27.6429 183.4 27.5751 183.535 27.5398L183.283 26.5722C182.928 26.6649 182.633 26.8638 182.415 27.1594L183.22 27.7526ZM183.555 27.5343C183.652 27.5048 183.802 27.5028 184.037 27.6083L184.446 26.6957C184.062 26.5238 183.657 26.4578 183.264 26.5777L183.555 27.5343ZM184.027 27.6039C184.474 27.8153 184.971 27.9761 185.515 28.0895L185.719 27.1105C185.24 27.0106 184.82 26.8727 184.455 26.7001L184.027 27.6039ZM185.515 28.0895C186.055 28.202 186.57 28.26 187.057 28.26V27.26C186.649 27.26 186.203 27.2113 185.719 27.1105L185.515 28.0895ZM187.057 28.26C187.771 28.26 188.393 28.1743 188.803 27.9065L188.256 27.0695C188.111 27.1644 187.752 27.26 187.057 27.26V28.26ZM188.807 27.904C189.195 27.6454 189.461 27.2706 189.461 26.784H188.461C188.461 26.852 188.44 26.9466 188.252 27.072L188.807 27.904ZM189.461 26.784C189.461 26.375 189.28 26.0301 188.954 25.7895L188.361 26.5945C188.439 26.6525 188.461 26.7024 188.461 26.784H189.461ZM188.964 25.7973C188.676 25.5735 188.232 25.4277 187.721 25.3189L187.513 26.2971C188.005 26.4017 188.254 26.5119 188.35 26.5867L188.964 25.7973ZM187.722 25.319L185.85 24.919L185.641 25.897L187.513 26.297L187.722 25.319ZM185.847 24.9185C184.882 24.7175 184.228 24.3783 183.822 23.9455L183.093 24.6305C183.689 25.2644 184.56 25.6719 185.643 25.8975L185.847 24.9185ZM183.822 23.9455C183.421 23.519 183.205 22.9601 183.205 22.224H182.205C182.205 23.1733 182.491 23.9904 183.093 24.6305L183.822 23.9455ZM183.205 22.224C183.205 21.7385 183.303 21.315 183.488 20.9436L182.594 20.4964C182.332 21.021 182.205 21.6002 182.205 22.224H183.205ZM183.486 20.9477C183.687 20.5562 183.964 20.2241 184.322 19.9483L183.712 19.1557C183.239 19.5199 182.865 19.9665 182.596 20.4923L183.486 20.9477ZM184.317 19.952C184.691 19.6718 185.137 19.4513 185.663 19.2954L185.379 18.3366C184.753 18.522 184.197 18.7922 183.717 19.152L184.317 19.952ZM185.669 19.2937C186.201 19.1293 186.801 19.044 187.473 19.044V18.044C186.717 18.044 186.015 18.14 185.374 18.3383L185.669 19.2937ZM187.473 19.044C187.989 19.044 188.512 19.1035 189.043 19.2237L189.264 18.2483C188.664 18.1125 188.067 18.044 187.473 18.044V19.044ZM189.053 19.2259C189.587 19.3345 190.028 19.4989 190.387 19.7107L190.895 18.8493C190.422 18.5705 189.872 18.3721 189.253 18.2461L189.053 19.2259ZM190.41 19.7233C190.571 19.8072 190.663 19.9082 190.718 20.023L191.621 19.593C191.462 19.2598 191.202 19.0088 190.873 18.8367L190.41 19.7233ZM190.718 20.023C190.787 20.1672 190.813 20.3128 190.799 20.4687L191.795 20.5553C191.824 20.2206 191.765 19.8968 191.621 19.593L190.718 20.023ZM190.799 20.4667C190.787 20.6017 190.741 20.7146 190.655 20.8181L191.427 21.4539C191.641 21.1947 191.765 20.8917 191.795 20.5573L190.799 20.4667ZM190.644 20.8323C190.581 20.9152 190.489 20.981 190.339 21.0202L190.591 21.9878C190.932 21.899 191.225 21.7195 191.438 21.4397L190.644 20.8323ZM190.354 21.0164C190.26 21.0378 190.09 21.032 189.811 20.9149L189.424 21.8371C189.806 21.9974 190.201 22.0768 190.576 21.9916L190.354 21.0164ZM189.822 20.9197C189.466 20.7604 189.071 20.6482 188.641 20.5784L188.481 21.5656C188.84 21.6238 189.149 21.7142 189.413 21.8323L189.822 20.9197ZM188.657 20.5812C188.244 20.5009 187.838 20.46 187.441 20.46V21.46C187.769 21.46 188.111 21.4938 188.466 21.5628L188.657 20.5812ZM187.441 20.46C187.009 20.46 186.614 20.5122 186.27 20.6315L186.597 21.5765C186.807 21.5038 187.084 21.46 187.441 21.46V20.46ZM186.286 20.6261C185.945 20.7312 185.642 20.9012 185.417 21.1587L186.17 21.8173C186.243 21.7335 186.367 21.6474 186.58 21.5819L186.286 20.6261ZM185.405 21.1727C185.193 21.4343 185.085 21.7435 185.085 22.08H186.085C186.085 21.9685 186.117 21.883 186.181 21.8033L185.405 21.1727ZM185.085 22.08C185.085 22.4598 185.247 22.7845 185.526 23.0309L186.188 22.2811C186.105 22.2075 186.085 22.1482 186.085 22.08H185.085ZM185.55 23.0507C185.838 23.2745 186.282 23.4203 186.793 23.5291L187.001 22.5509C186.51 22.4463 186.26 22.3361 186.164 22.2613L185.55 23.0507ZM186.792 23.5288L188.648 23.9288L188.859 22.9512L187.003 22.5512L186.792 23.5288ZM188.647 23.9287C189.629 24.1412 190.3 24.478 190.72 24.8976L191.427 24.1904C190.822 23.586 189.947 23.1868 188.859 22.9513L188.647 23.9287ZM190.72 24.8976C191.125 25.3029 191.341 25.8359 191.341 26.544H192.341C192.341 25.6095 192.045 24.8091 191.427 24.1904L190.72 24.8976ZM191.341 26.544C191.341 27.0295 191.244 27.453 191.058 27.8244L191.952 28.2716C192.215 27.747 192.341 27.1678 192.341 26.544H191.341ZM191.058 27.8244C190.869 28.2016 190.599 28.5275 190.24 28.8037L190.85 29.5963C191.323 29.2325 191.693 28.7904 191.952 28.2716L191.058 27.8244ZM190.247 28.7988C189.886 29.0669 189.441 29.283 188.902 29.4399L189.181 30.4001C189.815 30.2157 190.372 29.9518 190.844 29.6012L190.247 28.7988ZM188.902 29.4399C188.368 29.595 187.755 29.676 187.057 29.676V30.676C187.831 30.676 188.541 30.5863 189.181 30.4001L188.902 29.4399Z" fill="#F38E82" mask="url(#path-10-outside-1_1_14)"/>
</g>
<defs>
<clipPath id="clip0_1_14">
<rect width="44" height="43" fill="white" transform="translate(4 3)"/>
</clipPath>
</defs>
</svg>
