<svg width="44" height="43" viewBox="0 0 44 43" fill="none" xmlns="http://www.w3.org/2000/svg">
<g clip-path="url(#clip0_3_12)">
<path d="M3.04122 40.0307C5.98677 42.9093 9.27822 44.363 12.4377 41.2753C14.6804 39.0835 14.1097 34.9723 11.1629 32.0913C8.21611 29.2126 4.01044 28.6548 1.76644 30.8466C-1.393 33.9343 0.0944412 37.1497 3.04122 40.0307ZM11.0504 32.2023C13.2602 34.3619 13.688 37.4459 12.0062 39.0907C9.63755 41.4055 7.16866 40.315 4.95766 38.1554C2.74666 35.9971 1.632 33.5855 4.00189 31.2683C5.68366 29.6247 8.83944 30.0428 11.0504 32.2023ZM40.9607 2.9707C38.0151 0.0908929 34.7249 -1.36155 31.5642 1.72609C29.3214 3.91789 29.8922 8.02917 32.839 10.909C35.7858 13.7888 39.9902 14.3466 42.2354 12.1536C45.3949 9.06595 43.9074 5.84931 40.9607 2.9707ZM32.9514 10.7979C30.7417 8.63834 30.3139 5.55548 31.9957 3.91073C34.3643 1.59589 36.8332 2.68523 39.0442 4.84478C41.2552 7.00434 42.3699 9.41592 40 11.7319C38.3182 13.3755 35.1624 12.9574 32.9514 10.7979Z" fill="#292F33"/>
<path d="M22 41.8056C33.4753 41.8056 42.7778 32.7144 42.7778 21.5C42.7778 10.2855 33.4753 1.19444 22 1.19444C10.5248 1.19444 1.22223 10.2855 1.22223 21.5C1.22223 32.7144 10.5248 41.8056 22 41.8056Z" fill="#292F33"/>
<path d="M38.6222 21.5C38.6222 30.4715 31.1801 37.7444 22 37.7444C12.8199 37.7444 5.37778 30.4715 5.37778 21.5C5.37778 12.5285 12.8199 5.25555 22 5.25555C31.1801 5.25555 38.6222 12.5285 38.6222 21.5Z" fill="#FFAC33"/>
<path d="M23.7661 12.7387L20.6629 9.70605C20.8953 9.44202 21.0132 9.09991 20.9917 8.7523C20.9703 8.40469 20.8111 8.07893 20.5479 7.84412C20.2848 7.60932 19.9383 7.48395 19.5822 7.49462C19.226 7.50528 18.8881 7.65114 18.6401 7.90124C18.3101 8.22374 18.1855 8.66927 18.26 9.08494C17.9721 9.03491 17.6754 9.07596 17.413 9.20212C17.1506 9.32828 16.9363 9.53297 16.8012 9.7864C16.6661 10.0398 16.6172 10.3288 16.6617 10.6112C16.7063 10.8937 16.8419 11.1548 17.0488 11.3568C17.556 11.8525 18.3566 11.874 18.8956 11.4332L21.9988 14.4647L23.7661 12.7387Z" fill="#FFE8B6"/>
<path d="M33.8177 24.2902C34.7013 23.4266 36.9356 19.7203 33.8433 16.6983C31.6886 14.5925 29.9518 14.7132 26.7214 13.9308C25.3966 13.4984 23.6683 11.9421 23.2271 11.5109C22.7847 11.9421 22.9399 13.5211 22.9399 13.5211C22.9399 13.5211 21.0149 13.674 20.5724 14.1052C21.0137 14.5364 23.067 16.4344 23.4263 17.3242C24.3919 20.3199 24.2819 21.844 26.4379 23.9486C29.9713 27.4018 32.9352 25.1538 33.8177 24.2902Z" fill="#C1694F"/>
<path d="M11.407 19.7083C11.407 22.0172 15.1947 23.8889 12.8333 23.8889C12.2716 23.8889 11.7153 23.7807 11.1963 23.5707C10.6773 23.3606 10.2057 23.0526 9.80847 22.6644C9.41125 22.2762 9.09615 21.8154 8.88117 21.3082C8.66619 20.8009 8.55554 20.2573 8.55554 19.7083C8.55554 19.1593 8.66619 18.6157 8.88117 18.1085C9.09615 17.6013 9.41125 17.1404 9.80847 16.7522C10.2057 16.364 10.6773 16.0561 11.1963 15.846C11.7153 15.6359 12.2716 15.5278 12.8333 15.5278C15.1959 15.5278 11.407 17.3995 11.407 19.7083ZM22.022 31.0436C23.9763 31.9645 27.0771 29.6497 26.1335 31.5608C25.68 32.4785 24.8721 33.1826 23.8874 33.5182C22.9027 33.8537 21.8219 33.7933 20.8829 33.3501C19.9438 32.9069 19.2233 32.1173 18.88 31.155C18.5366 30.1927 18.5985 29.1365 19.052 28.2187C19.9955 26.3076 20.0677 30.1215 22.022 31.0436Z" fill="#77B255"/>
<path d="M18.3333 22.6944C19.6834 22.6944 20.7778 21.6249 20.7778 20.3056C20.7778 18.9862 19.6834 17.9167 18.3333 17.9167C16.9833 17.9167 15.8889 18.9862 15.8889 20.3056C15.8889 21.6249 16.9833 22.6944 18.3333 22.6944Z" fill="#F4900C"/>
<path d="M29.3333 29.8611C30.0084 29.8611 30.5556 29.3263 30.5556 28.6667C30.5556 28.007 30.0084 27.4722 29.3333 27.4722C28.6583 27.4722 28.1111 28.007 28.1111 28.6667C28.1111 29.3263 28.6583 29.8611 29.3333 29.8611Z" fill="#F4900C"/>
<path d="M13.4445 28.6667C14.1195 28.6667 14.6667 28.1319 14.6667 27.4722C14.6667 26.8125 14.1195 26.2778 13.4445 26.2778C12.7694 26.2778 12.2222 26.8125 12.2222 27.4722C12.2222 28.1319 12.7694 28.6667 13.4445 28.6667Z" fill="#F4900C"/>
</g>
<defs>
<clipPath id="clip0_3_12">
<rect width="44" height="43" fill="white"/>
</clipPath>
</defs>
</svg>
